<?xml version="1.0" ?><svg height="120px" version="1.1" viewBox="0 0 180 120" width="180px" xmlns="http://www.w3.org/2000/svg" xmlns:sketch="http://www.bohemiancoding.com/sketch/ns" xmlns:xlink="http://www.w3.org/1999/xlink"><title/><desc/><defs/><g fill="none" fill-rule="evenodd" id="Page-1" stroke="none" stroke-width="1"><g id="rectangle_azerbaijan"><rect fill="#57BB63" height="120" id="Rectangle-3-copy-2" width="179.994476" x="1.09981468e-15" y="0"/><rect fill="#CA4638" height="80" id="Rectangle-3-copy-3" width="180" x="-1.37910516e-15" y="0"/><rect fill="#4086CD" height="40" id="Rectangle-3" width="179.994476" x="-6.89552582e-16" y="-1.81318869e-23"/><path d="M92.4828518,77.3469124 C90.9756675,77.7725411 89.3875407,78 87.7472367,78 C77.9836308,78 70.0686653,69.9411261 70.0686653,60 C70.0686653,50.058874 77.9836308,42 87.7472367,42 C89.3875407,42 90.9756675,42.2274587 92.4828518,42.6530879 C92.2979462,42.6462858 92.1122479,42.6428571 91.9258081,42.6428571 C83.0498028,42.6428571 75.8543796,50.4139142 75.8543796,60 C75.8543796,69.5860858 83.0498028,77.3571429 91.9258081,77.3571429 C92.1122479,77.3571429 92.2979462,77.3537145 92.4828518,77.3469124 C92.4828518,77.3469124 92.2979462,77.3537145 92.4828518,77.3469124 Z M106.542355,68.8193559 L100.572226,65.9866077 L98.3624982,72.2142857 L96.1440329,65.9897134 L90.1778855,68.8308321 L93.0106314,62.8607043 L86.782951,60.6509757 L93.0075256,58.4325106 L90.1664043,52.4663631 L96.1365346,55.2991089 L98.3462635,49.0714286 L100.564728,55.2960009 L106.530876,52.4548819 L103.69813,58.4250123 L109.925811,60.6347386 L103.701238,62.8532037 L106.542355,68.8193559 Z" fill="#FFFFFF" id="Oval-8"/></g></g></svg>