<?xml version="1.0" ?><svg height="120px" version="1.1" viewBox="0 0 180 120" width="180px" xmlns="http://www.w3.org/2000/svg" xmlns:sketch="http://www.bohemiancoding.com/sketch/ns" xmlns:xlink="http://www.w3.org/1999/xlink"><title/><defs><linearGradient id="linearGradient-1" x1="89.4043154%" x2="2.10904498%" y1="49.341575%" y2="48.0244919%"><stop offset="0%" stop-color="#A43907" stop-opacity="0.996078"/><stop offset="100%" stop-color="#FFFFFF"/></linearGradient><linearGradient id="linearGradient-2" x1="105.556517%" x2="3.34560986%" y1="30.3684301%" y2="36.0944812%"><stop offset="0%" stop-color="#A43907" stop-opacity="0.996078"/><stop offset="100%" stop-color="#FFFFFF"/></linearGradient><linearGradient id="linearGradient-3" x1="101.219088%" x2="-11.1799276%" y1="37.2248849%" y2="43.6135952%"><stop offset="0%" stop-color="#A43907" stop-opacity="0.996078"/><stop offset="100%" stop-color="#FFFFFF"/></linearGradient><linearGradient id="linearGradient-4" x1="86.7488448%" x2="5.08717439%" y1="44.3418257%" y2="39.8079107%"><stop offset="0%" stop-color="#A43907" stop-opacity="0.996078"/><stop offset="100%" stop-color="#FFFFFF"/></linearGradient><linearGradient id="linearGradient-5" x1="53.8462754%" x2="44.6566917%" y1="62.1901557%" y2="54.8743954%"><stop offset="0%" stop-color="#A43907" stop-opacity="0.996078"/><stop offset="100%" stop-color="#FFFFFF"/></linearGradient><linearGradient id="linearGradient-6" x1="227.157055%" x2="3173.76475%" y1="44.2584824%" y2="52.5994135%"><stop offset="0%" stop-color="#A43907" stop-opacity="0.996078"/><stop offset="100%" stop-color="#FFFFFF"/></linearGradient><linearGradient id="linearGradient-7" x1="-1542.11016%" x2="970.203684%" y1="45.6183246%" y2="49.9992092%"><stop offset="0%" stop-color="#A43907" stop-opacity="0.996078"/><stop offset="100%" stop-color="#FFFFFF"/></linearGradient><linearGradient id="linearGradient-8" x1="92.2247594%" x2="-3.29887747%" y1="47.8274957%" y2="47.5854258%"><stop offset="0%" stop-color="#A43907" stop-opacity="0.996078"/><stop offset="100%" stop-color="#FFFFFF"/></linearGradient><linearGradient id="linearGradient-9" x1="97.3725503%" x2="-6.96450092%" y1="42.0122093%" y2="43.8259486%"><stop offset="0%" stop-color="#A43907" stop-opacity="0.996078"/><stop offset="100%" stop-color="#FFFFFF"/></linearGradient></defs><g fill="none" fill-rule="evenodd" id="Page-1" stroke="none" stroke-width="1"><g id="falkand_islands"><rect d="M0,0 L0,120 L180,120 L180,0 L0,0 Z M0,0" fill="#346DA6" height="120" id="Rectangle-326" width="180" x="0" y="0"/><g id="Group" transform="translate(108.000000, 35.000000)"><g id="g1148" stroke="#000000" transform="translate(0.000000, 56.000000)"><path d="M6.08026472,2.3470254 C6.46659327,1.93887547 7.14251371,0 8.20507175,0 C9.26732073,0 13.2273429,2.55110037 13.2273429,2.55110037 L14,10 C14,10 11.0057992,6.22444981 9.75038595,6.22444981 C8.49466363,6.22444981 6.46659327,8.87742441 6.3698566,8.87742441 C6.273429,8.87742441 4.8245424,5.9181741 5.01770668,5.51002416 C5.21087095,5.10187422 5.98352805,2.75517534 6.08026472,2.3470254 C6.08026472,2.3470254 5.98352805,2.75517534 6.08026472,2.3470254 L6.08026472,2.3470254 L6.08026472,2.3470254 L6.08026472,2.3470254 L6.08026472,2.3470254 Z M6.08026472,2.3470254" fill="url(#linearGradient-1)" id="path1096" stroke-width="0.1"/><path d="M44,9 C44,9 45.9051075,6.01934181 47.4928664,6.23224597 C49.0802867,6.44515012 50.562037,8.36128753 50.6680456,8.46756929 C50.7737156,8.57419169 53.1021803,6.01934181 52.9965103,5.91271941 C52.8905017,5.80643765 50.562037,0.270929585 49.2919653,0.0580254281 C48.0218936,-0.154878728 45.4817503,0.270929585 45.4817503,0.483833741 C45.4817503,0.696737897 44,9 44,9 L44,9 L44,9 L44,9 L44,9 Z M44,9" fill="url(#linearGradient-2)" id="path1097" stroke-width="0.1"/><path d="M40,5.75998563 C40,5.96253132 40.6219512,13.4567217 43.3170732,16.0898156 C46.0121951,18.7229095 50.3658537,20.3432749 51.9208976,19.9381836 C53.4756098,19.5330922 57,11.9377911 57,11.9377911 C57,11.9377911 53.2682927,15.5836134 50.469678,14.9759763 C47.6707317,14.3683393 46.0121951,9.81089933 45.4940683,7.58289679 C44.9756098,5.35489426 45.3902439,1 45.3902439,1 L40,5.75998563 L40,5.75998563 L40,5.75998563 L40,5.75998563 Z M40,5.75998563" fill="url(#linearGradient-3)" id="path1098" stroke-width="0.1"/><path d="M12.108004,2 C12.108004,2.10520984 13.534741,13.3808725 8.235432,14.8561708 C2.93612294,16.331469 1,12.327088 1,12.327088 C1,12.327088 3.8534741,20.546607 4.872572,20.652154 C5.89166989,20.7573639 8.84689073,22.0219053 12.3118236,18.9660989 C15.7767564,15.9099552 17,11.2733035 17,9.06018746 C17,6.84740864 16.6941076,4.95059657 16.6941076,4.95059657 L12.108004,2 L12.108004,2 L12.108004,2 L12.108004,2 Z M12.108004,2" fill="url(#linearGradient-4)" id="path1094" stroke-width="0.1"/><path d="M6.50281111,3 C6.70362563,3.30477001 6.11049986,4.27502501 6.60337902,5.43946111 C7.01400455,6.40971611 14.6359599,14.9940171 29.0946054,14.3841519 C43.5535723,13.7742866 52.4016207,6.67643053 52.4016207,4.54206468 C53.6065079,5.96508367 53.9959274,7.26905694 55,7.87892222 C55,8.89536435 54.9546962,9.82235957 53.7951129,11.4366323 C52.544922,13.176456 45.4611496,20.4828046 29.8978635,19.9747462 C14.3345774,19.4663625 6.80419354,15.095824 4.29417268,11.0300555 C2.51254624,8.0243141 3.08896424,7.6756338 3.08896424,7.6756338 C4.72889595,6.42207605 5.56556957,4.96522987 6.50281111,3 C6.50281111,3 5.56556957,4.96522987 6.50281111,3 L6.50281111,3 L6.50281111,3 L6.50281111,3 L6.50281111,3 Z M6.50281111,3" fill="url(#linearGradient-5)" id="path1092" stroke-width="0.1"/><path d="M7,16.641093 C7,16.9486338 6.55558189,19 6.4442996,19 C6.33337284,19 4,15.3075408 4,15.3075408 L5.66674567,15 C5.66674567,15 7,17.0513662 7,16.641093 C7,16.641093 7,17.0513662 7,16.641093 L7,16.641093 L7,16.641093 L7,16.641093 L7,16.641093 Z M7,16.641093" fill="url(#linearGradient-6)" id="path1101" stroke-width="0.1"/><path d="M51.7187291,18.9499115 C51.9171143,18.628114 54,14.871635 54,14.871635 L52.8579362,14 C52.5071912,15.0625842 51.2226075,15.4084221 51.0242223,16.6962988 C50.8258371,17.9841756 51.9171143,19.2720524 51.7187291,18.9499115 C51.7187291,18.9499115 51.9171143,19.2720524 51.7187291,18.9499115 L51.7187291,18.9499115 L51.7187291,18.9499115 L51.7187291,18.9499115 L51.7187291,18.9499115 Z M51.7187291,18.9499115" fill="url(#linearGradient-7)" id="path1102" stroke-width="0.1"/><path d="M4.30734122,20 C4.20744764,19.4617352 3.40957553,16.2311124 5.00531974,16.0157376 C6.60106395,15.8003627 7,16.9847521 7,16.9847521 C7,16.9847521 6.30202148,14.9388633 6.00265987,13.3233796 C5.70361741,11.7082406 5.90308543,10.8467412 5.90308543,10.8467412 C5.90308543,10.8467412 4.1078732,8.8005078 3.21010751,9.01588265 C2.31266097,9.2312575 1.11585281,10.9542563 1.01595922,11.6003808 C0.916384785,12.2465054 1.31532084,13.1080048 1.31532084,13.1080048 L4.30734122,20 L4.30734122,20 L4.30734122,20 L4.30734122,20 Z M4.30734122,20" fill="url(#linearGradient-8)" id="path1100" stroke-width="0.1"/><path d="M53.8450968,18 C53.8450968,18 54.2521601,16.2268989 52.9293672,16.0182791 C51.6062488,15.8096593 50.6905192,16.8527582 51.0975825,16.5396616 C51.5046458,16.2268989 52.1152407,15.4965628 52.2168437,13.7234616 C52.3187723,11.9500267 52.1152407,11.0114046 52.1152407,11.0114046 C52.1152407,11.0114046 52.623907,8.71625338 54.761152,9.02934993 C56.8980714,9.34244648 57,11.0114046 57,11.6372639 C57,12.2631232 56.7964684,12.575886 56.7964684,12.575886 L53.8450968,18 L53.8450968,18 L53.8450968,18 L53.8450968,18 Z M53.8450968,18" fill="url(#linearGradient-9)" id="path1103" stroke-width="0.1"/><path d="M46,12 L46,12.791523 L46.239071,12.791523 L46.2945355,12.3130197 L46.35,12.2549179 L46.765847,12.2549179 L46.765847,14.6872845 L46.7071038,14.758771 L46.481694,14.7809775 L46.481694,15 L47.5180328,15 L47.5180328,14.7809775 L47.2928962,14.758771 L47.2338798,14.6872845 L47.2338798,12.2549179 L47.65,12.2549179 L47.7019126,12.3130197 L47.7606557,12.791523 L48,12.791523 L48,12 L46,12 L46,12 L46,12 L46,12 Z M46,12" fill="#000000" id="path1122" stroke-width="0.1" transform="translate(47.000000, 13.500000) rotate(-29.855962) translate(-47.000000, -13.500000) "/><path d="M43,13 L43,13.2190225 L43.2475614,13.2415332 L43.3158426,13.3130197 L43.3158426,15.6872845 L43.2475614,15.758771 L43,15.7809775 L43,16 L44.2078708,16 L44.2078708,15.7809775 L43.9515641,15.758771 L43.8832829,15.6872845 L43.8832829,14.5605354 L45.1167171,14.5605354 L45.1167171,15.6872845 L45.0528086,15.758771 L44.7965018,15.7809775 L44.7965018,16 L46,16 L46,15.7809775 L45.7524386,15.758771 L45.6841574,15.6872845 L45.6841574,13.3130197 L45.7524386,13.2415332 L46,13.2190225 L46,13 L44.7965018,13 L44.7965018,13.2190225 L45.0528086,13.2415332 L45.1167171,13.3130197 L45.1167171,14.2922328 L43.8832829,14.2922328 L43.8832829,13.3130197 L43.9515641,13.2415332 L44.2078708,13.2190225 L44.2078708,13 L43,13 L43,13 L43,13 L43,13 Z M43,13" fill="#000000" id="path1123" stroke-width="0.1" transform="translate(44.500000, 14.500000) rotate(-25.807909) translate(-44.500000, -14.500000) "/><path d="M41.6520737,15.5214706 L41.6520737,15.7332353 L41.9936939,15.755 L42.0675479,15.8155882 L42.0675479,16.6973529 C41.9474897,16.7058824 41.8598108,16.7102941 41.8136066,16.7102941 C41.1030803,16.7102941 40.6690517,16.2564706 40.6690517,15.4782353 C40.6690517,14.7217647 41.0936211,14.2723529 41.7815911,14.2723529 C41.9154742,14.2723529 42.0398981,14.2938235 42.1646859,14.3414706 L42.2338103,14.4191176 L42.3214892,14.8773529 L42.6583798,14.8773529 L42.6583798,14.1426471 C42.3167596,14.0473529 41.9893282,14 41.6844531,14 C40.6599563,14 40,14.5920588 40,15.4782353 C40,16.3773529 40.6552268,17 41.624424,17 C41.9613146,17 42.3029348,16.9394118 42.6583798,16.8226471 L42.6583798,15.8155882 L42.7322338,15.755 L43,15.7332353 L43,15.5214706 L41.6520737,15.5214706 L41.6520737,15.5214706 L41.6520737,15.5214706 L41.6520737,15.5214706 Z M41.6520737,15.5214706" fill="#000000" id="path1124" stroke-width="0.1" transform="translate(41.500000, 15.500000) rotate(-15.673478) translate(-41.500000, -15.500000) "/><path d="M39,18 L40,18 L40,17.7809775 L39.775903,17.758771 L39.7223833,17.6872845 L39.7223833,15.3041979 L39.775903,15.2415332 L40,15.2190225 L40,15 L39,15 L39,15.2190225 L39.2206697,15.2415332 L39.2741893,15.3041979 L39.2741893,17.6872845 L39.2206697,17.758771 L39,17.7809775 L39,18 L39,18 L39,18 L39,18 Z M39,18" fill="#000000" id="path1125" stroke-width="0.5" transform="translate(39.500000, 16.500000) rotate(-8.319759) translate(-39.500000, -16.500000) "/><path d="M32,19 L34,19 L34,18.1999594 L33.7466608,18.1999594 L33.6832526,18.6738998 L33.6348158,18.7453863 L32.7708792,18.7453863 L32.7708792,17.5827418 L33.2549538,17.5827418 L33.3072068,17.6454066 L33.3444885,17.967248 L33.5640687,17.967248 L33.5640687,16.9299331 L33.3444885,16.9299331 L33.3072068,17.2520787 L33.2549538,17.3144393 L32.7708792,17.3144393 L32.7708792,16.2503549 L33.5121092,16.2503549 L33.560546,16.3084567 L33.6163217,16.7020888 L33.8769999,16.7020888 L33.8769999,16 L32,16 L32,16.2190225 L32.2272127,16.2415332 L32.2868046,16.3041979 L32.2868046,18.6872845 L32.2272127,18.758771 L32,18.7809775 L32,19 L32,19 L32,19 L32,19 Z M32,19" fill="#000000" id="path1128" stroke-width="0.1" transform="translate(33.000000, 17.500000) rotate(-4.047387) translate(-33.000000, -17.500000) "/><path d="M29,16 L29,16.2190225 L29.2475614,16.2415332 L29.3158426,16.3130197 L29.3158426,18.6872845 L29.2475614,18.758771 L29,18.7809775 L29,19 L30.2075345,19 L30.2075345,18.7809775 L29.9515641,18.758771 L29.8832829,18.6872845 L29.8832829,17.5605354 L31.1163808,17.5605354 L31.1163808,18.6872845 L31.0524723,18.758771 L30.7965018,18.7809775 L30.7965018,19 L32,19 L32,18.7809775 L31.7524386,18.758771 L31.6841574,18.6872845 L31.6841574,16.3130197 L31.7524386,16.2415332 L32,16.2190225 L32,16 L30.7965018,16 L30.7965018,16.2190225 L31.0524723,16.2415332 L31.1163808,16.3130197 L31.1163808,17.2922328 L29.8832829,17.2922328 L29.8832829,16.3130197 L29.9515641,16.2415332 L30.2075345,16.2190225 L30.2075345,16 L29,16 L29,16 L29,16 L29,16 Z M29,16" fill="#000000" id="path1129" stroke-width="0.1"/><path d="M27,16 L27,16.791523 L27.239071,16.791523 L27.2945355,16.3130197 L27.35,16.2549179 L27.7661202,16.2549179 L27.7661202,18.6872845 L27.7071038,18.758771 L27.481694,18.7809775 L27.481694,19 L28.518306,19 L28.518306,18.7809775 L28.2928962,18.758771 L28.2338798,18.6872845 L28.2338798,16.2549179 L28.65,16.2549179 L28.7019126,16.3130197 L28.760929,16.791523 L29,16.791523 L29,16 L27,16 L27,16 L27,16 L27,16 Z M27,16" fill="#000000" id="path1130" stroke-width="0.1" transform="translate(28.000000, 17.500000) rotate(1.611478) translate(-28.000000, -17.500000) "/><path d="M23,19 L25,19 L25,18.1999594 L24.7466608,18.1999594 L24.6832526,18.6738998 L24.6348158,18.7453863 L23.7708792,18.7453863 L23.7708792,17.5827418 L24.2549538,17.5827418 L24.3072068,17.6454066 L24.3444885,17.967248 L24.5640687,17.967248 L24.5640687,16.9299331 L24.3444885,16.9299331 L24.3072068,17.2520787 L24.2549538,17.3144393 L23.7708792,17.3144393 L23.7708792,16.2503549 L24.5121092,16.2503549 L24.560546,16.3084567 L24.6163217,16.7020888 L24.8769999,16.7020888 L24.8769999,16 L23,16 L23,16.2190225 L23.2272127,16.2415332 L23.2868046,16.3041979 L23.2868046,18.6872845 L23.2272127,18.758771 L23,18.7809775 L23,19 L23,19 L23,19 L23,19 Z M23,19" fill="#000000" id="path1131" stroke-width="0.1" transform="translate(24.000000, 17.500000) rotate(3.667395) translate(-24.000000, -17.500000) "/><path d="M19,18 L20,18 L20,17.7809775 L19.775903,17.758771 L19.7223833,17.6872845 L19.7223833,15.3041979 L19.775903,15.2415332 L20,15.2190225 L20,15 L19,15 L19,15.2190225 L19.2206697,15.2415332 L19.2741893,15.3041979 L19.2741893,17.6872845 L19.2206697,17.758771 L19,17.7809775 L19,18 L19,18 L19,18 L19,18 Z M19,18" fill="#000000" id="path1134" stroke-width="0.1" transform="translate(19.500000, 16.500000) rotate(18.837905) translate(-19.500000, -16.500000) "/><path d="M17.0000001,17.0998986 C17.2708657,17.1948986 17.5634143,17.2425457 17.8428843,17.2425457 C18.5591121,17.2425457 19.0000001,16.870781 19.0000001,16.3563692 C19.0000001,16.1013692 18.8602651,15.8678398 18.6069524,15.7078398 C18.3495097,15.5437221 18.11788,15.4787221 17.9826193,15.3966633 C17.7513338,15.258428 17.6288075,15.1287221 17.6288075,14.9298986 C17.6288075,14.6919574 17.8253314,14.5193104 18.1440373,14.5193104 C18.2837723,14.5193104 18.3842713,14.540781 18.4627432,14.5796045 L18.5240063,14.6401927 L18.5983481,15.0898986 L18.9125797,15.0898986 L18.9125797,14.3896045 C18.637584,14.2943104 18.3625883,14.2425457 18.0917227,14.2425457 C17.4673895,14.2425457 17.0612632,14.6143104 17.0612632,15.0940163 C17.0612632,15.3060751 17.1658924,15.5178398 17.3668905,15.6863692 C17.55894,15.8463692 17.7644124,15.9198986 17.9389091,16.0063692 C18.2490106,16.1619574 18.4062985,16.3175457 18.4062985,16.550781 C18.4062985,16.7887221 18.196696,16.9616633 17.8428843,16.9616633 C17.7076236,16.9616633 17.5809672,16.9398986 17.4587852,16.9010751 L17.4019963,16.8363692 L17.3321288,16.3175457 L17.0000001,16.3175457 L17.0000001,17.0998986 L17.0000001,17.0998986 L17.0000001,17.0998986 L17.0000001,17.0998986 Z M17.0000001,17.0998986" fill="#000000" id="path1135" stroke-width="0.1" transform="translate(18.000000, 15.742546) rotate(18.837905) translate(-18.000000, -15.742546) "/><path d="M14.2646107,16.5886946 L16.2646107,16.5886946 L16.2646107,15.788654 L16.011565,15.788654 L15.9481568,16.2625944 L15.89972,16.3340809 L15.0357834,16.3340809 L15.0357834,15.1714364 L15.519858,15.1714364 L15.572111,15.2341012 L15.6090991,15.5559426 L15.8289729,15.5559426 L15.8289729,14.5186277 L15.6090991,14.5186277 L15.572111,14.8407733 L15.519858,14.9031338 L15.0357834,14.9031338 L15.0357834,13.8390495 L15.7767199,13.8390495 L15.8251567,13.8971513 L15.881226,14.2907834 L16.1419041,14.2907834 L16.1419041,13.5886946 L14.2646107,13.5886946 L14.2646107,13.8077171 L14.4918234,13.8302277 L14.5514153,13.8928925 L14.5514153,16.2759791 L14.4918234,16.3474656 L14.2646107,16.3696721 L14.2646107,16.5886946 L14.2646107,16.5886946 L14.2646107,16.5886946 L14.2646107,16.5886946 Z M14.2646107,16.5886946" fill="#000000" id="path1136" stroke-width="0.1" transform="translate(15.264611, 15.088695) rotate(26.524270) translate(-15.264611, -15.088695) "/><path d="M12.3433269,12 L11,12 L11,12.2190225 L11.280706,12.2415332 L11.3543279,12.3130197 L11.3543279,14.6872845 L11.280706,14.758771 L11,14.7809775 L11,15 L12.3433269,15 C12.8035542,15 13.1484526,14.9330765 13.4338733,14.7186169 C13.8066973,14.4411884 14,14.0299128 14,13.5024336 C14,12.5633746 13.4110251,12 12.3433269,12 L12.3433269,12 L12.3433269,12 L12.3433269,12 L12.3433269,12 Z M12,12 L12.197319,12 C12.7380697,12 13,12.3257059 13,12.998296 C13,13.6708861 12.7380697,14 12.197319,14 L12,14 L12,12 L12,12 L12,12 L12,12 Z M12,12" fill="#000000" id="path1141" stroke-width="0.5" transform="translate(12.500000, 13.500000) rotate(34.360856) translate(-12.500000, -13.500000) "/><path d="M20,15 L20,15.2167587 L20.2679466,15.2390366 L20.3405676,15.3010537 L20.3405676,17.6595083 L20.2679466,17.7302559 L20,17.7522328 L20,17.9689915 L21.2799905,17.9689915 L21.2799905,17.7522328 L21.0031004,17.7302559 L20.9304794,17.6595083 L20.9304794,16.6639237 L21.007751,16.6639237 C21.4660148,16.6639237 21.5840687,16.8541897 21.7246601,17.2744606 C21.7972812,17.4867035 21.8380634,17.686001 22.0741712,17.8630206 C22.1832817,17.9470146 22.3510613,18 22.5463868,18 C22.6869783,18 22.8411638,17.9867536 23,17.9647767 L23,17.7522328 L22.9409731,17.7522328 C22.6368948,17.7522328 22.500954,17.686001 22.4054376,17.4424486 C22.3192225,17.2214752 22.2830909,16.9824385 22.1421417,16.7876568 C22.0380396,16.6461616 21.8834963,16.5621676 21.6656332,16.5133969 C22.1786311,16.4203713 22.4465776,16.1638736 22.4465776,15.756849 C22.4465776,15.2655294 22.0834725,15 21.3797997,15 L20,15 L20,15 L20,15 L20,15 Z M21,15 L21.2373019,15 C21.7370987,15 22,15.1755388 22,15.4884446 C22,15.8397819 21.7370987,16 21.1856969,16 C21.1288094,16 21.0670459,16 21,15.9961049 L21,15 L21,15 L21,15 L21,15 Z M21,15" fill="#000000" id="path1144" stroke-width="0.1" transform="translate(21.500000, 16.500000) rotate(9.453992) translate(-21.500000, -16.500000) "/><path d="M36,15 L36,15.2167587 L36.2679466,15.2390366 L36.3405676,15.3010537 L36.3405676,17.6595083 L36.2679466,17.7302559 L36,17.7522328 L36,17.9689915 L37.2799905,17.9689915 L37.2799905,17.7522328 L37.0031004,17.7302559 L36.9304794,17.6595083 L36.9304794,16.6639237 L37.007751,16.6639237 C37.4660148,16.6639237 37.5840687,16.8541897 37.7246601,17.2744606 C37.7972812,17.4867035 37.8384212,17.686001 38.0741712,17.8630206 C38.1832817,17.9470146 38.3510613,18 38.5463868,18 C38.6869783,18 38.8411638,17.9867536 39,17.9647767 L39,17.7522328 L38.9409731,17.7522328 C38.6368948,17.7522328 38.500954,17.686001 38.4054376,17.4424486 C38.3192225,17.2214752 38.2830909,16.9824385 38.1424994,16.7876568 C38.0380396,16.6461616 37.8834963,16.5621676 37.6659909,16.5133969 C38.1786311,16.4203713 38.4465776,16.1638736 38.4465776,15.756849 C38.4465776,15.2655294 38.0834725,15 37.3797997,15 L36,15 L36,15 L36,15 L36,15 Z M37,15 L37.2373019,15 C37.7370987,15 38,15.1755388 38,15.4884446 C38,15.8397819 37.7370987,16 37.1856969,16 C37.1288094,16 37.0670459,16 37,15.9961049 L37,15 L37,15 L37,15 L37,15 Z M37,15" fill="#000000" id="path1147" stroke-width="0.5" transform="translate(37.500000, 16.500000) rotate(-8.319759) translate(-37.500000, -16.500000) "/></g><path d="M28.99952,68 C28.99952,68 4.8598013,61.1864189 5.00061366,35.2646851 L5.18654997,1 L52.81281,1 L52.9993864,35.0679053 C53.1401987,60.9896391 28.99952,68 28.99952,68 L28.99952,68 L28.99952,68 L28.99952,68 L28.99952,68 Z M28.99952,68" fill="#0072C4" fill-opacity="0.996081" id="path703" stroke="#000000" stroke-width="0.1"/><g id="g1079" transform="translate(10.000000, 3.000000)"><path d="M0.401077194,5.63755333 C0.440864052,5.63755333 0.734131696,5.36384725 1.00269299,5.12245827 C1.37778038,4.9377891 1.72463193,4.67826297 2.1058157,4.50414633 C2.38977835,4.34256081 2.95096556,4.21724959 3.20861755,4.09193837 C3.54648498,3.9181515 3.82210523,3.71798331 4.11120167,3.37040956 C4.14585474,2.90939618 4.2116314,2.57831075 4.2116314,2.03089858 C4.61046256,1.84227221 4.96437308,1.65925188 5.31443325,1.51547374 C5.81626104,1.3766421 5.92503317,1.17944181 6.41755597,1.10326578 C6.73456738,0.994442883 7.25853463,1.00004891 7.72089642,1.00004891 C8.21983645,1.00004891 8.53460183,1.34861196 8.9828457,1.43105355 C9.51419277,1.64177426 9.7622189,1.787531 10.1860773,2.15258237 C10.4254402,2.45036139 10.57432,2.69240991 10.9824562,2.91665104 C11.3055639,3.07955562 11.6081366,3.32622087 11.9851491,3.4317461 C12.3990608,3.66752906 12.7664475,3.80405233 13.087951,4.15327492 C13.3825021,4.35904913 13.5041087,4.66474255 13.7899965,4.87447396 C14.1211258,5.14455262 14.4352495,5.38759043 14.7926895,5.59600277 C15.2223234,5.87894232 15.6481069,6.09394999 16.3440561,6.03228368 C16.7124054,6.01084886 17.1089905,5.9692983 17.5472877,6.04976129 C18.0378853,6.04976129 18.516611,6.04118737 18.9510579,6.15297817 C19.4625115,6.15297817 19.8764232,6.22091004 20.354828,6.25586527 C20.8030719,6.33830687 21.259979,6.35908215 21.7585982,6.35908215 C22.1933659,6.47054318 22.6717708,6.46196925 23.1623684,6.46196925 L24.5661386,6.46196925 L25.9699087,6.46196925 C26.4807207,6.46196925 26.9979498,6.48241477 27.3736789,6.56518613 C27.8796779,6.56518613 28.3147665,6.51868907 28.7774491,6.46196925 C29.3219515,6.46196925 29.7371466,6.36402864 30.281649,6.35908215 L31.9863875,6.35908215 C32.424043,6.47680874 32.983305,6.5576015 33.289728,6.77129011 C33.691126,6.88374044 33.8910229,7.07071797 34.292421,7.18349806 C34.5998065,7.33848826 35.0666604,7.58383443 35.2951139,7.90469711 C35.578114,8.19555105 35.8688148,8.61204597 36.0972683,9.03843388 C36.3764181,9.43415352 36.4826233,9.88659298 36.6988841,10.3779449 C36.8134318,10.8488512 36.8933263,11.296674 36.8994227,11.8206727 C37.0081949,12.2675061 36.9998524,12.7591878 36.9998524,13.2634006 C36.8853048,13.7333177 36.8602776,14.2563271 36.6988841,14.7061284 C36.6815576,15.2090221 36.5792027,15.6640997 36.4983455,16.0459692 C36.409146,16.4677404 36.3042242,16.7391381 36.2978069,17.2825931 L36.2978069,18.7253209 C36.2625121,19.1985357 36.1572695,19.5461094 36.0972683,20.0648319 C35.8546968,20.514963 35.6223929,21.0412701 35.3955437,21.6107766 C35.0618474,21.8393047 34.7724301,22.1644544 34.5933893,22.4351926 C34.3793745,22.5651205 34.2555219,22.7623208 34.292421,22.8474005 C34.6931773,22.9845833 34.5933893,23.2586192 34.5933893,23.7747035 C34.6453689,24.172072 34.684514,24.664743 34.7939279,25.1145443 C34.8305061,25.6065557 34.9376739,25.9073026 35.0945753,26.2479513 C35.2527602,26.4510874 35.2835629,26.3511682 34.8940367,26.3511682 C34.6042986,26.57442 34.3110309,26.4576827 34.1923121,26.0418473 C33.9584039,25.7645138 33.881397,25.4288116 33.7912349,24.9084403 C33.7357258,24.4312684 33.6580773,23.9662978 33.4902666,23.6718164 C33.4389287,23.0910979 33.2817064,23.0970337 32.6881122,23.0535045 C32.4057538,22.8074988 32.0329125,22.7441836 31.4848806,22.7441836 C30.9390948,22.7441836 30.8932115,22.6894424 30.8832648,23.2596085 L30.8832648,24.7023363 C30.7889315,25.1204801 30.5819756,25.4594799 30.4821876,25.8357433 C30.1831445,26.0510808 30.0275265,26.4125047 29.6800332,26.6601592 C29.5144686,27.1280977 29.2738222,27.20955 28.7774491,27.2784712 C28.6038629,27.0654421 28.3208628,26.7874491 28.1758333,26.5572721 C28.4565874,26.0942802 28.7017257,26.0243697 28.8778788,25.5267522 C29.090931,25.1165229 29.2160671,24.8504014 29.3790649,24.4962323 C29.1650501,24.1724018 28.9728539,24.0263153 28.7774491,23.5685996 C28.6125262,23.3192962 28.3840726,22.7827663 28.276263,22.4351926 C27.9470589,22.3224125 27.4285463,22.3042753 27.1731403,22.1258717 C26.6867139,22.0147404 26.5506685,22.5380797 25.9702296,22.5380797 L24.5664594,22.5380797 C23.9455919,22.5380797 23.7906157,22.8787283 23.2627981,22.8474005 C23.1078219,22.8968655 22.7317719,22.8256359 22.1596754,22.8474005 C21.74063,22.9908489 21.2359144,22.9502876 20.7559052,22.9502876 C20.2473393,22.9440221 19.8311816,22.8289336 19.4525648,22.7441836 C18.9918073,22.6201915 18.5336167,22.4945505 18.0487946,22.4351926 C17.4600133,22.4351926 17.2408647,22.4813598 16.845563,22.7441836 C16.5327228,22.9265444 16.0793451,23.3433691 15.7424403,23.5685996 C15.5999777,23.9105673 15.5258586,24.4893073 15.3413631,24.9084403 C15.234837,25.3104255 15.0615717,25.5653349 14.9402859,25.9389602 C14.8045614,26.2875233 14.6762167,26.6463091 14.6396384,27.1755841 C14.6056271,27.8700721 14.4512926,27.7849923 14.0380227,27.587792 C13.8657199,27.3002358 13.5910622,26.9839898 13.4364069,26.6601592 C13.5275316,26.1358307 13.6302074,25.8749855 13.6369455,25.3206483 C13.5394035,24.9206417 13.3115916,24.9335026 13.0353297,25.2174314 C13.0353297,25.7569292 13.0606777,26.1730943 12.8347911,26.4540553 C12.7218477,26.8797837 12.54024,27.0637933 12.2331753,27.2784712 C12.083012,27.6610002 11.7496366,27.8361061 11.4310209,28 C11.3800039,27.9825224 11.4310209,27.8618279 11.4310209,27.587792 C11.1906954,27.1165559 11.4136944,26.725453 11.4136944,26.1450642 C11.4197907,25.6246929 11.3896297,25.2797572 11.5433225,24.8052234 C11.5433225,24.3056274 11.3074891,23.8304341 11.2304823,23.4657124 C11.0440616,23.0828537 10.9365729,22.8935678 10.4283279,22.7441836 C10.0712088,22.6046925 9.55654652,22.4160661 9.32520519,22.1258717 C9.03418358,21.7548845 8.84840463,21.6022027 8.42294194,21.4046727 C7.96154273,21.240449 7.73758123,21.0900755 7.42024895,20.8892478 C7.1102965,20.5532159 6.85842002,20.4074592 6.71820343,19.9619448 C6.50900157,19.6450393 6.47306505,19.0564064 6.31712624,18.622104 C6.28311489,18.1696646 6.15124071,17.7492125 6.01647877,17.3854802 C5.95679849,16.9330407 5.88428373,16.6019553 5.71551045,16.1488563 C5.6596805,15.7251065 5.53518614,15.2819005 5.41486298,14.8093453 C5.41486298,14.3051325 5.42320539,13.8131211 5.31443325,13.3666175 L5.31443325,11.9238896 C5.24223936,11.5073947 5.21560783,10.8976567 5.11389466,10.5840488 C5.11389466,10.023446 5.05325178,9.70687031 4.91335606,9.34742497 C4.6839399,8.9833629 4.66532992,8.82012855 4.31174027,8.72911303 C4.05633431,9.04931617 3.63536369,9.17990365 3.10850869,9.24453786 C2.74048025,9.16209627 2.22100507,9.10834435 1.80484737,8.93521701 C1.40280759,8.83793593 1.12782907,8.68162667 0.802154388,8.52300905 C0.624076114,8.25358993 0.41134477,7.94855604 0.200538597,7.69859313 C0.138291417,7.16041442 0.0189308436,6.88341067 0,6.35908215 C0,5.96567087 0.00962585266,6.17441298 0.401077194,5.63755333 C0.401077194,5.63755333 0.00962585266,6.17441298 0.401077194,5.63755333 L0.401077194,5.63755333 L0.401077194,5.63755333 L0.401077194,5.63755333 L0.401077194,5.63755333 Z M0.401077194,5.63755333" fill="#BCBCBC" id="path1019"/><path d="M6.09859246,9.58189801 C6.12272149,9.55724417 6.14652445,9.53225262 6.17065348,9.50726106 C6.00696738,9.67679838 6.06696387,9.59506923 6.45889753,9.43262411 C6.67801518,9.295846 7.09473,9.05504897 7.25156867,8.91016548 C7.43970987,8.82472138 7.7393663,8.71327254 7.89979172,8.53731847 C8.10064956,8.32522796 8.30118134,8.14927389 8.54834083,7.9402229 C8.83365027,7.70043904 9.09972171,7.62174941 9.41307299,7.41776427 C9.8206579,7.38770686 9.96836668,7.2147923 10.3495401,7.34312732 C10.7072366,7.42350557 10.8555975,7.42586964 11.1422112,7.11921648 C11.4314335,6.93583249 11.7496758,6.75751435 11.8628214,6.44748396 L11.8628214,6 C11.8572782,6.48767308 11.7685877,6.64572779 11.4304553,6.82066869 C11.1947082,7.0881459 10.900921,7.39074637 10.7819062,7.64167511 C10.5530065,7.96994259 10.5044224,8.1536643 10.2774791,8.31340763 C10.0912943,8.54846336 9.77174771,8.67274569 9.70131704,9.05943938 C9.80402844,9.23708207 9.71012087,9.3343465 9.91717401,9.35798717 C10.1258575,9.53562985 10.3430187,9.45997974 10.6377841,9.35798717 C10.9309192,9.02195204 11.0626507,8.80479568 11.2142722,8.46268153 C11.4562146,8.13542722 11.5915328,7.97973658 11.7186993,7.71631206 C11.9691195,7.5363053 12.1282407,7.39614995 12.2231264,7.11921648 C12.5130008,6.95136778 12.7513565,6.77440054 12.9434105,6.59675785 C13.1589414,6.45964201 13.2730652,6.34819318 13.5919596,6.29821006 C13.5873947,6.69908815 13.5273982,6.88855117 13.3757766,7.11921648 C13.3040416,7.53495441 13.3183886,7.73184735 13.4478376,8.01485984 C13.6548907,8.14150625 13.618045,8.25194191 13.7360816,8.53731847 C13.8534661,8.29044242 13.9131365,7.790949 13.9522647,7.49240122 L13.9522647,7.41776427 C13.9522647,7.7440054 13.9822629,8.17696724 13.8802037,8.38804458 C13.8850947,8.82303276 13.982589,9.01722391 14.0963867,9.35798717 C14.217684,9.52245863 14.3034398,9.62917933 14.4566918,9.7311719 C14.4710387,9.30057413 14.5796194,9.01688619 14.6008138,8.61195542 C14.7012427,8.92434988 14.6676577,9.33738602 14.7449358,9.65653495 C14.7710212,10.0077676 14.899492,10.279973 15.0331799,10.5521783 C15.197192,10.6524823 15.2529496,10.948666 15.3210978,10.7014522 C15.4916314,10.1762918 15.4958703,9.60182371 15.6093419,9.05943938 C15.6298842,8.78419453 15.6520568,8.37453563 15.7534639,8.16413374 L15.6093419,9.05943938 C15.6298842,8.78419453 15.6520568,8.37453563 15.7534639,8.16413374 L15.7534639,8.08949679 C15.8206339,8.48260723 15.8842172,8.86220871 15.8975859,9.28335022 C15.8975859,9.61938534 15.8757394,9.96149949 15.969647,10.2536305 C16.2093069,10.1438703 16.3482118,9.8861871 16.474074,9.58189801 C16.6661281,9.22120905 16.7975334,9.061128 17.0505622,8.76122931 L16.474074,9.58189801 C16.6661281,9.22120905 16.7975334,9.061128 17.0505622,8.76122931 L17.0505622,8.68659237 C17.0107819,9.03073286 16.9785011,9.35494765 16.9785011,9.7311719 C16.9785011,10.0753124 16.9745883,10.4653833 17.0505622,10.7014522 C17.1353398,11.0972644 17.25142,11.1705505 17.2667452,11.5967579 C17.2667452,11.804458 17.2393555,12.0165485 17.3388062,12.1192165 C17.6492229,12.1995947 17.6502011,12.0206011 17.6991113,11.5967579 C17.7030241,11.1155015 17.827256,10.787234 17.8429072,10.3282675 C17.8429072,9.76190476 17.9237721,10.3971631 17.9870293,10.6268153 C18.1324555,10.9591354 18.177779,11.2546437 18.2032123,11.5967579 C18.2032123,11.804458 18.1761487,12.0165485 18.2752733,12.1192165 C18.5537353,12.0050659 18.6639463,11.6828774 18.8517614,11.5221209 C18.9952313,11.1685241 19.1435922,11.0124958 19.2841275,10.7760892 C19.6574753,10.6987504 19.6392155,10.5467747 19.6444325,10.1043566 C19.6444325,9.74738264 19.6160646,9.37149612 19.7164936,9.05943938 C19.8319216,8.73522459 19.9408283,8.37419791 20.0047376,8.08949679 C20.1394037,8.00979399 20.28483,8.20702465 20.3647166,8.38804458 C20.5225335,8.62850388 20.5088386,8.97939885 20.5088386,9.35798717 C20.5782911,9.68828099 20.71687,9.94630193 20.8691437,10.2536305 C21.0497853,10.5984465 21.1965159,10.8074975 21.3735708,11 C21.4495446,11.2360689 21.4456318,11.6261398 21.4456318,11.9699426 C21.7263763,11.6541709 21.7801775,11.183384 21.8059369,10.7014522 C21.768113,10.3735225 21.7612656,9.96521445 21.6618148,9.65653495 C21.6504025,9.32792975 21.5910581,8.98851739 21.5176928,8.76122931 C21.2744461,8.64539007 21.2359701,8.54272205 21.4456318,8.23877069 C21.6774661,8.04018913 21.9278863,8.11685241 22.310364,8.16413374 C22.5037222,8.36440392 22.5832828,8.47146234 22.598608,8.91016548 C22.598608,9.30766633 22.6155635,9.61330632 22.74273,9.8804458 C22.8835914,10.0952381 23.0234745,10.2428234 23.102709,10.6268153 C23.2132461,10.7203647 23.2986759,10.871665 23.4630141,10.7014522 C23.5533349,10.482945 23.606484,10.0320838 23.6791971,9.80580885 C23.7496278,9.52245863 23.8764682,9.38331645 24.0395022,9.28335022 C24.0395022,9.69875042 24.0346112,9.95339412 24.1836242,10.2536305 C24.3248116,10.5869639 24.422632,10.7122594 24.5439293,11.0746369 C24.6975073,11.1806822 24.7170714,11.4093212 24.9042344,11.5221209 C24.9482535,11.1715637 24.9762954,10.7703479 24.9762954,10.3282675 L24.9762954,9.28335022 C25.0027069,8.92772712 25.089767,8.72779466 25.1924784,8.46268153 C25.4246388,8.74907126 25.4086614,8.86761229 25.4086614,9.28335022 C25.6457128,9.19587977 25.6854931,9.02735562 25.7686404,8.76122931 C25.9378697,8.61364404 25.9841713,8.5447484 26.0568845,8.91016548 C26.107425,9.30057413 26.2036151,9.65214455 26.2730675,10.0297197 C26.4214284,10.2019588 26.5926141,10.6190476 26.7774946,10.7760892 C26.904335,10.9895306 27.0468267,11.1958798 27.2098607,11.3731847 C27.3220281,11.6187099 27.350722,11.7470449 27.6422268,11.8206687 C27.6422268,11.3157717 27.6591823,10.8091861 27.5701658,10.3282675 C27.5701658,9.89935832 27.4756061,9.74636947 27.4260437,9.35798717 C27.3060507,9.10064168 27.235294,8.72137791 27.2819217,8.61195542 C27.619402,8.94360014 27.7720018,9.13610267 27.9304708,9.50726106 C28.099374,9.86592367 28.2418657,10.1070584 28.3625108,10.4775414 C28.5291316,10.6190476 28.824223,11.0439041 28.9389989,11.2239108 C29.1962665,11.4515366 29.3214766,11.6886187 29.5875481,11.8953056 C29.7251487,12.0236407 30.0160013,12.0952381 30.0919751,12.0445795 C30.0786064,11.6068896 30.0114364,11.2313408 29.8757921,10.8507261 C29.8709011,10.4329618 29.774385,10.2060115 29.6596091,9.95508274 C29.376256,9.71293482 29.1613773,9.54778791 29.01106,9.20871327 C28.8995447,9.11415062 28.8776982,9.04356636 28.8669379,8.83586626 C29.2810442,9.17527862 29.5702665,9.47787909 29.8757921,9.8804458 C30.0821931,10.1455589 30.187187,10.2657886 30.4522802,10.4029044 C30.5957501,10.56231 31.0140953,10.7608916 31.3166863,10.8507261 C31.4983061,11.0891591 31.7409007,11.2262749 32.0372964,11.2985478 L31.3166863,10.8507261 C31.4983061,11.0891591 31.7409007,11.2262749 32.0372964,11.2985478 L32.0372964,11.3731847 C32.0011029,10.9064505 31.8279608,10.5653495 31.6049303,10.1789936 C31.4171152,9.77068558 31.2452774,9.61938534 30.9563812,9.35798717 C30.767914,9.06247889 30.556948,8.88821344 30.2360972,8.68659237 C30.0371957,8.45491388 29.7394957,8.07024654 29.5875481,7.9402229 C29.894704,7.74907126 30.2556612,8.06957109 30.5964022,8.23877069 C30.8774728,8.54069571 31.1402835,8.93414387 31.3166863,9.13407633 C31.5087403,9.5177305 31.6557969,9.75481256 31.9652354,10.1043566 C32.2756521,10.2867275 32.491183,10.4670719 32.7579066,10.7014522 C33.1707086,10.8145897 33.0060443,10.6649781 32.9020286,10.3282675 C32.7595369,9.90712597 32.8863773,9.9003715 33.1902726,10.1789936 C33.3908044,10.3204998 33.6141609,10.556231 33.9105567,10.7014522 C34.0387014,10.8659237 34.2320597,10.9571091 34.4149838,10.8507261 C34.4912837,10.7453563 34.4870448,10.7571766 34.4870448,10.6268153 C34.3354232,10.163796 34.1945619,9.80310706 33.8384957,9.65653495 C33.6754617,9.45052347 33.4100424,9.20533604 33.1902726,8.98480243 C33.0468027,8.76629517 32.8795299,8.64032421 32.7579066,8.38804458 L33.1902726,8.98480243 C33.0468027,8.76629517 32.8795299,8.64032421 32.7579066,8.38804458 L32.6858455,8.38804458 C33.1208202,8.4039176 33.2757024,8.51334009 33.6223126,8.68659237 C33.8691461,8.77575144 34.1358696,9.00911854 34.2708618,9.20871327 C34.411397,9.39344816 34.6363839,9.59202972 34.7752888,9.80580885 C34.996689,9.97467072 35.2412399,10.1668355 35.495899,10.3282675 C35.7355589,10.6396488 35.7785999,10.842283 35.784143,11.2985478 C35.9223958,11.5096251 35.947177,11.9412361 36,12.1938534 C35.947177,12.6041878 35.8053374,12.2819993 35.784143,12.0445795 C35.7231683,11.7149612 35.5963279,11.7321851 35.351777,11.8206687 C35.351777,12.2715299 35.4019914,12.3947991 35.56796,12.7163121 C35.5229626,13.0243161 35.4195991,13.2495778 35.2797159,13.4626815 C35.1114649,13.5619723 35.0752713,13.2431611 34.9194109,13.0894968 C34.9027814,12.6278284 34.7717021,12.5771699 34.4870448,12.3431273 C34.4870448,12.1688619 34.4870448,12.5741304 34.4870448,12.6416751 C34.6477963,12.9601486 34.8173516,13.250591 34.8473499,13.6865924 C34.958539,14.0192503 34.9914719,14.2293144 34.9914719,14.656535 C34.9914719,15.021952 34.9973411,15.3779129 34.9194109,15.7014522 C34.9194109,16.106383 34.8519148,16.279973 34.8473499,16.6717325 L34.8473499,17.7163121 L34.8473499,18.7612293 C34.7919183,19.0253293 34.7752888,19.3694698 34.7752888,19.7311719 L34.8473499,18.7612293 C34.7919183,19.0253293 34.7752888,19.3694698 34.7752888,19.7311719 L34.7752888,19.8058088 C34.6383403,19.4309355 34.4893273,19.0915231 34.4149838,18.6865924 C34.1815191,18.4576157 34.0331582,18.2215468 33.9105567,17.9402229 C33.8554512,17.6200608 33.820888,17.2289767 33.7664347,16.9699426 C33.6650275,16.7071935 33.5574251,16.4265451 33.3340686,16.5970956 C33.2457042,17.1533266 33.3572194,17.4846336 33.5502516,18.0148598 C33.6633972,18.3664303 33.6510066,18.6426883 33.7664347,18.9851402 C33.9333814,19.3796015 34.0677214,19.4363391 33.7664347,19.8804458 C33.6177477,20.1171901 33.5381871,20.1921648 33.4781906,20.4775414 C33.2117931,20.6156704 33.1449492,20.6771361 33.1182116,21 C33.0285429,20.7095576 32.8107296,20.3694698 32.6858455,20.0297197 C32.5567226,19.672408 32.3972754,19.3053023 32.3255405,18.9851402 C32.1507681,18.7352246 31.9456713,18.3309693 31.7490524,18.1641337 C31.5680847,17.922999 31.3082085,17.5211077 31.1725643,17.2684904 C30.8967108,16.9500169 30.8357361,16.7656197 30.5964022,16.5970956 C30.5347754,16.4481594 30.4614101,16.2620736 30.3081582,16.3731847 C30.3081582,16.7301587 30.2797903,17.1057075 30.3802192,17.4177643 C30.4529323,17.8578183 30.580751,18.1019926 30.5964022,18.5373185 L30.5964022,19.3583249 C30.4232602,18.9378588 30.2383796,18.5626478 30.0919751,18.1641337 C29.9344843,17.9412361 29.7805803,17.5072611 29.5875481,17.3431273 C29.4649465,17.0536981 29.3694086,16.8135765 29.227243,16.5970956 C29.1903973,16.3802769 29.0935551,16.382641 29.01106,16.2239108 C29.015951,16.6470787 29.145726,16.7953394 29.227243,17.1192165 C29.3677783,17.4035799 29.4127756,17.8801081 29.371365,18.0148598 C29.1897452,17.4917258 29.0254069,16.9199595 28.7948769,16.4478217 C28.5764114,16.1411685 28.363163,15.7470449 28.2183888,15.4775414 C28.0041622,15.2212091 27.7837403,15.212766 27.5701658,15.0297197 C27.3755032,14.9341439 27.1893184,14.8274232 27.0657387,14.656535 C27.1224745,15.0499831 27.2705093,15.295846 27.3539827,15.6268153 C27.4012626,16.0020263 27.5678833,16.3026005 27.6422268,16.5970956 C27.5620141,17.1077339 27.4456078,16.4555893 27.3539827,16.2239108 C27.2780089,15.8037825 27.1374736,15.5704154 26.9936777,15.3282675 C26.8006454,15.1921648 26.6248948,14.9506923 26.4171896,14.8058088 C26.2150274,14.7254306 26.2730675,14.820331 26.2730675,15.1043566 C26.2730675,15.566025 26.2900231,15.8709895 26.4171896,16.1492739 C26.5609855,16.3681189 26.5613116,16.6534954 26.5613116,17.0445795 C26.5485949,17.412023 26.4892506,17.7068558 26.4892506,18.0894968 L26.4892506,18.6865924 C26.3239341,18.369132 26.1667694,18.1891253 26.0568845,17.790949 C25.8067904,17.4522121 25.732773,17.2033097 25.5524574,16.8210064 C25.3926841,16.7544748 25.1324819,16.6994259 24.9762954,16.8210064 C25.0043372,17.1985816 25.1729143,17.3647416 25.1924784,17.790949 C24.9052126,18.0824046 24.9570574,18.1654846 24.7601123,17.7163121 C24.5957741,17.3762242 24.4043722,17.3920973 24.1836242,17.1938534 C23.8220149,17.1472476 23.9367908,16.9179331 23.8233192,16.5970956 C23.8233192,16.3096927 23.8520131,16.019588 23.7512581,15.7760892 C23.3563899,15.7760892 23.1297727,15.7619048 22.8868521,16 C22.7724022,16.2364066 22.8128346,16.6632894 22.8868521,16.9699426 L22.8868521,18.0148598 C22.8046829,18.276258 22.641975,18.2904424 22.598608,18.6119554 C22.459377,18.9304289 22.4134014,19.2819993 22.310364,19.5075988 C22.0537485,19.7369132 22.1652637,19.7659574 22.0221199,19.3583249 L22.0221199,18.0148598 L22.0221199,16.9699426 C22.0221199,16.5643364 22.0811382,16.366768 22.0941809,16 C21.9448418,15.6906451 21.9040833,15.6325566 21.4456318,15.6268153 C21.3341166,15.8196555 21.3765054,16.1776427 21.4456318,16.3731847 C21.4456318,16.7348869 21.4622613,17.0793651 21.5176928,17.3431273 C21.5176928,17.739615 21.5649727,17.9797366 21.5897538,18.3134076 C21.576059,18.7088821 21.5017155,19.0243161 21.3015098,19.209051 C21.0416336,19.276258 21.2731419,19.440054 21.0132657,19.5075988 C20.7527374,19.3782506 20.4465597,19.2022965 20.2209207,18.9851402 C19.9408283,18.8966565 19.6767133,18.8358663 19.2841275,18.8358663 C18.806438,18.8297872 18.7982863,18.7723742 18.6355784,18.3880446 C18.4894999,17.9770348 18.4206996,17.6193853 18.3473343,17.1938534 C18.1888653,16.8446471 18.1516936,16.6065518 18.0590903,16.2239108 C17.9381191,15.9959473 17.8089962,15.8237082 17.6270503,15.7014522 C17.5227085,16.0786896 17.4245621,16.3944613 17.4108672,16.8210064 C17.3264156,16.9956096 17.308808,17.4403918 17.2667452,17.6416751 C17.121971,17.4208038 17.0652352,16.9864911 16.9785011,16.6717325 C16.8418787,16.2191827 16.7251464,15.9253631 16.257891,16.0746369 C15.773028,16.080716 15.7593331,16.0945626 15.7534639,16.5970956 C15.9621474,16.9209726 16.1851779,17.2353934 16.329952,17.4924012 L16.329952,18.5373185 C16.329952,18.9685917 16.3553853,19.0935495 16.041708,19.209051 C15.9223671,18.7612293 15.6690123,18.3336711 15.3931589,17.9402229 C15.355335,17.6359338 15.2607753,17.7163121 14.9611188,17.7163121 C14.7605871,17.7163121 14.5558164,17.688281 14.4566918,17.790949 C14.4566918,18.0509963 14.4782122,18.412023 14.4566918,18.4626815 C14.2828975,18.4944276 14.2127929,18.4609929 14.0963867,18.3134076 C13.9705245,18.530564 14.0654102,18.8365417 14.0963867,19.134414 C14.0047616,19.4663965 13.8955288,19.7696724 13.7360816,19.9550827 C13.704127,19.855792 13.632066,19.8804458 13.7360816,19.8804458 C13.2414366,19.6923337 12.85472,19.5761567 12.4393095,19.4329618 C12.1892154,19.4650456 12.0075955,19.6930091 11.8628214,19.8804458 C11.4966471,20.0023641 11.3345913,20.0992908 10.9260282,20.1043566 C10.5340945,20.1043566 10.3433448,20.1654846 9.98923502,20.1789936 C9.73457597,20.2364066 9.40198668,20.2536305 9.05276792,20.2536305 C8.85908357,20.1965552 8.52062506,20.1948666 8.40421881,20.1043566 C8.55290579,19.8844985 8.71854829,19.7733874 8.83658489,19.4329618 C9.03385598,19.2938197 9.2187365,19.1155015 9.41307299,18.9105032 C9.60317059,18.7764269 9.82587499,18.498818 9.98923502,18.3134076 C10.1017285,17.9540696 10.2562847,17.8919284 10.4936621,17.7163121 C10.9221154,17.7328605 11.0055888,17.8676123 11.4304553,17.9402229 C11.8452137,18.0959135 12.0747655,18.141844 12.2951874,17.865586 C12.6391891,17.7213779 12.931346,17.4961162 13.3037155,17.4177643 C13.5922857,17.2749071 13.7771662,17.1361027 14.0243257,16.9699426 C14.3308295,16.787234 14.476908,16.5994596 14.7449358,16.3731847 C14.8215618,16.0688956 15.038723,15.8338399 14.9611188,15.4775414 C14.5711416,15.376562 14.323656,15.4170888 14.0963867,15.6268153 C13.781079,15.8841608 13.7214086,15.9912192 13.3757766,16.2239108 C13.0774244,16.3080041 12.9499318,16.4380277 12.5831054,16.5224586 C12.2821447,16.6264775 11.9192311,16.5970956 11.5745773,16.5970956 C11.2595957,16.5970956 10.8415766,16.566025 10.6377841,16.6717325 C10.9583089,16.4579534 11.3433951,16.2357312 11.6466383,16.1492739 C11.9374909,15.9557582 12.0473758,15.8578183 12.4393095,15.8507261 C12.6212554,15.6149949 12.8087444,15.6092536 12.8713495,15.2536305 C12.9932989,14.8122256 12.6056041,14.9520432 12.2951874,15.1043566 C12.0023784,15.157717 11.6792451,15.363053 11.4304553,15.4775414 C11.1901432,15.5606214 10.8389681,15.6224249 10.4936621,15.6268153 C10.4026892,15.4924012 10.5647449,15.3850051 10.6377841,15.1789936 C10.9742862,15.0607903 11.0284135,15.0172239 11.0701502,14.656535 C10.6886507,14.7088821 10.5428984,14.8331645 10.2054181,14.8804458 C9.83761344,14.9756839 9.45611396,15.0178994 9.05276792,15.0297197 L8.04391374,15.0297197 C7.68980397,15.0162107 7.49905423,14.9550827 7.10744664,14.9550827 C6.82050686,14.8064843 6.81920259,14.7359 6.81920259,14.2833502 C7.04516767,14.0260047 7.26493746,14.0597771 7.68360868,14.0597771 C8.00608986,13.9027356 8.2568361,13.8193178 8.47627982,13.6865924 C8.73713417,13.630868 8.91516726,13.5204323 8.83658489,13.3880446 L7.82773071,13.3880446 C7.4393838,13.2252617 7.81012304,13.1506248 8.04391374,13.0148598 C8.39443677,13.0148598 8.75604611,13.035461 8.98070691,13.1641337 C9.41405119,13.1475853 9.56502065,13.0118203 9.91717401,12.7163121 C10.1933535,12.4910503 10.3286717,12.34718 10.6377841,12.1938534 C10.8598364,11.9510301 11.0694981,11.8172915 11.2142722,11.5967579 C11.510668,11.3174603 11.7069609,11.1624451 11.8628214,10.925363 C12.0535711,10.8213441 12.1699774,10.6869301 12.0790044,10.5521783 C11.6274003,10.6065518 11.4448023,10.7693347 11.1422112,11 C10.9664606,11.1732523 10.7959271,11.3286052 10.5657231,11.4478217 C10.2412855,11.6386356 10.0391234,11.7159743 9.62925603,11.7460317 C9.25949499,11.7460317 8.97516376,11.684566 8.62040185,11.6713948 C8.22912033,11.630868 8.58942539,11.5406957 8.69246286,11.3731847 C8.84375838,11.2684904 8.96179497,11.0361364 8.83658489,10.8507261 C8.53529812,10.7467072 8.17271058,10.7760892 7.82773071,10.7760892 L6.81920259,10.7760892 C6.43835525,10.761567 6.27727769,10.6751098 6.02653145,10.5521783 C5.94892728,10.3427896 6.04055237,10.4029044 6.3147755,10.4029044 C6.66203785,10.3893955 6.90821914,10.3424519 7.25156867,10.2536305 C7.59035325,10.1580547 7.63274208,10.0462681 7.68360868,9.65653495 C7.35134546,9.65653495 6.97506306,9.66058764 6.74714158,9.58189801 L6.09859246,9.58189801 L6.09859246,9.58189801 L6.09859246,9.58189801 L6.09859246,9.58189801 Z M6.09859246,9.58189801" fill="#FEFEFE" id="path1022"/><path d="M0.20055834,7.23108758 C0.138305031,6.73046922 0.0189327073,6.47279801 0,5.98506322 C0,5.61910874 0.00962680031,5.81328241 0.401116679,5.31389106 C0.440907454,5.31389106 0.73420397,5.05928736 1.0027917,4.8347453 C1.37791602,4.66296449 1.72480172,4.42155111 2.10602301,4.25958634 C2.39001362,4.10927814 2.95125608,3.99271259 3.20893344,3.87614704 C3.54683413,3.71448903 3.82248151,3.5282909 4.11160641,3.20497488 C4.14626289,2.77613636 4.21204603,2.46815791 4.21204603,1.95895051 C4.61091645,1.78348869 4.96486181,1.61324164 5.31495645,1.479498 C5.81683364,1.35035565 5.92561648,1.16691828 6.41818777,1.0960587 C6.73523039,0.994830723 7.25924922,1.0000455 7.72165653,1.0000455 C8.22064568,1.0000455 8.53544205,1.32428177 8.98373005,1.40096964 C9.51512942,1.59698381 9.76317998,1.73256795 10.1870801,2.07214179 C10.4264665,2.34913835 10.575361,2.57429391 10.9835374,2.78288489 C11.306677,2.9344201 11.6092794,3.16387018 11.9863291,3.26203065 C11.989538,3.60804628 12.0700822,3.54822974 11.79989,3.54822974 C11.7713305,3.90283441 11.6785923,3.88074831 11.303468,3.88719009 C11.0159476,3.74424392 10.8108967,3.55191076 10.6652112,3.34485354 C10.807046,2.99270288 10.7130243,3.62982563 10.6652112,3.75160595 C10.4829437,3.88872385 10.3744818,4.03473753 10.1687892,3.88719009 C10.0535885,3.55651203 9.95635777,3.32798221 9.95635777,2.93840787 C9.90244769,2.51478413 9.77280678,2.82214908 9.67268806,3.00619994 C9.57674095,3.34792105 9.62038244,3.47154188 9.74360548,3.75160595 C9.38195869,3.75160595 9.10470684,3.7203173 8.82167891,3.68381388 C8.55854637,3.62399735 8.2630036,3.6976177 7.97066976,3.81939802 C7.59939616,4.03259027 7.71491777,4.03412403 7.89975233,4.2939425 C8.22738444,4.38228692 8.46292015,4.54823945 8.75076148,4.70069492 C9.07807269,4.64118514 9.4198241,4.57462008 9.74360548,4.49731871 C10.0815062,4.38964895 10.3908474,4.45805453 10.7361286,4.49731871 C10.9074856,4.57922135 11.1327528,4.59578593 11.2325506,4.70069492 C11.2325506,4.91020616 11.2508415,5.12922669 11.1616332,5.24303147 C11.0140222,5.33260289 10.8741127,5.58076481 10.6652112,5.64947714 C10.3526611,5.81328241 10.0247081,5.91635089 9.67268806,5.98843748 C9.23819847,6.0034683 9.07935626,6.09058571 8.75076148,6.25960576 C8.6968514,6.60224712 8.58742677,6.69887383 8.25433948,6.80194231 C7.92285665,6.93415218 7.65940322,7.00531852 7.26181637,7.00531852 C7.06446696,7.00531852 6.86294594,7.03077889 6.76539436,6.93752645 C7.08115341,6.6080754 7.17613784,6.45285917 7.33273379,6.12402162 C7.39402442,5.98690372 7.52238176,5.89886606 7.40365122,5.78506127 C6.98360184,5.80009209 6.87385631,5.79763808 6.83631179,6.19181369 C6.78881958,6.54887237 6.63864149,6.6086889 6.33988979,6.73415024 C6.42043402,6.40347219 6.43391154,6.14948199 6.55264208,5.85285334 C6.30170348,5.90500109 5.97471316,5.92064541 5.6307155,5.92064541 C5.41603785,6.0451865 5.32650861,6.09365323 5.41796321,6.32739783 C5.13300992,6.41819625 4.78612422,6.36236749 4.4254401,6.32739783 C4.12412125,6.31236701 4.290344,6.18751917 4.07085296,6.05622955 C3.92709274,5.79825159 3.76183267,5.73536754 3.4325961,5.7172692 C3.26926138,5.90408083 2.96665896,5.9813822 2.79433924,6.12402162 C2.48371448,6.22310234 2.28604418,6.14089295 2.01456841,5.98843748 C1.66030216,5.99856028 1.70779437,6.10285577 1.80181612,6.32739783 C1.93691222,6.41359498 1.7934729,6.50746092 2.01456841,6.53077403 C2.21833568,6.69979408 2.39258077,6.73415024 2.79433924,6.73415024 C3.10175506,6.66083665 3.44029754,6.66635817 3.78718324,6.66635817 C4.13727788,6.67617422 4.07085296,6.75194183 4.07085296,7.07311059 C3.842056,7.22127154 3.50864782,7.20869473 3.14892638,7.20869473 C2.80685408,7.16973729 2.54436332,7.08875491 2.29823813,7.00531852 C1.96611352,6.98261891 1.70041383,6.92464289 1.44722898,7.00531852 C1.33299095,7.12096381 0.988993285,7.1715778 1.37631155,7.20869473 C1.52873589,7.33998434 2.34926017,7.2764868 2.40766276,7.49980185 C2.60116144,7.69642952 2.55816174,7.95440749 2.2273207,7.95440749 C2.02644146,7.85839428 1.87144998,7.88201415 1.7308987,7.95440749 C1.49472119,8.01084975 1.21426041,7.96974506 0.802233359,7.99796619 L0.802233359,7.99796619 C1.3403715,8.03845738 0.411385266,7.46360518 0.20055834,7.23108758 C0.20055834,7.23108758 0.411385266,7.46360518 0.20055834,7.23108758 L0.20055834,7.23108758 L0.20055834,7.23108758 L0.20055834,7.23108758 L0.20055834,7.23108758 Z M0.20055834,7.23108758" fill="#FEFEFE" id="path1023"/><path d="M2.8338223,5 C2.8074805,5 2.56932176,5.13242836 2.35533974,5.26666667 C2.00495772,5.41659125 1.63075982,5.67179487 1.39837462,5.8 C1.21542541,5.91704374 1.21650795,5.96802413 1,6 C1.37997145,5.95686275 1.54920849,5.87963801 1.87685718,5.73333333 C2.29110905,5.69351433 2.69237045,5.62322775 2.9135694,5.46666667 C3.12105618,5.40874811 2.89805299,5.14298643 2.8338223,5 C2.8338223,5 2.89805299,5.14298643 2.8338223,5 L2.8338223,5 L2.8338223,5 L2.8338223,5 L2.8338223,5 Z M2.8338223,5" fill="#BCBCBC" id="path1025"/><path d="M6,2.11111111 C6.05226337,2.11111111 6.15884774,2.28481649 6.36337449,2.38888889 C6.49423868,2.60206134 6.61481481,2.75263952 6.63621399,3 C6.74773663,2.72850679 6.9382716,2.51030669 7,2.22222222 C6.85843621,2.07591755 6.84897119,2.0072901 6.45432099,2 C6.45432099,2.15007541 6.48436214,2.0520362 6,2.11111111 C6,2.11111111 6.48436214,2.0520362 6,2.11111111 L6,2.11111111 L6,2.11111111 L6,2.11111111 L6,2.11111111 Z M6,2.11111111" fill="#BCBCBC" id="path1026"/><path d="M4.03998993,4.6469275 C3.85390949,4.6469275 4.36807912,4.51594465 4.539469,4.47042012 C4.6765809,4.26622531 4.78544173,4.12166497 5.03894807,4 C5.455934,4.02262915 5.66047181,4.10755502 5.8714132,4.29391274 C6.22172657,4.36153397 6.34791473,4.47947178 6.78712483,4.52925591 C6.95022773,4.62669438 7.17096282,4.63787584 6.78712483,4.70576329 C6.52608486,4.80320176 6.19799567,4.82343488 5.78816668,4.82343488 C5.35875029,4.84526535 5.05213191,4.91208791 4.78920854,4.99994226 C4.23209726,4.99994226 4.32137067,5.0129873 4.03998993,4.6469275 C4.03998993,4.6469275 4.32137067,5.0129873 4.03998993,4.6469275 L4.03998993,4.6469275 L4.03998993,4.6469275 L4.03998993,4.6469275 L4.03998993,4.6469275 Z M4.03998993,4.6469275" fill="#C4C4C2" id="path1024"/><path d="M7.00007977,2.01983745 L7.00007977,2.07749407 C7.00007977,1.92200382 6.99304162,2.00131428 7.11118202,2.30812055 C7.29467668,2.50143981 7.33338652,2.70884711 7.33338652,3 C7.62496707,2.89199167 7.86828602,2.67649679 8,2.48109042 C8,2.02583792 7.8758269,2.05270955 7.00007977,2.01983745 C7.00007977,2.01983745 7.8758269,2.05270955 7.00007977,2.01983745 L7.00007977,2.01983745 L7.00007977,2.01983745 L7.00007977,2.01983745 L7.00007977,2.01983745 Z M7.00007977,2.01983745" fill="#BCBCBC" id="path1027"/><path d="M10.0366072,10.6882341 L10.118934,10.6882341 C9.87679636,10.6882341 10.0131385,10.7036398 10.4482413,10.419445 C10.7298661,10.2151166 10.9604556,9.91308362 11.3538362,9.79227043 C11.7349237,9.46672346 12.0280966,9.31428802 12.4237123,9.16550129 C12.6166774,9.0690129 12.7869188,8.90157716 13,9.07590493 C12.9389068,9.51780555 12.8685006,9.68483587 12.5060391,9.88186679 C12.3186618,10.1372772 12.0236263,10.2864694 11.7654703,10.419445 C11.4976288,10.5475556 11.2029658,10.5540422 11.1068558,10.8674268 C10.6590873,11.0818905 10.6039545,11.0458087 10.0366072,10.6882341 C10.0366072,10.6882341 10.6039545,11.0458087 10.0366072,10.6882341 L10.0366072,10.6882341 L10.0366072,10.6882341 L10.0366072,10.6882341 L10.0366072,10.6882341 Z M10.0366072,10.6882341" fill="#BCBCBC" id="path1028"/><path d="M11,12.7583369 C11.1371707,12.6676002 11.6190089,12.2474098 11.8460021,12.0857278 C12.1029361,11.7894631 12.3626552,11.5629257 12.6154114,11.4128142 C12.8396194,11.1241616 13.1268423,10.9308131 13.3078798,10.6726091 C13.5216433,10.4463762 13.6790066,10.2548546 13.9234072,10 C13.9234072,10.2941333 13.8913775,10.6841796 14,10.8744833 C14,11.2809718 13.9463851,11.3921091 13.7695254,11.6819796 C13.5947546,11.9200875 13.4645468,12.0778112 13.077057,12.2203105 C12.7275154,12.382297 12.5179297,12.4392358 12.2307067,12.6237542 C12.011721,12.7415902 11.7836834,12.8588173 11.5382384,12.960211 C11.3182082,13.0427267 11.4191714,13.0067974 11,12.7583369 C11,12.7583369 11.4191714,13.0067974 11,12.7583369 L11,12.7583369 L11,12.7583369 L11,12.7583369 L11,12.7583369 Z M11,12.7583369" fill="#BCBCBC" id="path1029"/><path d="M9.03428497,13.8801904 L9.11121665,13.8801904 C8.88494702,13.8801904 9.01200612,13.8903169 9.41894335,13.7035086 C9.74720838,13.4522102 10.0086368,13.364802 10.4190551,13.2323573 C10.7313072,13.2139696 11.1090035,13.1545427 11.3422352,13.0556756 C11.5281244,13.0306257 11.6576203,12.944017 11.8034772,13.0556756 C12.0450635,13.3056416 12.111552,13.376261 11.7265455,13.5268269 C11.5423968,13.6464801 11.2176129,13.7669329 10.9575769,13.8212965 C10.7654217,13.9425486 10.3852887,13.9500103 10.0343968,13.9979782 C9.72005602,13.9979782 9.54530624,14.02516 9.41894335,13.8801904 L10.0343968,13.9979782 C9.72005602,13.9979782 9.54530624,14.02516 9.03428497,13.8801904 C9.03428497,13.8801904 9.54530624,14.02516 9.03428497,13.8801904 L9.03428497,13.8801904 L9.03428497,13.8801904 L9.03428497,13.8801904 L9.03428497,13.8801904 Z M9.03428497,13.8801904" fill="#BCBCBC" id="path1030"/><path d="M12.000109,14.6666667 L12.000109,14.5833333 C12.000109,14.8159879 11.9898864,14.6926848 12.1674556,14.25 C12.4809465,13.7839367 12.5990735,13.5267722 13.0041886,13.4166667 C13.1938733,13.1881599 13.5225087,13.1289593 13.9245949,13 C14.0752825,13.2503771 13.9594272,13.5422323 13.9245949,13.8333333 C13.815176,14.1444193 13.5168295,14.3638763 13.3388818,14.5833333 C13.078018,14.7598039 12.9716279,14.9294872 12.5858221,15 C12.266652,15 12.4358916,14.9920814 12.000109,14.6666667 C12.000109,14.6666667 12.4358916,14.9920814 12.000109,14.6666667 L12.000109,14.6666667 L12.000109,14.6666667 L12.000109,14.6666667 L12.000109,14.6666667 Z M12.000109,14.6666667" fill="#BCBCBC" id="path1031"/></g><g fill="#005120" fill-opacity="0.996081" id="g1003" stroke="#002B0D" stroke-width="0.1" transform="translate(14.000000, 27.000000)"><path d="M0.152606266,1.00048173 L0.443039544,1.00048173 C-0.467357077,1.00048173 0.0767125021,0.941618545 1.60444411,2.12524577 C2.24444867,1.60884067 2.23689214,1.53915939 2.76617722,2.40651633 C3.07172355,2.9003307 3.16141618,2.35624399 3.63714851,1.8442934 C3.86647253,2.86596733 4.01333189,3.93727724 4.79888162,2.96905744 C5.69613647,2.96905744 6.635445,2.89683073 7.1220193,3.250328 C7.71011384,4.30827438 7.5175868,3.07087484 7.99331914,3.53159855 C9.27201407,3.68018832 9.24770178,2.46951584 10.6404016,2.15642735 C11.5061162,3.20419199 11.8852565,2.39792549 12.9638679,1.87547497 C13.7648592,2.0924733 14.5198543,3.26941876 14.6722989,2.12524577 C15.3280736,1.08925377 15.3852403,1.17738945 15.834032,2.12524577 C16.4717368,2.6814233 16.7404861,1.84715701 17.2858699,1.56302284 C18.2580328,2.11379132 19.3422295,2.19015436 20.7707406,1.8442934 C21.0125493,2.78101344 21.6223278,2.37469839 22.2225785,2.12524577 C23.5071872,2.64801446 23.9553218,2.80805868 25.417016,2.12524577 C26.1411279,1.29670671 25.7311045,2.14847287 26.2879873,2.68778688 C27.3708697,2.3622894 27.0718943,2.29324448 28.3210202,2.40651633 C29.5763885,2.40651633 29.6779087,2.37724383 30.0632914,1.56302284 C30.6940967,2.17392721 30.9221065,2.61428745 31.8055625,1.8442934 C33.1591655,1.8827931 32.7405999,2.00974666 33.5481622,1.56302284 C34.1454559,2.84401295 34.2857444,1.91842919 35,2.40651633 C34.5295244,3.56182559 33.8067266,4.10368505 32.9672956,4.6563626 C32.4087701,5.55235568 32.0595273,6.51993912 30.9345912,6.90652705 C30.1138872,7.71724807 29.2393019,8.18719898 28.3210202,8.87510276 C27.062038,9.17991859 25.6762376,9.15637332 24.2552829,9.15637332 L20.1898741,9.15637332 L16.1241367,9.15637332 L12.0587279,9.15637332 C11.1913706,9.5760519 9.77271578,9.77618672 8.57385715,9.99986681 C7.23503859,9.99986681 5.71749186,10.0151394 4.79888162,9.71859625 C4.17628993,9.11596454 3.08420823,8.44237883 2.47574395,7.75002054 C1.86005168,7.26925152 1.84231028,6.33094058 1.31401083,5.78144482 C0.828093618,4.97676922 0.677948813,3.71773348 0.152606266,2.96905744 L0.152606266,1.00048173 C0.152606266,1.00048173 0.152606266,1.65656757 0.152606266,1.00048173 L0.152606266,1.00048173 L0.152606266,1.00048173 L0.152606266,1.00048173 L0.152606266,1.00048173 Z M0.152606266,1.00048173" id="path993"/><path d="M27.999733,3.10436823 L27.999733,3.37521654 C27.999733,2.61812811 28.0243871,3.02041751 27.5998398,4.45830338 C27.5138899,4.8075874 27.3257049,4.88969978 27,5" id="path994"/><path d="M25.7142857,5 L26,5 C24.9421461,5.77712131 24.2301228,6.13513514 24,7 L26,5 C24.9421461,5.77712131 24.2301228,6.13513514 24,7" id="path995"/><path d="M21.2894069,3 C21.2894069,3.01787735 21.2488114,3.71350984 21,4" id="path996"/><path d="M20,5 L20,5.27211718 L20,5 C20,5.09080833 20,5.18130884 20,5 C20,5 20,5.18130884 20,5 L20,5 L20,5 L20,5 L20,5 Z M20,5" id="path997"/><path d="M18,4 L18.2894069,4 L18,4 L18,4 L18,4 L18,4 Z M18,4" id="path998"/><path d="M2,4 C2.09549672,4 2.48902467,4.9070632 3,5.42847907 C2.87282191,6.26442541 2.67730256,7.23161468 3,8" id="path999"/><path d="M4,4.66649906 C4.13020673,4.66649906 4.66676952,5.37221873 5.36377661,5.77774984 L4,4.66649906 C4.13020673,4.66649906 4.66676952,5.37221873 5.36377661,5.77774984 L5.36377661,6 C5.36377661,5.31338781 5.2937365,4.59434318 5.63622339,4.22199874 C5.93952484,4.64010057 6.32243135,5.31238215 6.45448936,4.66649906 C7.99043505,4.62174733 8.73187288,4.27027027 9.72724468,4 C9.72724468,4.32683847 9.66275841,4.16970459 10,4.4442489" id="path1000"/><path d="M29.8,4 L30,4 C29.6228507,4.44900598 29.3334842,5.36479716 29,6" id="path1001"/><path d="M18,3 L20,3" id="path1002"/></g><path d="M5,35.3334379 C8.41026207,35.3334379 9.54690915,32 12.9571712,32 C16.3674333,32 17.5040804,35.3334379 20.9143424,35.3334379 C24.3246045,35.3334379 25.4612516,32 28.8715136,32 C32.2817757,32 34.2409921,35.0461915 37.2399695,35.1898147 C40.2389469,35.3334379 42.5125619,32 45.922824,32 C49.333086,32 51.9332906,35.410894 52.9066429,35.3720092 L53,35.6454577 C53,35.6454577 52.7433481,39.7779172 52.7433481,42 C50.9307441,41.9347737 48.196439,38.6668757 45.922824,38.6668757 C42.9607403,38.6668757 41.3759148,42 37.9656528,42 C35.3272713,42 31.1451286,38.6668757 28.8715136,38.6668757 C26.5430393,38.6668757 23.1879574,42 20.9143424,42 C18.6410483,42 15.2307862,38.6668757 12.9571712,38.6668757 C10.683877,38.6668757 5.60281114,41.7914641 5,42 L5,35.3334379 L5,35.3334379 L5,35.3334379 L5,35.3334379 Z M5,35.3334379" fill="#FFFFFF" id="path692" stroke="#000000" stroke-width="0.1"/><path d="M7,49.6400714 C7.18651853,49.5469541 9.98429655,55.1285319 9.98429655,55.1285319 C9.98429655,55.1285319 11.0636684,54.4179508 13.3909839,53.9908957 C15.7186198,53.5635195 18.1497703,56.4366691 20.8802478,56.9202367 C23.6110458,57.4038044 26.9536374,53.9908957 29.2886444,53.9908957 C31.5598761,53.9908957 34.6524944,57.5743053 37.6483282,56.9202367 C40.6441619,56.2661681 41.8126269,52.5873936 44.6350817,52.7203266 C47.4575366,52.8529384 48.5933127,53.9908957 48.5933127,53.9908957 L52,49.4397087 C52,49.4397087 48.5904284,46.3469308 45.752911,46.1867049 C42.9153937,46.026479 41.779938,49.4397087 38.3732507,49.4397087 C33.8311078,49.4397087 32.6748211,46.026479 29.2886444,46.026479 C25.8819571,46.026479 24.7465014,49.4397087 21.3398141,49.4397087 C17.9331268,49.4397087 15.9221237,45.9738195 13.5210982,46.0001493 C11.1197522,46.026479 7.09325927,49.8269481 7,49.6400714 C7,49.6400714 7.09325927,49.8269481 7,49.6400714 L7,49.6400714 L7,49.6400714 L7,49.6400714 L7,49.6400714 Z M7,49.6400714" fill="#FFFFFF" id="path694" stroke="#000000" stroke-width="0.1"/><path d="M20,64.4300999 C24.6843379,64.4300999 25.9263997,61.1198724 29.3686758,61.002836 C32.810952,60.8857996 34.0533443,64.4300999 38.7376822,64.4300999 C40.7521491,64.1789391 30.5400082,69 29.3686758,69 C28.197674,69 20,64.7112451 20,64.4300999 C20,64.4300999 20,64.7112451 20,64.4300999 L20,64.4300999 L20,64.4300999 L20,64.4300999 L20,64.4300999 Z M20,64.4300999" fill="#FFFFFF" id="path695" stroke="#000000" stroke-width="0.1"/><path d="M29.1868037,70 C29.1868037,70 3.85947921,63.1150355 4.00058744,36.9204967 L4.00058744,0.000323861165 L53.6261084,0 L53.9994038,36.7213221 C54.140512,62.9158609 29.1868037,70 29.1868037,70 L29.1868037,70 L29.1868037,70 L29.1868037,70 L29.1868037,70 Z M5.00061366,35.7760983 L5.18654997,1 L52.81281,1 L52.9993864,35.5763814 C53.1401987,61.8850069 28.99952,69 28.99952,69 C28.99952,69 4.8598013,62.0847237 5.00061366,35.7760983 C5.00061366,35.7760983 4.8598013,62.0847237 5.00061366,35.7760983 L5.00061366,35.7760983 L5.00061366,35.7760983 Z M5.00061366,35.7760983" fill="#FFFFFF" id="path700" stroke="#000000" stroke-width="0.1"/><g id="g867" stroke="#512007" stroke-width="0.1" transform="translate(8.000000, 34.000000)"><path d="M0,13.9585941 C0.586941889,13.7684697 3.4237155,12.912419 3.52165133,13.0073175 C3.61958717,13.1025434 9,18.1439493 9,18.1439493 L4.5,19 L0,13.9585941 L0,13.9585941 L0,13.9585941 L0,13.9585941 Z M0,13.9585941" id="path728"/><g id="g857" transform="translate(10.000000, 12.000000)"><path d="M0,9 C0.0667431193,7.65418127 2,0 2,0 L2,0" id="path858"/><path d="M1,9 C1,8.91586083 3,0 3,0" id="path859"/><path d="M1,9 C1.05217704,8.49651965 2,0 2,0" id="path860"/><path d="M0,8 C0.249956993,7.57149877 1,7 1,7" id="path861"/><path d="M1,6.30681818 C1.33325688,6.30681818 2,6 2,6" id="path862"/><path d="M1,5.30681818 C1,5.23004768 2,5 2,5" id="path863"/><path d="M1,4.26754545 L2,4" id="path864"/><path d="M2,3 C2,3.08928409 3,3.08928409 3,3.08928409" id="path865"/><path d="M2,2 C2.18173287,2 3,2.17826136 3,2.17826136" id="path866"/></g><g id="g808" transform="translate(23.500000, 20.000000) scale(-1, 1) translate(-23.500000, -20.000000) translate(22.000000, 14.000000)"><path d="M0,12 C0.100114679,10.205575 3,0 3,0 L3,0" id="path809"/><path d="M1,11 C1,10.8930862 3,0 3,0" id="path810"/><path d="M2,10 C2.05869257,9.3684363 3,0 3,0" id="path811"/><path d="M0,11 C0.499913986,10.5714988 2,10 2,10" id="path812"/><path d="M1,8.43364919 C1.33325688,8.43364919 2,8 2,8" id="path813"/><path d="M1,7.43364919 C1,7.32514367 2,7 2,7" id="path814"/><path d="M1,5.32514367 L2,5" id="path815"/><path d="M2,4 C2,4.10850552 3,4.10850552 3,4.10850552" id="path816"/><path d="M2,3 C2.18173287,3 3,3.21663816 3,3.21663816" id="path817"/></g><g id="g798" transform="translate(31.500000, 17.000000) scale(-1, 1) translate(-31.500000, -17.000000) translate(30.000000, 12.000000)"><path d="M0,10 C0.100114679,8.50464585 3,0 3,0 L3,0" id="path799"/><path d="M1,9 C1,8.91252505 3,0 3,0" id="path800"/><path d="M2,9 C2.05869257,8.43159267 3,0 3,0" id="path801"/><path d="M0,9 C0.499913986,8.57149877 2,8 2,8" id="path802"/><path d="M1,7.36462995 C1.33325688,7.36462995 2,7 2,7" id="path803"/><path d="M1,6.36462995 C1,6.27339408 2,6 2,6" id="path804"/><path d="M1,4.27339408 L2,4" id="path805"/><path d="M2,4 C2,4.09123587 3,4.09123587 3,4.09123587" id="path806"/><path d="M2,2 C2.18173287,2 3,2.18215821 3,2.18215821" id="path807"/></g><g id="g788" transform="translate(17.000000, 13.000000)"><path d="M0,12 C0.100114679,10.205575 3,0 3,0 L3,0" id="path779"/><path d="M1,11 C1,10.8930862 3,0 3,0" id="path780"/><path d="M2,10 C2.11738514,9.3684363 4,0 4,0" id="path781"/><path d="M0,11 C0.499913986,10.5714988 2,10 2,10" id="path782"/><path d="M1,8.32142857 C1.33325688,8.32142857 2,8 2,8" id="path783"/><path d="M1,7.32142857 C1,7.24100233 2,7 2,7" id="path784"/><path d="M1,5.28028571 L2,5" id="path785"/><path d="M2,4 C2,4.09353571 3,4.09353571 3,4.09353571" id="path786"/><path d="M2,3 C2.18173287,3 3,3.18675 3,3.18675" id="path787"/></g><g id="g837" transform="translate(26.000000, 13.000000)"><path d="M0,10 C0.100114679,8.50464585 3,0 3,0 L3,0" id="path819"/><path d="M1,10 C1,9.90651203 3,0 3,0" id="path820"/><path d="M2,10 C2.10435408,9.44057739 4,0 4,0" id="path821"/><path d="M0,9 C0.499913986,8.57149877 2,8 2,8" id="path822"/><path d="M1,7.36462995 C1.33325688,7.36462995 2,7 2,7" id="path823"/><path d="M1,6.36462995 C1,6.27339408 2,6 2,6" id="path824"/><path d="M1,4.27339408 L2,4" id="path825"/><path d="M2,4 C2,4.09123587 3,4.09123587 3,4.09123587" id="path826"/><path d="M2,2 C2.18173287,2 3,2.18215821 3,2.18215821" id="path827"/></g><g id="g847" transform="translate(15.500000, 19.000000) scale(-1, 1) translate(-15.500000, -19.000000) translate(14.000000, 14.000000)"><path d="M0,10 C0.100114679,8.50464585 3,0 3,0 L3,0" id="path848"/><path d="M1,9 C1,8.91252505 3,0 3,0" id="path849"/><path d="M2,9 C2.05869257,8.43159267 3,0 3,0" id="path850"/><path d="M0,9 C0.499913986,8.57149877 2,8 2,8" id="path851"/><path d="M1,7.36462995 C1.33325688,7.36462995 2,7 2,7" id="path852"/><path d="M1,6.36462995 C1,6.27339408 2,6 2,6" id="path853"/><path d="M1,4.27339408 L2,4" id="path854"/><path d="M2,4 C2,4.09123587 3,4.09123587 3,4.09123587" id="path855"/><path d="M2,2 C2.18173287,2 3,2.18215821 3,2.18215821" id="path856"/></g><g id="Group"><path d="M21.0058271,23.8903058 C21.0058271,23.7951883 21.2543703,0.0422744708 21.2543703,0.0422744708 C21.2543703,0.0422744708 22,-0.0528430885 22,0.0422744708 C22,0.13739203 21.9173423,23.7951883 21.8343995,23.8903058 C21.7514568,23.9854234 20.9228844,24.0802141 21.0058271,23.8903058 C21.0058271,23.8903058 20.9228844,24.0802141 21.0058271,23.8903058 L21.0058271,23.8903058 L21.0058271,23.8903058 L21.0058271,23.8903058 L21.0058271,23.8903058 Z M21.0058271,23.8903058" fill="#DD8B59" id="path723"/><path d="M30,1 C30,1.19199171 29.7776079,21.2326929 29.7776079,21.2326929 L29,22 L29.2223921,1 L30,1 L30,1 L30,1 L30,1 Z M30,1" fill="#DD8B59" id="path724"/><path d="M10.2701999,19.7677645 C10.2701999,19.7677645 11.216225,29.2708459 22.0947001,28.9940695 C32.9731753,28.717293 36,19.3989409 36,19.3989409 C36,19.3989409 31.3649,19.2142116 31.2701999,19.2142116 C31.1758252,19.2142116 27.4864249,23.6429523 22.7566248,23.5505876 C18.0268247,23.458223 16.5135751,22.3511172 15.4728498,21.4287406 C14.43245,20.5060467 13.4864249,19.1221644 13.4864249,19.1221644 L8,17 L8.28377499,19.0297998 L10.2701999,19.7677645 L10.2701999,19.7677645 L10.2701999,19.7677645 L10.2701999,19.7677645 Z M10.2701999,19.7677645" fill="#DD8B59" id="path719"/><path d="M39.810729,19 C39.7192376,18.6795885 39.4941246,17.5794599 39.4941246,17.5794599 L39.4941246,16.2978137 L40,15 C40,15 32.049047,16.3312511 32.049047,16.4381775 C32.049047,16.3150836 32,18.9680323 32,18.9680323 L39.810729,19 L39.810729,19 L39.810729,19 L39.810729,19 Z M39.810729,19" fill="#DD8B59" id="path712"/><path d="M38.1427869,17 L38,19 L39,19 L38.9287294,17 L38.1427869,17 L38.1427869,17 L38.1427869,17 L38.1427869,17 Z M38.1427869,17" id="path714"/><path d="M37.1001032,17 L37,19 L37.8998968,18.90929 L38,17 L37.1001032,17 L37.1001032,17 L37.1001032,17 L37.1001032,17 Z M37.1001032,17" id="path715"/><path d="M35,19 L35,17.3000172 L35.8998968,17 L36,18.6999828 L35,19 L35,19 L35,19 L35,19 Z M35,19" id="path716"/><path d="M34,18.7648249 L34.154009,17 L34.9229955,17.1173851 L35,19 L34,18.7648249 L34,18.7648249 L34,18.7648249 L34,18.7648249 Z M34,18.7648249" id="path717"/><path d="M32,17.9334862 L32.0909944,17.0667431 L33,17 L33,18 L32,17.9334862 L32,17.9334862 L32,17.9334862 L32,17.9334862 Z M32,17.9334862" id="path718"/><path d="M10,20 C10.2999862,20 12.6001101,20.4052999 12.6001101,20.4052999 L15,23" id="path720"/><path d="M12,19.7367254 C12.0930029,19.8289349 13.957551,26 22.9066764,26 C31.8558017,26 34,19 34,19" id="path721"/><path d="M35,20 C35,20 30.6535919,29.6411019 22.3384982,28.9661452 C14.0234045,28.2915201 12.700726,25.1097707 12.0392242,23.4709692 C11.3777224,21.8318359 11,20.4822541 11,20.4822541" id="path722"/><path d="M13.8574238,20 C14,19.4252306 14,2.0958498 14,2.0958498 L13.1425762,2 L13,19.71278 L13.8574238,20 L13.8574238,20 L13.8574238,20 L13.8574238,20 Z M13.8574238,20" fill="#DD8B59" id="path725"/><path d="M0,14 L7,17.5239187 L6.81589788,18 C6.81589788,18 0.091892626,14.7617955 0.091892626,14.6664482 C0.091892626,14.5714286 0.184102123,14.190367 0,14 C0,14 0.184102123,14.190367 0,14 L0,14 L0,14 L0,14 L0,14 Z M0,14" fill="#DD8B59" id="path726"/><path d="M3,13 C3,13.2793032 4.22224345,18.9585743 4.22224345,18.9585743 C4.22224345,18.9585743 5,19.0517821 5,18.9585743 C5,18.8656868 3.66653927,13.0932078 3.66653927,13.0932078 L3,13 L3,13 L3,13 L3,13 Z M3,13" fill="#DD8B59" id="path727"/><path d="M10,13.2220948 C10.3889818,13.2220948 17,12 17,12 L16.9026709,13.2220948 L10.3889818,14 L10,13.2220948 L10,13.2220948 L10,13.2220948 L10,13.2220948 Z M10,13.2220948" fill="#DD8B59" id="path730"/><path d="M11,5.30671667 C11.1764578,5.30671667 13.1187084,6.20192412 13.9132241,5.95782752 C14.7077397,5.71373093 14.1780626,5.14407891 14.3545204,5.14407891 C14.5312819,5.14407891 15.1490361,5.55081326 15.5022554,5.22525783 C15.8554747,4.89998232 16.1203132,3.92359596 15.9438554,4.00477487 C15.7670939,4.08623371 11.088077,5.6322721 11,5.30671667 C11,5.30671667 11.088077,5.6322721 11,5.30671667 L11,5.30671667 L11,5.30671667 L11,5.30671667 L11,5.30671667 Z M11,5.30671667" fill="#FECF3E" id="path746"/><path d="M10,8.24990785 C10.3903339,8.35716919 18,6 18,6 C18,6 18,6.75009215 17.9023326,6.75009215 C17.8050008,6.75009215 10,9 10,9 L10,8.24990785 L10,8.24990785 L10,8.24990785 L10,8.24990785 Z M10,8.24990785" fill="#DD8B59" id="path731"/><path d="M27,4.74264638 C27,4.74264638 27.508688,5.9728327 28.0170262,5.76791921 C28.5253644,5.56300572 29.0340525,5.15282605 29.0340525,5.15282605 C29.0340525,5.15282605 29.4409329,6.17809888 30.1525364,5.9728327 C30.8644898,5.76791921 31.2713703,4.64001329 31.2713703,4.64001329 C31.2713703,4.64001329 31.9829738,4.84527947 32.2880466,4.74264638 C32.5934694,4.64001329 33,3 33,3 L27,4.74264638 L27,4.74264638 L27,4.74264638 L27,4.74264638 Z M27,4.74264638" fill="#FECF3E" id="path748"/><path d="M27.0098618,14.0182603 C26.9204617,14.2032538 27.456555,14.6662152 27.9029411,14.6662152 C28.3493271,14.6662152 28.5281273,14.0182603 28.6172202,14.2032538 C28.7066203,14.3885657 28.7066203,15.2215141 29.8675926,14.9438646 C31.028565,14.6662152 31.028565,13.8332668 31.028565,13.8332668 C31.028565,13.8332668 30.6712718,14.1109163 31.474951,14.2032538 C32.2786302,14.2959098 33.0823094,13 32.9932166,13 C32.9038165,13 27.1886619,14.1109163 27.0098618,14.0182603 C27.0098618,14.0182603 27.1886619,14.1109163 27.0098618,14.0182603 L27.0098618,14.0182603 L27.0098618,14.0182603 L27.0098618,14.0182603 L27.0098618,14.0182603 Z M27.0098618,14.0182603" fill="#FECF3E" id="path745"/><path d="M10.0249072,4.99974519 C9.93606644,5.44426042 10.1134427,6 10.1134427,6 L15.8816813,3.55573958 C15.8816813,3.55573958 16.1478983,3 15.8816813,3 C15.6154643,3 9.93606644,5.22219391 10.0249072,4.99974519 C10.0249072,4.99974519 9.93606644,5.22219391 10.0249072,4.99974519 L10.0249072,4.99974519 L10.0249072,4.99974519 L10.0249072,4.99974519 L10.0249072,4.99974519 Z M10.0249072,4.99974519" fill="#DD8B59" id="path732"/><path d="M19,3.33333333 C19.1778178,3.33333333 24.9604169,1 24.9604169,1 C24.9604169,1 25.0494789,2 24.9604169,2 C24.871661,2 19.5337595,4 19.5337595,4 L19,3.33333333 L19,3.33333333 L19,3.33333333 L19,3.33333333 Z M19,3.33333333" fill="#DD8B59" id="path733"/><path d="M26.7327503,7.96 C26.7327503,7.96 25.763717,8.98655963 26.0543937,10.3865596 C26.3450703,11.7868807 26.7327503,13 26.8297536,13 C26.926757,13 27.9924603,11.1334404 29.1551669,11.04 C30.3178735,10.9465596 32.4496134,12.0668807 32.4496134,12.0668807 C32.4496134,12.0668807 32.1589367,9.82655963 32.2559401,8.8 C32.3526101,7.77311927 34,6 34,6 L26.7327503,7.96 L26.7327503,7.96 L26.7327503,7.96 L26.7327503,7.96 Z M26.7327503,7.96" fill="#FECF3E" id="path741"/><path d="M18.1199211,6.03575378 C18.1199211,6.03575378 17.9324154,7 18.0263296,7 C18.1199211,7 26,4.64283081 26,4.64283081 L26,4 L18.1199211,6.03575378 L18.1199211,6.03575378 L18.1199211,6.03575378 L18.1199211,6.03575378 Z M18.1199211,6.03575378" fill="#DD8B59" id="path734"/><path d="M7.46224488,17.0924883 C7.46224488,17.0924883 5.92614144,16.7816896 6.00277485,17.2995687 C6.07967251,17.8174478 6.7709587,18.3356834 6.84785636,18.6464821 C6.92448976,18.9572809 6.61742763,20.0967575 7.07828509,19.9933956 C7.53914254,19.8896772 8,19.47516 8,19.1643613 C8,18.8535625 7.92310234,17.4032871 7.92310234,17.4032871 L7.46224488,17.0924883 L7.46224488,17.0924883 L7.46224488,17.0924883 L7.46224488,17.0924883 Z M7.46224488,17.0924883" fill="#B6B6B4" fill-opacity="0.99607801" id="path749"/><path d="M18,12.5334862 L18,13 L25,12.3334862 L24.8056763,12 L18,12.5334862 L18,12.5334862 L18,12.5334862 L18,12.5334862 Z M18,12.5334862" fill="#DD8B59" id="path735"/><path d="M10,13.8204652 C10.0924103,13.8204652 10,14.8751762 10.7383296,14.6409304 C11.4769768,14.4062814 11.6614798,13.8204652 11.6614798,13.8204652 C11.6614798,13.8204652 11.8459829,15.109422 12.8615433,14.9925007 C13.8767863,14.8751762 14.4306129,13.4688948 14.4306129,13.4688948 C14.4306129,13.4688948 14.5230232,14.5236059 15.1692601,14.1720355 C15.815497,13.8204652 16,13 16,13 L10.184503,14.054711 L10,13.8204652 L10,13.8204652 L10,13.8204652 L10,13.8204652 Z M10,13.8204652" fill="#FECF3E" id="path743"/><path d="M10.6644354,7.67651523 C10.6644354,7.67651523 9.76006498,7.94121218 10.0615218,9.52939391 C10.3629786,11.1175756 11.0664931,12 11.1667482,12 C11.2673491,12 12.0711187,10.5001518 13.276946,10.2354548 C14.483119,9.97045432 16.5933167,11.0295457 16.5933167,11.0295457 C16.5933167,11.0295457 16.392115,9.61772741 16.6939176,8.29424264 C16.9953744,6.97045432 18,6 18,6 C18,6 10.9658923,7.67651523 10.6644354,7.67651523 L10.6644354,7.67651523 L10.6644354,7.67651523 L10.6644354,7.67651523 L10.6644354,7.67651523 Z M10.6644354,7.67651523" fill="#FECF3E" id="path739"/><path d="M26,13.29407 L26.095669,14 C26.095669,14 33,12.941105 33,12.8233151 C33,12.70593 33,12 32.904331,12 C32.8083322,12 26.095669,13.4118599 26,13.29407 C26,13.29407 26.095669,13.4118599 26,13.29407 L26,13.29407 L26,13.29407 L26,13.29407 L26,13.29407 Z M26,13.29407" fill="#DD8B59" id="path736"/><path d="M26,7.27607071 L26.0917602,8 L33.882547,5.6207142 C33.882547,5.6207142 34.0660673,5 33.9743071,5 C33.882547,5 26.183205,7.58642781 26,7.27607071 C26,7.27607071 26.183205,7.58642781 26,7.27607071 L26,7.27607071 L26,7.27607071 L26,7.27607071 L26,7.27607071 Z M26,7.27607071" fill="#DD8B59" id="path737"/><path d="M27.0400463,4.45734038 C27.0400463,4.45734038 26.9499421,5 27.0400463,5 C27.1304611,5 32.7299672,3.64335095 32.7299672,3.55280396 C32.7299672,3.46256812 33.2718349,2.91959734 32.8203821,3.01014433 C32.3686186,3.10069132 27.220876,4.72867019 27.0400463,4.45734038 C27.0400463,4.45734038 27.220876,4.72867019 27.0400463,4.45734038 L27.0400463,4.45734038 L27.0400463,4.45734038 L27.0400463,4.45734038 L27.0400463,4.45734038 Z M27.0400463,4.45734038" id="path738"/><path d="M40,15 L34,6" id="path750"/><path d="M33,12 C33.0946768,11.7142857 33.378382,6 33.378382,6" id="path751"/><path d="M19,3.80705724 C19.397106,3.91346227 20.0919561,4.97604995 20.4887206,4.76360555 C20.8858266,4.55116114 21.4813148,3.91346227 21.4813148,3.91346227 C21.4813148,3.91346227 21.381953,5.18886001 22.1761649,4.97604995 C22.9700354,4.76360555 23.0693973,3.91346227 23.0693973,3.91346227 C23.0693973,3.91346227 23.6648855,4.2323117 24.1610119,3.91346227 C24.6574798,3.59461283 25.1536062,2 24.9552239,2 C24.7568416,2 19.1987237,3.91346227 19,3.80705724 C19,3.80705724 19.1987237,3.91346227 19,3.80705724 L19,3.80705724 L19,3.80705724 L19,3.80705724 L19,3.80705724 Z M19,3.80705724" fill="#FECF3E" id="path747"/><path d="M18.7509618,6.57518813 C18.7509618,6.75007525 17.7578445,8.15007525 18.0557455,9.46248119 C18.3536465,10.7748871 18.9494485,12 19.0488628,12 C19.148277,12 20.637782,10.6 21.9288002,10.3375188 C23.2194768,10.0750376 25.106297,11.2125564 25.0072244,11.2125564 C24.9078102,11.2125564 24.510495,9.89984949 24.510495,8.93751881 C24.510495,7.97488712 26,5 26,5 L18.7509618,6.57518813 L18.7509618,6.57518813 L18.7509618,6.57518813 L18.7509618,6.57518813 Z M18.7509618,6.57518813" fill="#FECF3E" id="path740"/><path d="M19,12.906407 C19,12.9971724 19.2874353,13.6319068 19.9582276,13.6319068 C20.6286903,13.6319068 20.7246119,12.9971724 20.7246119,12.9971724 C20.7246119,12.9971724 20.6286903,14.0851103 21.6828396,13.9946568 C22.7366592,13.9038913 23.1200162,12.906407 23.1200162,12.906407 C23.1200162,12.906407 23.2159378,13.4506878 24.0782438,13.1787034 C24.9405498,12.906407 26.0902911,12 25.9943694,12 C25.8987774,12 19.0959217,13.1787034 19,12.906407 C19,12.906407 19.0959217,13.1787034 19,12.906407 L19,12.906407 L19,12.906407 L19,12.906407 L19,12.906407 Z M19,12.906407" fill="#FECF3E" id="path744"/><path d="M23,8.5 C23,8.77614237 22.7761424,9 22.5,9 C22.2238576,9 22,8.77614237 22,8.5 C22,8.22385763 22.2238576,8 22.5,8 C22.7761424,8 23,8.22385763 23,8.5 C23,8.5 23,8.22385763 23,8.5 L23,8.5 L23,8.5 L23,8.5 L23,8.5 Z M23,8.5" fill="#BE0F17" fill-opacity="0.996081" id="path771"/><path d="M22,6.5 C22,6.77614237 21.7761424,7 21.5,7 C21.2238576,7 21,6.77614237 21,6.5 C21,6.22385763 21.2238576,6 21.5,6 C21.7761424,6 22,6.22385763 22,6.5 C22,6.5 22,6.22385763 22,6.5 L22,6.5 L22,6.5 L22,6.5 L22,6.5 Z M22,6.5" fill="#BE0F17" fill-opacity="0.996081" id="path772"/><path d="M21,8.5 C21,8.77614237 20.7761424,9 20.5,9 C20.2238576,9 20,8.77614237 20,8.5 C20,8.22385763 20.2238576,8 20.5,8 C20.7761424,8 21,8.22385763 21,8.5 C21,8.5 21,8.22385763 21,8.5 L21,8.5 L21,8.5 L21,8.5 L21,8.5 Z M21,8.5" fill="#BE0F17" fill-opacity="0.996081" id="path773" transform="translate(20.500000, 8.500000) rotate(-87.726790) translate(-20.500000, -8.500000) "/><path d="M21.5,10 C21.2238576,10 21,9.77614237 21,9.5 C21,9.22385763 21.2238576,9 21.5,9 C21.7761424,9 22,9.22385763 22,9.5 C22,9.77614237 21.7761424,10 21.5,10 L21.5,10 L21.5,10 L21.5,10 Z M21.5,10" fill="#BE0F17" fill-opacity="0.996081" id="path774" transform="translate(21.500000, 9.500000) rotate(-87.726790) translate(-21.500000, -9.500000) "/><path d="M22,1.00476806 C22,0.911526487 24.8380415,2.21562687 24.8380415,2.30854803 C24.8380415,2.40178961 34.9083487,16 35,16" id="path753"/><path d="M30,2 L32.2702929,3.05909137 L33,5" id="path754"/><path d="M14.0019708,2 C13.9162202,2 16.6572923,4.18170446 16.6572923,4.18170446 L17,6" id="path755"/><path d="M3,16 C4.26111886,15.4066233 13,7 13,7" id="path756"/><path d="M1,14 C2.10118672,13.0216513 11,5 11,5" id="path757"/><path d="M18,7 L28,23" id="path758"/><path d="M27,13 C27,13 28.2114976,16.880813 29.4079029,17.458743 C30.6043082,18.0366729 32,19 32,19" id="path759"/><path d="M26,13 C26,13 26.7665688,17.4022889 27.8442762,18.2372333 C28.9219836,19.0721776 30,20 30,20" id="path760"/><path d="M18,13 C18,13 19.1999656,19.0551067 21.6002408,20.4311956 C24.000172,21.8072844 26,23 26,23" id="path761"/><path d="M18,13 C18,13 20.33987,17.7273612 22.3199505,19.1819098 C24.300031,20.6361457 27,22 27,22" id="path762"/><path d="M10,13 C10.6174239,14.0434262 10.5293939,16.043526 11.2351513,16.7390437 C11.9409086,17.4348606 13,19 13,19" id="path763"/><path d="M11,13 C11.3590614,13.5769104 12.3602964,16.4495534 12.9743748,17.3268277 C13.4232788,18.096262 18,23 18,23" id="path764"/><path d="M16,22.5 C16,22.7761424 15.7761424,23 15.5,23 C15.2238576,23 15,22.7761424 15,22.5 C15,22.2238576 15.2238576,22 15.5,22 C15.7761424,22 16,22.2238576 16,22.5 C16,22.5 16,22.2238576 16,22.5 L16,22.5 L16,22.5 L16,22.5 L16,22.5 Z M16,22.5" fill="#000000" id="path766"/><path d="M20,24.5 C20,24.7761424 19.7761424,25 19.5,25 C19.2238576,25 19,24.7761424 19,24.5 C19,24.2238576 19.2238576,24 19.5,24 C19.7761424,24 20,24.2238576 20,24.5 C20,24.5 20,24.2238576 20,24.5 L20,24.5 L20,24.5 L20,24.5 L20,24.5 Z M20,24.5" fill="#000000" id="path767"/><path d="M24,24.5 C24,24.7761424 23.7761424,25 23.5,25 C23.2238576,25 23,24.7761424 23,24.5 C23,24.2238576 23.2238576,24 23.5,24 C23.7761424,24 24,24.2238576 24,24.5 C24,24.5 24,24.2238576 24,24.5 L24,24.5 L24,24.5 L24,24.5 L24,24.5 Z M24,24.5" fill="#000000" id="path768"/><path d="M29,23.5 C29,23.7761424 28.7761424,24 28.5,24 C28.2238576,24 28,23.7761424 28,23.5 C28,23.2238576 28.2238576,23 28.5,23 C28.7761424,23 29,23.2238576 29,23.5 C29,23.5 29,23.2238576 29,23.5 L29,23.5 L29,23.5 L29,23.5 L29,23.5 Z M29,23.5" fill="#000000" id="path769"/><path d="M30.5,22 C30.2238576,22 30,21.7761424 30,21.5 C30,21.2238576 30.2238576,21 30.5,21 C30.7761424,21 31,21.2238576 31,21.5 C31,21.7761424 30.7761424,22 30.5,22 L30.5,22 L30.5,22 L30.5,22 Z M30.5,22" fill="#000000" id="path770"/><path d="M12.9984178,2 C12.7414084,2.19513176 8.45772165,3.36458118 9.05750852,3.2670153 C9.65700066,3.1697847 13.0841858,4.24166825 12.9984178,3.94930589 C12.9126497,3.65694354 12.9984178,2.19513176 12.9984178,2 C12.9984178,2 12.9984178,2.19513176 12.9984178,2 L12.9984178,2 L12.9984178,2 L12.9984178,2 L12.9984178,2 Z M12.9984178,2" fill="#FF0000" fill-opacity="0.99607801" id="path776"/><path d="M21.8107501,0 C21.6233316,0 18.9086613,1.20305298 19.0023705,1.20305298 C19.0960798,1.20305298 22.0915559,2.18716386 21.9978466,1.96822176 C21.9041374,1.74965585 21.9041374,0.328036961 21.8107501,0 C21.8107501,0 21.9041374,0.328036961 21.8107501,0 L21.8107501,0 L21.8107501,0 L21.8107501,0 L21.8107501,0 Z M21.8107501,0" fill="#FF0000" fill-opacity="0.99607801" id="path777"/><path d="M30,1 C29.8044149,1.11559504 26.4831647,2.03916368 27.0692479,2.15475872 C27.6553311,2.27035376 29.9022074,3.1939224 29.9022074,2.96312955 C29.9022074,2.73193946 29.9022074,1.11559504 30,1 C30,1 29.9022074,1.11559504 30,1 L30,1 L30,1 L30,1 L30,1 Z M30,1" fill="#FF0000" fill-opacity="0.99607801" id="path778"/></g><path d="M31.1838733,19.749785 L39.9080633,20 L40,19.1251075 L31,19 L31.1838733,19.749785 L31.1838733,19.749785 L31.1838733,19.749785 L31.1838733,19.749785 Z M31.1838733,19.749785" fill="#DD8B59" id="path711"/><path d="M31,17 C32.0386281,17 39.8741319,15.7690883 39.8741319,15.7690883 C39.8741319,15.7690883 40.1573351,15 39.8741319,15 C39.5909288,15 31,16.4616911 31,16.4616911 L31,17 L31,17 L31,17 L31,17 Z M31,17" fill="#DD8B59" id="path713"/></g></g><g id="UK"><rect d="M0,0 L0,60 L89.5027624,60 L89.5027624,0 L0,0 Z M0,0" fill="#346DA6" height="60" id="rect962-copy" width="89.5027624" x="0" y="0"/><path d="M45,23.291796 L10.062306,0 L0,0 L0,6.708204 L34.9376946,29.9999997 L0,53.291796 L0,60 L10.0623036,60 L45,36.7082031 L79.9376964,60 L90,60 L90,53.291796 L55.0623054,29.9999997 L90,6.708204 L90,0 L79.937694,0 L45,23.291796 L45,23.291796 L45,23.291796 L45,23.291796 Z M45,23.291796" fill="#FFFFFF" id="White_Diagonal"/><path d="M57.7419355,32.6666667 L90,54.7936508 L90,60 L50,32.6666667 L57.7419355,32.6666667 Z M47.7348066,33.0000001 L39.7790055,33.0000001 L0,60 L7.9558011,60 L47.7348066,33.0000001 Z M43.7569061,26.0416668 L50.9668508,26.0416668 L89.5027624,2.01327737e-07 L82.2928177,2.01327737e-07 L43.7569061,26.0416668 Z M29.3579908,25.0000002 L0,5.24353318 L0,2.01327737e-07 L37.1798356,25.0000002 L29.3579908,25.0000002 Z M29.3579908,25.0000002" fill="#CA4638" id="Path"/><path d="M36,22 L36,0 L53,0 L53,22 L90,22 L90,39 L53,39 L53,60 L36,60 L36,39 L0,39 L0,22 L36,22 Z M36,22" fill="#FFFFFF" id="Rectangle-3"/><path d="M38,24 L38,0 L51,0 L51,24 L90,24 L90,37 L51,37 L51,60 L38,60 L38,37 L0,37 L0,24 L38,24 Z M38,24" fill="#CA4638" id="Rectangle-3"/></g></g></g></svg>