<?xml version="1.0" ?><svg height="120px" version="1.1" viewBox="0 0 180 120" width="180px" xmlns="http://www.w3.org/2000/svg" xmlns:sketch="http://www.bohemiancoding.com/sketch/ns" xmlns:xlink="http://www.w3.org/1999/xlink"><title/><desc/><defs/><g fill="none" fill-rule="evenodd" id="Page-1" stroke="none" stroke-width="1"><g id="rectangle_cambodia"><rect fill="#CA4638" height="120" id="Rectangle-47" width="180" x="0" y="0"/><rect fill="#346DA6" height="34" id="Rectangle-47" width="180" x="0" y="0"/><rect fill="#346DA6" height="34" id="Rectangle-47" width="180" x="0" y="86"/><g id="temple-2" stroke="#000000" stroke-width="0.1" transform="translate(55.000000, 38.000000)"><path d="M34.2655739,1.12886386 C34.2655739,1.12886386 34.2262701,0.0121379379 34.8783169,0 C35.5303637,0.0121345436 35.49106,1.12886386 35.49106,1.12886386 L35.49106,1.12886386 L34.2655739,1.12886386 L34.2655739,1.12886386 L34.2655739,1.12886386 L34.2655739,1.12886386 Z" fill="#FFFFFF" id="path4053"/><path d="M61.5143596,30.5605677 L61.5143596,24.9888113 C61.6966671,24.2820971 62.2982345,23.6568576 62.7505398,23.5315986 L62.7505398,18.306218 C62.0667186,18.306218 61.7318395,19.1950164 61.7318395,19.1950164 L60.5690362,24.3030636 L60.5690362,30.5177099 L61.5143596,30.5605677 L61.5143596,30.5605677 L61.5143596,30.5605677 L61.5143596,30.5605677 Z" fill="#FFFFFF" id="path5298"/><path d="M51.1489268,19.5266325 L49.4720711,19.5266325 L49.4720711,23.0714806 L51.1489268,23.0714806 L51.1489268,19.5266325 L51.1489268,19.5266325 L51.1489268,19.5266325 L51.1489268,19.5266325 Z" fill="#FFFFFF" id="path4002"/><path d="M19.8801641,19.5266325 L50.8617071,19.5266325 L50.8617071,31.4169171 L19.8801641,31.4169171 L19.8801641,19.5266325 L19.8801641,19.5266325 L19.8801641,19.5266325 L19.8801641,19.5266325 Z" fill="#FFFFFF" id="rect4016"/><path d="M8.78638311,30.606515 L8.78638311,25.0561884 C8.60407555,24.3494742 8.00250818,23.7242346 7.55020281,23.5989756 L7.55020281,18.7130229 L8.56890314,19.2623935 L9.73170641,24.3704406 L9.73170641,30.606515 L8.78638311,30.606515 L8.78638311,30.606515 L8.78638311,30.606515 L8.78638311,30.606515 Z" fill="#FFFFFF" id="path3912"/><path d="M8.78638311,30.5605677 L8.78638311,24.9888113 C8.60407555,24.2820971 8.00250818,23.6568576 7.55020281,23.5315986 L7.55020281,18.306218 C8.23402408,18.306218 8.56890314,19.1950164 8.56890314,19.1950164 L9.73170641,24.3030636 L9.73170641,30.5177099 L8.78638311,30.5605677 L8.78638311,30.5605677 L8.78638311,30.5605677 L8.78638311,30.5605677 Z" fill="#FFFFFF" id="path3963"/><path d="M7.55020281,31.9546846 C8.02945197,31.7111876 8.57612447,31.1445196 8.75489618,30.5103634 L61.3186979,30.5103634 C61.4974696,31.1445196 62.0441421,31.7111876 62.5233913,31.9546846 C62.5233913,31.9546846 62.0441421,31.7111876 62.5233913,31.9546846 L7.55020281,31.9546846 L7.55020281,31.9546846 L7.55020281,31.9546846 L7.55020281,31.9546846 Z" fill="#FFFFFF" id="path3923"/><rect fill="#FFFFFF" height="4.47921829" id="rect3953" width="0.976370839" x="49.0610724" y="26.0355101"/><rect fill="#FFFFFF" height="1.38222685" id="rect4008" width="30.981543" x="19.8801641" y="23.594681"/><rect fill="#FFFFFF" height="1.21894818" id="rect4010" width="30.981543" x="19.8801641" y="21.9674616"/><rect fill="#FFFFFF" height="1.18228528" id="rect4014" width="30.981543" x="19.8801641" y="19.9334374"/><path d="M51.1489268,19.5266325 L49.4720711,19.5266325 L49.4720711,23.0714806 L51.1489268,23.0714806 L51.1489268,19.5266325 L51.1489268,19.5266325 L51.1489268,19.5266325 L51.1489268,19.5266325 Z" fill="#FFFFFF" id="path3968"/><path d="M62.2233942,32.0742892 C61.7524349,31.8621469 61.0667011,31.2817253 61.0667011,30.6977024 L61.0667011,23.7605146 L61.3893767,23.1878761 L49.5405836,23.1878761 L50.0029433,23.7605146 L50.0029433,30.6977024 C50.0029433,31.2817253 49.5320317,31.8621469 49.0610724,32.0742892 C49.0610724,32.0742892 49.5320317,31.8621469 49.0610724,32.0742892 L62.2233942,32.0742892 L62.2233942,32.0742892 L62.2233942,32.0742892 L62.2233942,32.0742892 Z" fill="#FFFFFF" id="path3933"/><rect fill="#FFFFFF" height="4.47921829" id="rect3951" width="0.976370839" x="28.1001383" y="26.0355101"/><rect fill="#FFFFFF" height="4.47921829" id="rect3955" width="0.976370839" x="41.252097" y="26.0355101"/><path d="M42.6976538,32.0742892 C42.1459295,31.8621469 41.3426009,31.2817253 41.3426009,30.6977024 L41.3426009,24.0999424 L42.0609174,23.1878761 L27.6929427,23.1878999 L28.3815333,24.0999424 L28.3815333,30.6977024 C28.3815333,31.2817253 27.8298652,31.8621469 27.2781409,32.0742892 C27.2781409,32.0742892 27.8298652,31.8621469 27.2781409,32.0742892 L42.6976538,32.0742892 L42.6976538,32.0742892 L42.6976538,32.0742892 L42.6976538,32.0742892 Z" fill="#FFFFFF" id="path3937"/><rect fill="#FFFFFF" height="4.47921829" id="rect3939" width="0.976370839" x="30.5661305" y="26.0355101"/><rect fill="#FFFFFF" height="4.47921829" id="rect3941" width="0.976370839" x="38.7861047" y="26.0355101"/><path d="M27.6891396,15.4585841 L27.6891396,19.4362535 L27.6891396,21.3402313 L27.6891396,22.968424 L42.3967236,22.968424 L42.3967236,21.3508384 L42.4180489,15.4585841 C41.8164663,15.6943099 41.7108486,16.2382073 41.7108486,16.2382073 L41.7108486,19.4362535 L28.4388783,19.4362535 L28.4388783,16.2382073 C28.4388783,16.2382073 28.2907223,15.6943099 27.6891396,15.4585841 C27.6891396,15.4585841 28.2907223,15.6943099 27.6891396,15.4585841 L27.6891396,15.4585841 L27.6891396,15.4585841 L27.6891396,15.4585841 L27.6891396,15.4585841 Z" fill="#FFFFFF" id="rect4125"/><path d="M40.1426079,32.0466839 C39.6619635,31.8345416 38.6148237,31.2541201 38.6148237,30.6700972 L38.6148237,23.2863326 C38.7175998,22.874118 39.278019,22.630845 39.6387443,22.3742664 L29.8861994,22.3742664 C30.3503576,22.619391 30.8677466,22.8228932 31.0526763,23.2863326 L31.0526763,30.6700972 C31.0526763,31.2541201 30.2247775,31.8345416 29.7441331,32.0466839 C29.7441331,32.0466839 30.2247775,31.8345416 29.7441331,32.0466839 L40.1426079,32.0466839 L40.1426079,32.0466839 L40.1426079,32.0466839 L40.1426079,32.0466839 Z" fill="#FFFFFF" id="path3935"/><path d="M41.7588468,22.1091401 L41.7587754,16.7904491 L40.4219272,16.7904271 L40.4219272,16.2721938 L29.8481042,16.2721938 L29.8481042,16.7904271 L28.511137,16.7903778 L28.5111847,22.1091401 L41.7588468,22.1091401 L41.7588468,22.1091401 L41.7588468,22.1091401 L41.7588468,22.1091401 Z" fill="#FFFFFF" id="path3868"/><rect fill="#FFFFFF" height="4.47921829" id="rect3943" width="0.976370839" x="19.8801641" y="26.0355101"/><path d="M7.96120154,32.0742892 C8.43216081,31.8621469 9.1178946,31.2817253 9.1178946,30.6977024 L9.1178946,23.7605146 L8.79521899,23.1878761 L20.6440121,23.1878761 L20.1816524,23.7605146 L20.1816524,30.6977024 C20.1816524,31.2817253 20.652564,31.8621469 21.1235233,32.0742892 C21.1235233,32.0742892 20.652564,31.8621469 21.1235233,32.0742892 L7.96120154,32.0742892 L7.96120154,32.0742892 L7.96120154,32.0742892 L7.96120154,32.0742892 Z" fill="#FFFFFF" id="path3324"/><rect fill="#FFFFFF" height="4.04585794" id="rect4007" width="1.09384367" x="9.1941977" y="18.306218"/><rect fill="#FFFFFF" height="0.852289814" id="rect4009" width="1.09384367" x="9.1941977" y="17.4926083"/><path d="M18.8252185,32.0742892 C18.3542592,31.8621469 17.6685254,31.2817253 17.6685254,30.6977024 L17.6685254,24.0999814 L18.6537855,23.1878761 L10.5986268,23.1878999 L11.5839158,24.0999814 L11.5839158,30.6977024 C11.5839158,31.2817253 10.8981531,31.8621469 10.4271938,32.0742892 C10.4271938,32.0742892 10.8981531,31.8621469 10.4271938,32.0742892 L18.8252185,32.0742892 L18.8252185,32.0742892 L18.8252185,32.0742892 L18.8252185,32.0742892 Z" fill="#FFFFFF" id="path3905"/><path d="M17.8015202,31.847698 C17.330561,31.6355556 16.6448272,31.0551341 16.6448272,30.4711113 L16.6448272,24.5067862 L17.2897803,23.594681 L12.172003,23.594681 L12.8169119,24.5067862 L12.8169119,30.4711113 C12.8169119,31.0551341 12.1311492,31.6355556 11.66019,31.847698 C11.66019,31.847698 12.1311492,31.6355556 11.66019,31.847698 L17.8015202,31.847698 L17.8015202,31.847698 L17.8015202,31.847698 L17.8015202,31.847698 Z" fill="#FFFFFF" id="path3901"/><path d="M59.5140906,32.0742892 C59.0431331,31.8621469 58.3573993,31.2817253 58.3573993,30.6977024 L58.3573993,24.0999814 L59.3426576,23.1878761 L51.287499,23.1878761 L52.2727879,24.0999814 L52.2727879,30.6977024 C52.2727879,31.2817253 51.5870252,31.8621469 51.116066,32.0742892 C51.116066,32.0742892 51.5870252,31.8621469 51.116066,32.0742892 L59.5140906,32.0742892 L59.5140906,32.0742892 L59.5140906,32.0742892 L59.5140906,32.0742892 Z" fill="#FFFFFF" id="path3913"/><path d="M58.4903924,31.847698 C58.0194332,31.6355556 57.3337011,31.0551341 57.3337011,30.4711113 L57.3337011,24.5067862 L57.9786525,23.594681 L52.8608021,23.594681 L53.5057841,24.5067862 L53.5057841,30.4711113 C53.5057841,31.0551341 52.8200214,31.6355556 52.3490621,31.847698 C52.3490621,31.847698 52.8200214,31.6355556 52.3490621,31.847698 L58.4903924,31.847698 L58.4903924,31.847698 L58.4903924,31.847698 L58.4903924,31.847698 Z" fill="#FFFFFF" id="path3903"/><path d="M13.3041848,23.5946929 L15.7494602,23.594681 L15.7494552,31.8477099 L13.3042103,31.8477099 L13.3041848,23.5946929 L13.3041848,23.5946929 L13.3041848,23.5946929 L13.3041848,23.5946929 Z" fill="#FFFFFF" id="path3887"/><path d="M38.1553098,31.847698 C37.6843505,31.6355556 36.9985691,31.0551715 36.9985691,30.4711486 L36.9985691,24.1672956 L37.3853007,23.594681 L32.5691358,23.594681 L32.9558487,24.1673584 L32.9558487,30.4711113 C32.9558487,31.0551341 32.2700859,31.6355556 31.7991267,31.847698 C31.7991267,31.847698 32.2700859,31.6355556 31.7991267,31.847698 L38.1553098,31.847698 L38.1553098,31.847698 L38.1553098,31.847698 L38.1553098,31.847698 Z" fill="#FFFFFF" id="path3897"/><path d="M33.8541202,23.5946929 L36.2949343,23.594681 L36.2949343,31.84326 L33.8541202,31.84326 L33.8541202,23.5946929 L33.8541202,23.5946929 L33.8541202,23.5946929 L33.8541202,23.5946929 Z" fill="#FFFFFF" id="path3891"/><path d="M54.4040556,23.594681 L56.8493311,23.594681 L56.849326,31.8477099 L54.4040812,31.8477099 L54.4040556,23.594681 L54.4040556,23.594681 L54.4040556,23.594681 L54.4040556,23.594681 Z" fill="#FFFFFF" id="path3893"/><rect fill="#FFFFFF" height="1.80008775" id="rect4019" width="4.89860716" x="32.6211241" y="20.3402422"/><path d="M37.5385756,21.7775278 C37.5444289,21.2341191 39.1278056,21.209733 39.9429887,20.7470471 L30.1551319,20.7470471 C30.970315,21.209733 32.5170065,21.2477879 32.5170065,21.7775278 L32.8482222,22.8315954 L36.8999727,22.9939131 L37.5385756,21.7775278 L37.5385756,21.7775278 L37.5385756,21.7775278 L37.5385756,21.7775278 Z" fill="#FFFFFF" id="path3876"/><path d="M39.4528124,16.0807788 C39.4528124,14.7505884 39.5087077,14.2381696 39.9184441,14.2381696 L39.9184458,18.468896 C38.9135365,18.8325691 38.1963889,20.1114838 38.1963889,20.1114838 L31.8771887,20.1114109 C31.8771887,20.1114109 31.1600412,18.8325691 30.1551319,18.468896 L30.1551319,14.2381696 C30.660423,14.2381696 30.6637358,14.7735711 30.6637358,16.0807771 C30.6637358,16.0807771 30.6637358,14.7735711 30.6637358,16.0807771 L39.4528124,16.0807788 L39.4528124,16.0807788 L39.4528124,16.0807788 L39.4528124,16.0807788 Z" fill="#FFFFFF" id="path4078"/><path d="M31.7991267,16.6789986 C32.6132208,17.6538437 32.5376795,19.3075427 32.5283551,20.2823878 L37.2499708,20.2823878 C37.2406464,19.3075427 37.1651051,17.6538437 37.9791992,16.6789986 C37.9791992,16.6789986 37.1651051,17.6538437 37.9791992,16.6789986 L31.7991267,16.6789986 L31.7991267,16.6789986 L31.7991267,16.6789986 L31.7991267,16.6789986 Z" fill="#FFFFFF" id="path4023"/><rect fill="#FFFFFF" height="4.47921829" id="rect3927" width="0.976370839" x="10.0161951" y="26.0355101"/><path d="M7.55020281,31.9546846 C8.02945197,31.7111876 8.57614656,31.1445756 8.75491833,30.5104194 L61.3186979,30.5103634 C61.4974696,31.1445196 62.0441421,31.7111876 62.5233913,31.9546846 C62.5233913,31.9546846 62.0441421,31.7111876 62.5233913,31.9546846 L7.55020281,31.9546846 L7.55020281,31.9546846 L7.55020281,31.9546846 L7.55020281,31.9546846 Z" id="path3929"/><rect fill="#FFFFFF" height="4.47921829" id="rect3931" width="0.976370839" x="18.647168" y="26.0355101"/><path d="M8.78319898,17.1992933 L8.78322106,23.1946301 L9.46685008,23.1946301 L9.46685008,17.1841395 C9.22047469,17.0600821 8.98912382,17.0409299 8.78319898,17.1992949 C8.78319898,17.1992949 8.98912382,17.0409299 8.78319898,17.1992949 L8.78319898,17.1992933 L8.78319898,17.1992933 L8.78319898,17.1992933 L8.78319898,17.1992933 Z" fill="#FFFFFF" id="path3971"/><path d="M8.78319898,20.7470471 C9.6305326,21.1791861 10.4697414,21.6791124 10.6822086,22.8632096 L8.78319898,22.8632096 L8.78319898,20.7470471 L8.78319898,20.7470471 L8.78319898,20.7470471 L8.78319898,20.7470471 Z" fill="#FFFFFF" id="path3973"/><path d="M19.0581667,19.5266325 L20.7350223,19.5266325 L20.7350223,23.0714806 L19.0581667,23.0714806 L19.0581667,19.5266325 L19.0581667,19.5266325 L19.0581667,19.5266325 L19.0581667,19.5266325 Z" fill="#FFFFFF" id="rect3864"/><path d="M20.2911628,19.1938816 L20.2911781,23.1059039 L20.8452931,23.1059039 L20.8452931,19.1839923 C20.6721807,19.1030439 20.4358546,19.0905461 20.2911628,19.1938866 C20.2911628,19.1938866 20.4358546,19.0905461 20.2911628,19.1938866 L20.2911628,19.1938816 L20.2911628,19.1938816 L20.2911628,19.1938816 L20.2911628,19.1938816 Z" fill="#FFFFFF" id="path3977"/><path d="M30.998575,16.1473427 L30.998575,14.6441646 C30.9770897,13.8925426 30.2474155,13.8381883 30.2259319,13.2902093 C30.2259319,13.2902093 30.1317197,12.4683494 30.3488763,12.0931951 C30.6441249,13.1922317 31.1808893,12.9903333 31.1808893,12.5384548 C31.1808893,12.1440227 30.8767876,11.7772863 30.2530799,10.8195415 C30.0537791,10.5135016 30.1771183,9.55424129 30.4564252,9.21136657 C30.564801,10.0452541 30.6886796,10.444114 31.0476575,10.444114 C31.2666178,10.444114 31.445449,10.3017801 31.445449,9.88416 C31.445449,9.35289607 31.0847305,9.08459879 30.9074237,8.6011365 C30.7005069,8.03693964 30.8429696,7.46183014 31.1867307,7.14038526 C31.3340955,7.96296307 31.2902606,8.2909555 31.6565022,8.2909555 C32.3951742,8.057862 31.6566724,6.99118298 31.4988415,6.7221627 C31.3172537,6.40845674 31.7429981,5.78267579 31.7429981,5.78267579 C31.9776975,6.51307518 32.0532083,6.57258026 32.3065072,6.50488479 C32.6260588,6.41948136 32.5848425,5.94658886 32.1948968,5.56445766 C31.9486541,5.32314656 31.9747675,4.96390467 32.2391316,4.67542499 C32.5045403,5.19287926 32.8443181,5.16143976 32.8770165,4.85415579 L32.6636508,3.6612436 L37.3611559,3.6612436 L37.1278874,4.81497564 C37.0611175,5.14521851 37.5079524,5.21689039 37.7856751,4.67542499 C38.0500391,4.96390467 38.0761526,5.32314656 37.8299099,5.56445766 C37.4399641,5.94658886 37.3987479,6.41948136 37.7182995,6.50488479 C37.9715984,6.57258026 38.0471091,6.51308196 38.2818086,5.78267579 C38.2818086,5.78267579 38.6637657,6.20921433 38.5259652,6.7221627 C38.3681343,6.99118298 37.6296325,8.057862 38.3683044,8.2909555 C38.7345461,8.2909555 38.6907112,7.96296307 38.838076,7.14038526 C39.181837,7.46183014 39.3242997,8.03693964 39.1173829,8.6011365 C38.9400762,9.08459879 38.5793576,9.35289607 38.5793576,9.88416 C38.5793576,10.3017801 38.7581889,10.444114 38.9771492,10.444114 C39.3361271,10.444114 39.4600056,10.0452541 39.5683815,9.21136657 C39.8476884,9.55424129 39.9710276,10.5135016 39.7717268,10.8195415 C39.1480191,11.7772863 38.8439174,12.1440227 38.8439174,12.5384548 C38.8439174,12.9903333 39.3806818,13.1922317 39.6759304,12.0931951 C39.893087,12.4683494 39.7988748,13.2902093 39.7988748,13.2902093 C39.7773912,13.8381883 39.047717,13.8925426 39.0262317,14.6441646 L39.0262317,16.1473427 L30.998575,16.1473427 L30.998575,16.1473427 L30.998575,16.1473427 L30.998575,16.1473427 Z" fill="#FFFFFF" id="path4132"/><path d="M32.6211241,4.28571429 L37.2842666,4.28571429" id="path5748"/><path d="M34.5010896,5.62256664 L33.8541202,5.29021761 L33.8541202,4.34053599 C34.118605,4.41986365 34.4154922,4.45225525 34.444517,4.87263487 C34.5366024,4.27256217 34.7026653,4.30192098 34.963514,4.06804844 C35.2243626,4.30192098 35.3904256,4.27256217 35.482511,4.87263487 C35.5115358,4.45225525 35.8084229,4.41986365 36.0729078,4.34053599 L36.0729078,5.29021761 L35.4259384,5.62256664 L34.5010896,5.62256664 L34.5010896,5.62256664 L34.5010896,5.62256664 L34.5010896,5.62256664 Z" fill="#FFFFFF" id="path4031"/><path d="M32.2101254,6.42857143 L37.9057813,6.42857143" id="path4060"/><path d="M34.5175045,7.16451371 L33.4431215,6.42787392 L33.4431215,5.55265766 C33.8197903,5.63964451 34.242608,5.67516394 34.2839434,6.13613404 C34.4150892,5.47811931 34.6515889,5.1381128 35.0230815,4.88165814 C35.3945742,5.1381128 35.6310739,5.47811931 35.7622197,6.13613404 C35.803555,5.67516394 36.2263728,5.63964451 36.6030415,5.55265766 L36.6030415,6.42787392 L35.5286585,7.16451371 L34.5175045,7.16451371 L34.5175045,7.16451371 L34.5175045,7.16451371 L34.5175045,7.16451371 Z" fill="#FFFFFF" id="path4029"/><path d="M31.7991267,7.85714286 L38.5790617,7.85714286" id="path4058"/><path d="M34.6785156,9.8626125 L33.4431215,8.78041657 L33.4431215,7.49464029 C33.8762404,7.62243314 34.3624215,7.67461514 34.4099522,8.3518245 C34.5607525,7.38513579 34.8326951,6.88563387 35.2598603,6.50887751 C35.6870255,6.88563387 35.9589681,7.38513579 36.1097683,8.3518245 C36.157299,7.67461514 36.6434802,7.62243314 37.076599,7.49464029 L37.076599,8.78041657 L35.8412049,9.8626125 L34.6785156,9.8626125 L34.6785156,9.8626125 L34.6785156,9.8626125 L34.6785156,9.8626125 Z" fill="#FFFFFF" id="path4025"/><path d="M36.942496,10.9837308 L35.8252701,12.5249841 L34.5603475,12.5249841 L33.4431215,10.9837308 L36.942496,10.9837308 L36.942496,10.9837308 L36.942496,10.9837308 L36.942496,10.9837308 Z" fill="#FFFFFF" id="path4037"/><path d="M32.6211241,13.8313647 C33.1799285,14.136013 33.3862974,14.7428913 33.4459924,15.8822485 L36.5903008,15.8822485 C36.6499957,14.7428913 36.8563612,14.136013 37.4151656,13.8313647 C37.4151656,13.8313647 36.8563612,14.136013 37.4151656,13.8313647 L32.6211241,13.8313647 L32.6211241,13.8313647 L32.6211241,13.8313647 L32.6211241,13.8313647 Z" fill="#FFFFFF" id="path4033"/><path d="M30.9771292,10 L39.0181805,10" id="path4062"/><path d="M30.9771292,12.8571429 L39.2604262,12.8571429" id="path4064"/><path d="M37.5119455,11.0887369 L37.5119455,9.54044714 C36.9811297,9.68619743 36.6372376,9.99967429 36.4840706,10.4250418 C36.4840706,9.91108364 35.8060141,8.72591036 35.0664625,8.13609686 C34.3248027,8.79632979 33.6351383,9.868572 33.6489991,10.4250418 C33.5228609,10.0199415 33.15194,9.68619743 32.6211241,9.54044714 L32.6211241,11.0887776 L37.5119455,11.0887369 L37.5119455,11.0887369 L37.5119455,11.0887369 L37.5119455,11.0887369 Z" fill="#FFFFFF" id="path4017"/><path d="M37.5714603,13.5296711 L37.5714042,11.9812762 C36.9895269,12.1270265 36.612557,12.4405034 36.4446564,12.8658709 C36.4446564,12.3519126 35.701455,11.1667394 34.8907639,10.5769259 C34.0777621,11.2371589 33.3216801,12.3094011 33.3368731,12.8658709 C33.198603,12.4607706 32.7920026,12.1270265 32.2101254,11.9812762 L32.2101254,13.5296066 L37.5714603,13.5296711 L37.5714603,13.5296711 L37.5714603,13.5296711 L37.5714603,13.5296711 Z" fill="#FFFFFF" id="path4015"/><path d="M38.4692395,16.695893 L38.4692395,14.9100836 C37.7453096,15.0964261 37.2952129,15.6304835 37.0674216,15.9418389 C37.0674216,14.9747718 35.9726747,13.500608 35.1341822,13.017755 C34.2739153,13.5131482 33.2009445,15.0366596 33.2009445,15.9418389 C32.9671315,15.6324149 32.5230565,15.0964261 31.7991267,14.9100836 L31.7991267,16.695893 L38.4692395,16.695893 L38.4692395,16.695893 L38.4692395,16.695893 L38.4692395,16.695893 Z" fill="#FFFFFF" id="path4013"/><path d="M38.0961336,20.7926823 L38.0961336,18.9566036 C37.4573061,19.2062341 37.2663632,19.8201708 37.065349,20.2372732 C37.1442492,18.3749262 36.0140899,16.3731526 35.1531286,15.8653889 C34.2921691,16.3731526 33.1405245,18.4177858 33.24091,20.2372732 C33.0345819,19.8227589 32.848953,19.2062341 32.2101254,18.9566036 L32.2101254,20.7927146 L38.0961336,20.7926823 L38.0961336,20.7926823 L38.0961336,20.7926823 L38.0961336,20.7926823 Z" fill="#FFFFFF" id="path4011"/><rect fill="#FFFFFF" height="4.47921829" id="rect4066" width="0.976370839" x="50.7050673" y="26.0355101"/><rect fill="#FFFFFF" height="4.47921829" id="rect4068" width="0.976370839" x="58.9250414" y="26.0355101"/><path d="M28.511137,20.7142857 L41.7587754,20.7142857" id="path3870"/><rect height="1.80008775" id="rect3355" width="4.91020295" x="32.6211241" y="20.7470471"/><path d="M37.6116656,23.4356748 L37.6116656,21.5995639 C36.9424538,21.7582769 36.9011167,22.0044334 36.6883075,22.4156739 C36.7672077,21.3033639 35.9773552,20.0343961 35.1163941,19.5266325 C34.2554345,20.0343961 33.4655821,21.3033639 33.5444823,22.4156739 C33.331673,22.0044334 33.305529,21.7582769 32.6211241,21.5995639 L32.6211241,23.4356748 L37.6116656,23.4356748 L37.6116656,23.4356748 L37.6116656,23.4356748 L37.6116656,23.4356748 Z" fill="#FFFFFF" id="path3917"/><path d="M20.9571764,20.7470471 C20.1098428,21.1791861 19.2706339,21.6791124 19.0581667,22.8632096 L20.9571764,22.8632096 L20.9571764,20.7470471 L20.9571764,20.7470471 L20.9571764,20.7470471 L20.9571764,20.7470471 Z" fill="#FFFFFF" id="path3908"/><path d="M9.1941977,18.306218 L10.3703427,18.306218 L10.3703427,23.0919323 L9.1941977,23.0919323 L9.1941977,18.306218 L9.1941977,18.306218 L9.1941977,18.306218 L9.1941977,18.306218 Z" fill="#FFFFFF" id="rect3914"/><path d="M9.1941977,17.4926083 L10.3633953,17.4926083 L10.3633953,18.3448979 L9.1941977,18.3448979 L9.1941977,17.4926083 L9.1941977,17.4926083 L9.1941977,17.4926083 L9.1941977,17.4926083 Z" fill="#FFFFFF" id="rect3916"/><path d="M59.7096616,18.306218 L60.8858066,18.306218 L60.8858066,23.0919323 L59.7096616,23.0919323 L59.7096616,18.306218 L59.7096616,18.306218 L59.7096616,18.306218 L59.7096616,18.306218 Z" fill="#FFFFFF" id="rect3914-2"/><path d="M59.7096616,17.4926083 L60.8788592,17.4926083 L60.8788592,18.3448979 L59.7096616,18.3448979 L59.7096616,17.4926083 L59.7096616,17.4926083 L59.7096616,17.4926083 L59.7096616,17.4926083 Z" fill="#FFFFFF" id="rect3916-2"/><path d="M19.0581667,19.5266325 L20.7350223,19.5266325 L20.7350223,23.0714806 L19.0581667,23.0714806 L19.0581667,19.5266325 L19.0581667,19.5266325 L19.0581667,19.5266325 L19.0581667,19.5266325 Z" fill="#FFFFFF" id="path3938"/><path d="M10.4271938,23.087976 L10.4271938,15.2292994 C10.7626344,15.2292994 10.8143729,16.3811408 11.5839566,16.3811408 C11.9846034,16.3811408 11.9420038,15.9040292 11.7170575,15.5154166 C11.5178605,15.1712878 11.2713337,14.6960006 11.6062467,13.8105981 C11.8357446,14.488079 12.4534528,14.7030369 12.3393189,14.2781836 C12.1431881,13.5481016 11.5785355,13.4283023 12.0021939,12.2953636 C12.1493391,13.2405071 12.7571767,13.1988559 12.6095448,12.649307 C12.4432486,12.0302841 12.0995897,11.776594 12.5235968,10.9039625 C12.7610188,11.8948829 13.0822174,11.8367593 13.0822174,11.2219775 C13.0822174,10.3131155 13.0472339,9.33292436 14.2263736,8.96925129 C14.2263736,8.96925129 14.2944401,8.13609686 14.719771,8.13609686 C15.1451019,8.13609686 15.2131684,8.96925129 15.2131684,8.96925129 C16.3923081,9.33292436 16.3573245,10.3131155 16.3573245,11.2219775 C16.3573245,11.8367593 16.6785232,11.8948829 16.9159452,10.9039625 C17.3399523,11.776594 16.9962934,12.0302841 16.8299972,12.649307 C16.6823653,13.1988559 17.2902029,13.2405071 17.4373481,12.2953636 C17.8610065,13.4283023 17.2963538,13.5481016 17.1002231,14.2781836 C16.9860892,14.7030369 17.6037974,14.488079 17.8332953,13.8105981 C18.1682083,14.6960006 17.9216814,15.1712878 17.7224845,15.5154166 C17.4975382,15.9040292 17.4549386,16.3811408 17.8555854,16.3811408 C18.625169,16.3811408 18.6769076,15.2292994 19.0123482,15.2292994 L19.0123482,23.087976 L10.4271938,23.087976 L10.4271938,23.087976 L10.4271938,23.087976 L10.4271938,23.087976 Z" fill="#FFFFFF" id="path3931"/><path d="M15.4419111,11.6567707 L15.9358138,11.2427451 L15.9358138,10.7124928 C15.7551244,10.7299936 15.6565478,10.7919851 15.5230896,10.9664679 C15.4095802,10.6149972 15.1600008,10.340541 14.8254995,10.1701211 C14.4909982,10.340541 14.2414171,10.6025181 14.1279078,10.9539889 C13.9944496,10.779506 13.8958746,10.7299936 13.7151835,10.7124928 L13.7151835,11.2427451 L14.2090862,11.6567707 L15.4419111,11.6567707 L15.4419111,11.6567707 L15.4419111,11.6567707 L15.4419111,11.6567707 Z" fill="#FFFFFF" id="path3920"/><path d="M15.7062564,13.1255395 L15.9358138,12.6298832 L15.9358138,11.9405903 C15.7551244,11.9583389 15.6565478,12.0212078 15.5230896,12.1981616 C15.4095802,11.8417132 15.1600008,11.5633689 14.8254995,11.3905356 C14.4909982,11.5633689 14.2414171,11.8290577 14.1279078,12.1855061 C13.9944496,12.0085522 13.8958746,11.9583389 13.7151835,11.9405903 L13.7151835,12.6298832 L13.9447409,13.1255395 L15.7062564,13.1255395 L15.7062564,13.1255395 L15.7062564,13.1255395 L15.7062564,13.1255395 Z" fill="#FFFFFF" id="path3922"/><path d="M15.4581321,14.9759829 L16.1917948,14.0835695 L16.1917948,13.2029021 C15.9233913,13.232955 15.7769623,13.3394097 15.5787182,13.6390362 C15.4101063,13.0354793 15.0393708,12.9036014 14.5424904,12.6109501 C14.04561,12.9036014 13.6748745,13.0140495 13.5062626,13.6176064 C13.3080185,13.3179799 13.1615896,13.232955 12.8931861,13.2029021 L12.8931861,14.0835695 L13.6268487,14.9759829 L15.4581321,14.9759829 L15.4581321,14.9759829 L15.4581321,14.9759829 L15.4581321,14.9759829 Z" fill="#FFFFFF" id="path3924"/><path d="M16.0596655,16.7884036 C16.0596655,16.7884036 16.9146612,16.0444509 16.9653873,15.6360751 L16.9653873,14.6945788 C16.6340356,14.7333856 16.3206469,14.8190385 16.0759118,15.2059319 C15.8677562,14.426587 15.5426967,14.2092514 14.9292867,13.8313647 C14.3158766,14.2092514 13.9908172,14.426587 13.7826616,15.2059319 C13.5379265,14.8190385 13.2245378,14.7333856 12.8931861,14.6945788 L12.8931861,15.6360751 C13.0011314,16.0444509 13.7989078,16.7884036 13.7989078,16.7884036 L13.7989078,16.7884036 L16.0596655,16.7884036 L16.0596655,16.7884036 L16.0596655,16.7884036 L16.0596655,16.7884036 Z" fill="#FFFFFF" id="path3926"/><path d="M16.2590228,20.0035436 C16.2590228,20.0035436 17.4300257,18.7106344 17.4568861,18.2069014 L17.4568861,16.738973 C17.0186576,16.799476 16.6041842,17.1000851 16.2805081,17.703306 C16.0052134,16.4881952 15.5753036,15.6409614 14.7640374,15.0517792 C13.9527712,15.6409614 13.5228615,16.4881952 13.2475668,17.703306 C12.9238906,17.1000851 12.5094172,16.799476 12.0711887,16.738973 L12.0711887,18.2069014 C12.1552683,18.7106344 13.2690521,20.0035436 13.2690521,20.0035436 L13.2690521,20.0035436 L16.2590228,20.0035436 L16.2590228,20.0035436 L16.2590228,20.0035436 L16.2590228,20.0035436 Z" fill="#FFFFFF" id="path3928"/><path d="M16.2590228,21.9534141 C16.2590228,21.9534141 17.2598722,20.9373676 17.4568861,20.4961997 L17.4568861,19.0282713 C17.0186576,19.0887743 16.6041842,19.3893834 16.2805081,19.9926043 C16.0052134,18.7774936 15.5753036,18.0817904 14.7640374,17.4926083 C13.9527712,18.0817904 13.5228615,18.7774936 13.2475668,19.9926043 C12.9238906,19.3893834 12.5094172,19.0887743 12.0711887,19.0282713 L12.0711887,20.4961997 C12.3254218,20.9373676 13.2690521,21.9534141 13.2690521,21.9534141 L13.2690521,21.9534141 L16.2590228,21.9534141 L16.2590228,21.9534141 L16.2590228,21.9534141 L16.2590228,21.9534141 Z" fill="#FFFFFF" id="path3930"/><path d="M16.7932754,23.0943587 C16.5010793,21.8268539 16.2498903,20.8866474 14.8431941,19.9334374 C13.4364997,20.8866474 13.1853821,21.8268539 12.8931861,23.0943587 C12.8931861,23.0943587 13.1853821,21.8268539 12.8931861,23.0943587 L16.7932754,23.0943587 L16.7932754,23.0943587 L16.7932754,23.0943587 L16.7932754,23.0943587 Z" fill="#FFFFFF" id="path3932"/><path d="M17.3870126,23.6378059 L17.3870126,21.8016951 C16.7481851,22.0513255 16.1708832,22.4208622 15.958074,22.8321028 C15.7201944,21.8127231 15.261966,21.3636584 14.6911505,20.7470471 C14.1203349,21.3636584 13.7380664,21.8127231 13.5001868,22.8321028 C13.2873776,22.4208622 12.7100162,22.0513255 12.0711887,21.8016951 L12.0712482,23.6378059 L17.3870126,23.6378059 L17.3870126,23.6378059 L17.3870126,23.6378059 L17.3870126,23.6378059 Z" fill="#FFFFFF" id="path3911"/><path d="M8.78319898,17.1992933 L8.78322106,23.1946301 L9.46685008,23.1946301 L9.46679733,17.1841395 C9.22042194,17.0600821 8.98912382,17.0409299 8.78319898,17.1992949 C8.78319898,17.1992949 8.98912382,17.0409299 8.78319898,17.1992949 L8.78319898,17.1992933 L8.78319898,17.1992933 L8.78319898,17.1992933 L8.78319898,17.1992933 Z" fill="#FFFFFF" id="path3934"/><path d="M8.78319898,20.7470471 C9.6305326,21.1791861 10.4697414,21.6791124 10.6822086,22.8632096 L8.78319898,22.8632096 L8.78319898,20.7470471 L8.78319898,20.7470471 L8.78319898,20.7470471 L8.78319898,20.7470471 Z" fill="#FFFFFF" id="path3936"/><path d="M20.2911628,19.1938816 L20.2911781,23.1059039 L20.8452931,23.1059039 L20.8452931,19.1839923 C20.6721807,19.1030439 20.4358546,19.0905461 20.2911628,19.1938866 C20.2911628,19.1938866 20.4358546,19.0905461 20.2911628,19.1938866 L20.2911628,19.1938816 L20.2911628,19.1938816 L20.2911628,19.1938816 L20.2911628,19.1938816 Z" fill="#FFFFFF" id="path3940"/><path d="M20.9571764,20.7470471 C20.1098428,21.1791861 19.2706339,21.6791124 19.0581667,22.8632096 L20.9571764,22.8632096 L20.9571764,20.7470471 L20.9571764,20.7470471 L20.9571764,20.7470471 L20.9571764,20.7470471 Z" fill="#FFFFFF" id="path3942"/><path d="M61.6636861,17.1992933 L61.663664,23.1946301 L60.980035,23.1946301 L60.980035,17.1841395 C61.2264104,17.0600821 61.4577612,17.0409299 61.6636861,17.1992949 C61.6636861,17.1992949 61.4577612,17.0409299 61.6636861,17.1992949 L61.6636861,17.1992933 L61.6636861,17.1992933 L61.6636861,17.1992933 L61.6636861,17.1992933 Z" fill="#FFFFFF" id="path3964"/><path d="M51.116066,23.087976 L51.116066,15.2292994 C51.4515065,15.2292994 51.5032451,16.3811408 52.2728288,16.3811408 C52.6734755,16.3811408 52.6308759,15.9040292 52.4059297,15.5154166 C52.2067327,15.1712878 51.9602058,14.6960006 52.2951189,13.8105981 C52.5246168,14.488079 53.1423249,14.7030369 53.0281911,14.2781836 C52.8320603,13.5481016 52.2674077,13.4283023 52.691066,12.2953636 C52.8382114,13.2405071 53.4460488,13.1988559 53.2984169,12.649307 C53.1321208,12.0302841 52.7884618,11.776594 53.2124689,10.9039625 C53.4498909,11.8948829 53.7710896,11.8367593 53.7710896,11.2219775 C53.7710896,10.3131155 53.736106,9.33292436 54.9152457,8.96925129 C54.9152457,8.96925129 54.9833122,8.13609686 55.4086432,8.13609686 C55.8339741,8.13609686 55.9020406,8.96925129 55.9020406,8.96925129 C57.0811802,9.33292436 57.0461967,10.3131155 57.0461967,11.2219775 C57.0461967,11.8367593 57.3673954,11.8948829 57.6048173,10.9039625 C58.0288244,11.776594 57.6851655,12.0302841 57.5188695,12.649307 C57.3712374,13.1988559 57.979075,13.2405071 58.1262203,12.2953636 C58.5498786,13.4283023 57.9852261,13.5481016 57.7890952,14.2781836 C57.6749614,14.7030369 58.2926695,14.488079 58.5221674,13.8105981 C58.8570805,14.6960006 58.6105537,15.1712878 58.4113567,15.5154166 C58.1864104,15.9040292 58.1438108,16.3811408 58.5444575,16.3811408 C59.3140412,16.3811408 59.3657798,15.2292994 59.7012203,15.2292994 L59.7012203,23.087976 L51.116066,23.087976 L51.116066,23.087976 L51.116066,23.087976 L51.116066,23.087976 Z" fill="#FFFFFF" id="path3939"/><path d="M56.1307832,11.6567707 L56.624686,11.2427451 L56.624686,10.7124928 C56.4439966,10.7299936 56.3454199,10.7919851 56.2119617,10.9664679 C56.0984523,10.6149972 55.848873,10.340541 55.5143717,10.1701211 C55.1798704,10.340541 54.9302893,10.6025181 54.8167799,10.9539889 C54.6833217,10.779506 54.5847467,10.7299936 54.4040556,10.7124928 L54.4040556,11.2427451 L54.8979584,11.6567707 L56.1307832,11.6567707 L56.1307832,11.6567707 L56.1307832,11.6567707 L56.1307832,11.6567707 Z" fill="#FFFFFF" id="path3331"/><path d="M56.3951286,13.1255395 L56.624686,12.6298832 L56.624686,11.9405903 C56.4439966,11.9583389 56.3454199,12.0212078 56.2119617,12.1981616 C56.0984523,11.8417132 55.848873,11.5633689 55.5143717,11.3905356 C55.1798704,11.5633689 54.9302893,11.8290577 54.8167799,12.1855061 C54.6833217,12.0085522 54.5847467,11.9583389 54.4040556,11.9405903 L54.4040556,12.6298832 L54.6336131,13.1255395 L56.3951286,13.1255395 L56.3951286,13.1255395 L56.3951286,13.1255395 L56.3951286,13.1255395 Z" fill="#FFFFFF" id="path3333"/><path d="M56.5580031,14.9759829 L57.2916656,14.0835695 L57.2916656,13.2029021 C57.0232622,13.232955 56.8768332,13.3394097 56.6785891,13.6390362 C56.5099772,13.0354793 56.1392418,12.9036014 55.6423613,12.6109501 C55.1454808,12.9036014 54.7747453,13.0140495 54.6061335,13.6176064 C54.4078894,13.3179799 54.2614604,13.232955 53.9930569,13.2029021 L53.9930569,14.0835695 L54.7267196,14.9759829 L56.5580031,14.9759829 L56.5580031,14.9759829 L56.5580031,14.9759829 L56.5580031,14.9759829 Z" fill="#FFFFFF" id="path3335"/><path d="M56.7485376,16.7884036 C56.7485376,16.7884036 57.6035333,16.0444509 57.6542594,15.6360751 L57.6542594,14.6945788 C57.3229077,14.7333856 57.0095191,14.8190385 56.7647839,15.2059319 C56.5566284,14.426587 56.2315689,14.2092514 55.6181588,13.8313647 C55.0047488,14.2092514 54.6796893,14.426587 54.4715338,15.2059319 C54.2267986,14.8190385 53.91341,14.7333856 53.5820582,14.6945788 L53.5820582,15.6360751 C53.6900036,16.0444509 54.48778,16.7884036 54.48778,16.7884036 L54.48778,16.7884036 L56.7485376,16.7884036 L56.7485376,16.7884036 L56.7485376,16.7884036 L56.7485376,16.7884036 Z" fill="#FFFFFF" id="path3337"/><path d="M56.9478949,20.0035436 C56.9478949,20.0035436 58.1188979,18.7106344 58.1457583,18.2069014 L58.1457583,16.738973 C57.7075298,16.799476 57.2930563,17.1000851 56.9693802,17.703306 C56.6940855,16.4881952 56.2641757,15.6409614 55.4529096,15.0517792 C54.6416434,15.6409614 54.2117336,16.4881952 53.9364389,17.703306 C53.6127628,17.1000851 53.1982893,16.799476 52.7600608,16.738973 L52.7600608,18.2069014 C52.8441404,18.7106344 53.9579242,20.0035436 53.9579242,20.0035436 L53.9579242,20.0035436 L56.9478949,20.0035436 L56.9478949,20.0035436 L56.9478949,20.0035436 L56.9478949,20.0035436 Z" fill="#FFFFFF" id="path3339"/><path d="M56.9478949,21.9534141 C56.9478949,21.9534141 57.9487444,20.9373676 58.1457583,20.4961997 L58.1457583,19.0282713 C57.7075298,19.0887743 57.2930563,19.3893834 56.9693802,19.9926043 C56.6940855,18.7774936 56.2641757,18.0817904 55.4529096,17.4926083 C54.6416434,18.0817904 54.2117336,18.7774936 53.9364389,19.9926043 C53.6127628,19.3893834 53.1982893,19.0887743 52.7600608,19.0282713 L52.7600608,20.4961997 C53.0142939,20.9373676 53.9579242,21.9534141 53.9579242,21.9534141 L53.9579242,21.9534141 L56.9478949,21.9534141 L56.9478949,21.9534141 L56.9478949,21.9534141 L56.9478949,21.9534141 Z" fill="#FFFFFF" id="path3341"/><path d="M57.4821475,23.0943587 C57.1899515,21.8268539 56.9387624,20.8866474 55.5320663,19.9334374 C54.1253719,20.8866474 53.8742543,21.8268539 53.5820582,23.0943587 C53.5820582,23.0943587 53.8742543,21.8268539 53.5820582,23.0943587 L57.4821475,23.0943587 L57.4821475,23.0943587 L57.4821475,23.0943587 L57.4821475,23.0943587 Z" fill="#FFFFFF" id="path3343"/><path d="M61.5548956,20.7470471 C60.707562,21.1791861 59.9595061,21.6791124 59.7470389,22.8632096 L61.5548956,22.8632096 L61.5548956,20.7470471 L61.5548956,20.7470471 L61.5548956,20.7470471 L61.5548956,20.7470471 Z" fill="#FFFFFF" id="path3966"/><path d="M50.0262014,19.1938816 L50.0261861,23.1059039 L49.4720711,23.1059039 L49.4720711,19.1839923 C49.6451836,19.1030439 49.8815097,19.0905461 50.0262014,19.1938866 C50.0262014,19.1938866 49.8815097,19.0905461 50.0262014,19.1938866 L50.0262014,19.1938816 L50.0262014,19.1938816 L50.0262014,19.1938816 L50.0262014,19.1938816 Z" fill="#FFFFFF" id="path3970"/><path d="M49.4720711,20.7470471 C50.3194047,21.1791861 51.1586136,21.6791124 51.3710808,22.8632096 L49.4720711,22.8632096 L49.4720711,20.7470471 L49.4720711,20.7470471 L49.4720711,20.7470471 L49.4720711,20.7470471 Z" fill="#FFFFFF" id="path3972"/><path d="M50.0262014,19.1938816 L50.0261861,23.1059039 L49.4720711,23.1059039 L49.4720711,19.1839923 C49.6451836,19.1030439 49.8815097,19.0905461 50.0262014,19.1938866 C50.0262014,19.1938866 49.8815097,19.0905461 50.0262014,19.1938866 L50.0262014,19.1938816 L50.0262014,19.1938816 L50.0262014,19.1938816 L50.0262014,19.1938816 Z" fill="#FFFFFF" id="path4004"/><path d="M49.4720711,20.7470471 C50.3194047,21.1791861 51.1586136,21.6791124 51.3710808,22.8632096 L49.4720711,22.8632096 L49.4720711,20.7470471 L49.4720711,20.7470471 L49.4720711,20.7470471 L49.4720711,20.7470471 Z" fill="#FFFFFF" id="path4006"/><path d="M40.0191008,15.5285885 C40.0191008,14.0029454 41.339832,13.8313647 41.339832,13.8313647 L41.339832,15.1890759 C40.8371391,15.1676461 40.5947623,15.6175831 40.5947623,16.2872979 C40.5947623,16.9570127 40.9995251,16.9676775 40.9995251,16.9676775 L40.9995251,20.8209381 L40.0191008,20.8209381 L40.0191008,15.5285885 L40.0191008,15.5285885 L40.0191008,15.5285885 L40.0191008,15.5285885 Z" fill="#FFFFFF" id="rect3321"/><path d="M30.2428669,15.5285885 C30.2428669,14.0029454 28.9221357,13.8313647 28.9221357,13.8313647 L28.9221357,15.1890759 C29.4248286,15.1676461 29.6672054,15.6175831 29.6672054,16.2872979 C29.6672054,16.9570127 29.2624426,16.9676775 29.2624426,16.9676775 L29.2624426,20.8209381 L30.2428669,20.8209381 L30.2428669,15.5285885 L30.2428669,15.5285885 L30.2428669,15.5285885 L30.2428669,15.5285885 Z" fill="#FFFFFF" id="path4325"/><path d="M58.0758848,23.6378059 L58.0758848,21.8016951 C57.4370572,22.0513255 56.8597554,22.4208622 56.6469462,22.8321028 C56.4090665,21.8127231 55.9508381,21.3636584 55.3800226,20.7470471 C54.8092071,21.3636584 54.4269386,21.8127231 54.1890589,22.8321028 C53.9762497,22.4208622 53.3988884,22.0513255 52.7600608,21.8016951 L52.7601204,23.6378059 L58.0758848,23.6378059 L58.0758848,23.6378059 L58.0758848,23.6378059 L58.0758848,23.6378059 Z" fill="#FFFFFF" id="path5240"/><path d="M1.79622093,38.6464602 L68.5853952,38.6464602 L68.5854428,42.049122 L1.79627027,42.0491271 L1.79622093,38.6464602 L1.79622093,38.6464602 L1.79622093,38.6464602 L1.79622093,38.6464602 Z" fill="#FFFFFF" id="path4136"/><path d="M-0.258772616,41.900899 L70.0510708,41.900899 L70.0511219,45.298544 L-0.25872157,45.2985491 L-0.258772616,41.900899 L-0.258772616,41.900899 L-0.258772616,41.900899 L-0.258772616,41.900899 Z" fill="#FFFFFF" id="rect2997"/><path d="M5.0842106,33.3571407 L64.8588048,33.3571407 L64.8588473,35.8571387 L5.08425313,35.8571407 L5.0842106,33.3571407 L5.0842106,33.3571407 L5.0842106,33.3571407 L5.0842106,33.3571407 Z" fill="#FFFFFF" id="path4138"/><path d="M3.44021576,35.7988263 L66.7100548,35.7988263 L66.7101007,38.683041 L3.4402617,38.6830427 L3.44021576,35.7988263 L3.44021576,35.7988263 L3.44021576,35.7988263 L3.44021576,35.7988263 Z" fill="#FFFFFF" id="path4140"/><path d="M6.31720672,31.7307779 L64.0032352,31.7307779 L64.0032777,33.4072677 L6.31724756,33.4072677 L6.31720672,31.7307779 L6.31720672,31.7307779 L6.31720672,31.7307779 L6.31720672,31.7307779 Z" fill="#FFFFFF" id="path4134"/><path d="M12.2680412,31.7307779 L16.6254316,31.7307779 L16.6254316,45.2902902 L12.2680412,45.2902902 L12.2680412,31.7307779 L12.2680412,31.7307779 L12.2680412,31.7307779 L12.2680412,31.7307779 Z" fill="#FFFFFF" id="path3823"/><path d="M13.3041848,31.7307779 L15.7318187,31.7307779 L15.7318136,45.290633 L13.3042103,45.290633 L13.3041848,31.7307779 L13.3041848,31.7307779 L13.3041848,31.7307779 L13.3041848,31.7307779 Z" fill="#FFFFFF" id="path3825"/><path d="M13.3041848,32.8571429 L15.820775,32.8571429" id="path4448"/><path d="M13.3041848,35 L15.820775,35" id="path4455"/><path d="M13.3041848,36.4285714 L15.820775,36.4285714" id="path4457"/><path d="M13.3041848,38.5714286 L15.820775,38.5714286" id="path4459"/><path d="M13.3041848,40 L15.820775,40" id="path4461"/><path d="M13.3041848,41.4285714 L15.820775,41.4285714" id="path4463"/><path d="M13.3041848,42.8571429 L15.820775,42.8571429" id="path4465"/><g id="Group" transform="translate(33.195876, 31.428571)"><path d="M-0.288660895,0.302231857 L4.0687992,0.302206429 L4.0687992,13.8617188 L-0.288591111,13.8616934 L-0.288660895,0.302231857 L-0.288660895,0.302231857 L-0.288660895,0.302231857 L-0.288660895,0.302231857 Z" fill="#FFFFFF" id="path4480"/><path d="M0.658243918,0.302206429 L3.08587784,0.302206429 L3.08587278,13.8620616 L0.658269464,13.8620616 L0.658243918,0.302206429 L0.658243918,0.302206429 L0.658243918,0.302206429 L0.658243918,0.302206429 Z" fill="#FFFFFF" id="path3825-1"/><path d="M0.658243918,1.42857143 L3.00148172,1.42857143" id="path4484"/><path d="M0.658243918,3.57142857 L3.00148172,3.57142857" id="path4486"/><path d="M0.658243918,5 L3.00148172,5" id="path4488"/><path d="M0.658243918,7.14285714 L3.00148172,7.14285714" id="path4490"/><path d="M0.658243918,8.57142857 L3.00148172,8.57142857" id="path4492"/><path d="M0.658243918,10 L3.00148172,10" id="path4494"/><path d="M0.658243918,11.4285714 L3.00148172,11.4285714" id="path4496"/></g><g id="Group-2" transform="translate(53.762887, 31.428571)"><path d="M-0.288660895,0.302231857 L4.0687992,0.302206429 L4.0687992,13.8617188 L-0.288591111,13.8616934 L-0.288660895,0.302231857 L-0.288660895,0.302231857 L-0.288660895,0.302231857 L-0.288660895,0.302231857 Z" fill="#FFFFFF" id="path4480"/><path d="M0.658243918,0.302206429 L3.08587784,0.302206429 L3.08587278,13.8620616 L0.658269464,13.8620616 L0.658243918,0.302206429 L0.658243918,0.302206429 L0.658243918,0.302206429 L0.658243918,0.302206429 Z" fill="#FFFFFF" id="path3825-1"/><path d="M0.658243918,1.42857143 L3.00148172,1.42857143" id="path4484"/><path d="M0.658243918,3.57142857 L3.00148172,3.57142857" id="path4486"/><path d="M0.658243918,5 L3.00148172,5" id="path4488"/><path d="M0.658243918,7.14285714 L3.00148172,7.14285714" id="path4490"/><path d="M0.658243918,8.57142857 L3.00148172,8.57142857" id="path4492"/><path d="M0.658243918,10 L3.00148172,10" id="path4494"/><path d="M0.658243918,11.4285714 L3.00148172,11.4285714" id="path4496"/></g><path d="M13.3041848,31.7307779 L15.7318187,31.7307779 L15.7318136,45.290633 L13.3042103,45.290633 L13.3041848,31.7307779 L13.3041848,31.7307779 L13.3041848,31.7307779 L13.3041848,31.7307779 Z" fill="#FFFFFF" id="path4502"/><path d="M13.3041848,32.8571429 L15.820775,32.8571429" id="path4504"/><path d="M13.3041848,35 L15.820775,35" id="path4506"/><path d="M13.3041848,36.4285714 L15.820775,36.4285714" id="path4508"/><path d="M13.3041848,38.5714286 L15.820775,38.5714286" id="path4510"/><path d="M13.3041848,40 L15.820775,40" id="path4512"/><path d="M13.3041848,41.4285714 L15.820775,41.4285714" id="path4514"/><path d="M13.3041848,42.8571429 L15.820775,42.8571429" id="path4516"/><rect fill="#FFFFFF" height="4.47921829" id="rect4518" width="0.976370839" x="21.9351576" y="26.0355101"/><rect fill="#FFFFFF" height="4.47921829" id="rect4520" width="0.976370839" x="23.9901512" y="26.0355101"/><rect fill="#FFFFFF" height="4.47921829" id="rect4522" width="0.976370839" x="26.0451447" y="26.0355101"/><rect fill="#FFFFFF" height="4.47921829" id="rect4524" width="0.976370839" x="42.8960918" y="26.0355101"/><rect fill="#FFFFFF" height="4.47921829" id="rect4526" width="0.976370839" x="44.9510853" y="26.0355101"/><rect fill="#FFFFFF" height="4.47921829" id="rect4528" width="0.976370839" x="47.0060789" y="26.0355101"/><path d="M33.1402604,3.69620339 L33.0321228,2.84763391 L37.343992,2.84763391 L37.2358543,3.69620339 L33.1402604,3.69620339 L33.1402604,3.69620339 L33.1402604,3.69620339 L33.1402604,3.69620339 Z" fill="#FFFFFF" id="path3144"/><path d="M33.1250062,2.73150081 L33.0321228,2.03402422 L36.7357886,2.03402422 L36.6429053,2.73150081 L33.1250062,2.73150081 L33.1250062,2.73150081 L33.1250062,2.73150081 L33.1250062,2.73150081 Z" fill="#FFFFFF" id="path3916"/><path d="M33.9159676,1.91789113 L33.8541202,1.22041454 L36.3202565,1.22041454 L36.2584091,1.91789113 L33.9159676,1.91789113 L33.9159676,1.91789113 L33.9159676,1.91789113 L33.9159676,1.91789113 Z" fill="#FFFFFF" id="path3918"/></g></g></g></svg>