<?xml version="1.0" ?><svg height="120px" version="1.1" viewBox="0 0 180 120" width="180px" xmlns="http://www.w3.org/2000/svg" xmlns:sketch="http://www.bohemiancoding.com/sketch/ns" xmlns:xlink="http://www.w3.org/1999/xlink"><title/><desc/><defs/><g fill="none" fill-rule="evenodd" id="Page-1" stroke="none" stroke-width="1"><g id="rectangle_south_korea"><rect fill="#FFFFFF" height="120" id="Rectangle-1" width="180" x="0" y="0"/><g id="Group" transform="translate(28.000000, 12.000000)"><path d="M1,8 L1,13 L31,13 L31,8 L1,8 Z M1,15 L1,20 L31,20 L31,15 L1,15 Z M1,22 L1,27 L31,27 L31,22 L1,22 Z" fill="#000000" id="Rectangle-4" transform="translate(16.000000, 17.500000) rotate(-56.000000) translate(-16.000000, -17.500000) "/><path d="M1,69 L1,74 L31,74 L31,69 L1,69 Z M1,76 L1,81 L15,81 L15,76 L1,76 Z M17,76 L17,81 L31,81 L31,76 L17,76 Z M1,83 L1,88 L31,88 L31,83 L1,83 Z" fill="#000000" id="Rectangle-5" transform="translate(16.000000, 78.500000) scale(-1, 1) rotate(-56.000000) translate(-16.000000, -78.500000) "/><path d="M93,8 L93,13 L107,13 L107,8 L93,8 Z M109,8 L109,13 L123,13 L123,8 L109,8 Z M93,15 L93,20 L123,20 L123,15 L93,15 Z M93,22 L93,27 L107,27 L107,22 L93,22 Z M109,22 L109,27 L123,27 L123,22 L109,22 Z" fill="#000000" id="Rectangle-5" transform="translate(108.000000, 17.500000) scale(-1, 1) rotate(-56.000000) translate(-108.000000, -17.500000) "/><path d="M93,69 L93,74 L107,74 L107,69 L93,69 Z M109,69 L109,74 L123,74 L123,69 L109,69 Z M93,76 L93,81 L107,81 L107,76 L93,76 Z M109,76 L109,81 L123,81 L123,76 L109,76 Z M93,83 L93,88 L107,88 L107,83 L93,83 Z M109,83 L109,88 L123,88 L123,83 L109,83 Z" fill="#000000" id="Rectangle-6" transform="translate(108.000000, 78.500000) scale(-1, -1) rotate(-56.000000) translate(-108.000000, -78.500000) "/><circle cx="62" cy="48" fill="#CA4638" id="Oval-2" r="30"/><g fill="#335A91" id="Oval-2-+-Oval-2" transform="translate(58.025606, 54.360361) rotate(32.000000) translate(-58.025606, -54.360361) translate(28.025606, 31.860361)"><path d="M60,15.2564103 C60,31.6833422 46.5685434,45 30,45 C13.4314567,45 -1.42108547e-14,31.6833422 -1.42108547e-14,15.2564103 C-1.42108547e-14,23.4698761 6.71572837,30.1282051 15,30.1282051 C23.2842716,30.1282051 30,23.4698761 30,15.2564103 C30,7.04294437 36.7157284,0.384615385 45,0.384615385 C53.2842712,0.384615385 60,7.04294437 60,15.2564103 C60,15.2564103 60,7.04294437 60,15.2564103 L60,15.2564103 L60,15.2564103 Z" id="Oval-2"/></g></g></g></g></svg>