<?xml version="1.0" ?><svg height="120px" version="1.1" viewBox="0 0 180 120" width="180px" xmlns="http://www.w3.org/2000/svg" xmlns:sketch="http://www.bohemiancoding.com/sketch/ns" xmlns:xlink="http://www.w3.org/1999/xlink"><title/><defs><linearGradient id="linearGradient-1" x1="-1.12201838%" x2="173.94184%" y1="49.9163207%" y2="49.9163207%"><stop offset="0%" stop-color="#002255"/><stop offset="50%" stop-color="#0044AA"/><stop offset="100%" stop-color="#002255"/></linearGradient><linearGradient id="linearGradient-2" x1="-0.00363773147%" x2="171.202742%" y1="49.9548377%" y2="49.9548377%"><stop offset="0%" stop-color="#002255"/><stop offset="50%" stop-color="#0044AA"/><stop offset="100%" stop-color="#002255"/></linearGradient><linearGradient id="linearGradient-3" x1="-0.0837146461%" x2="100.11341%" y1="49.9857948%" y2="49.9857948%"><stop offset="0%" stop-color="#002255"/><stop offset="50%" stop-color="#0044AA"/><stop offset="100%" stop-color="#002255"/></linearGradient><linearGradient id="linearGradient-4" x1="50.0243825%" x2="50.0243825%" y1="44.4918994%" y2="62.5065184%"><stop offset="0%" stop-color="#F5F549"/><stop offset="100%" stop-color="#97C924"/></linearGradient><linearGradient id="linearGradient-5" x1="50.024472%" x2="50.024472%" y1="44.4780126%" y2="62.491058%"><stop offset="0%" stop-color="#F5F549"/><stop offset="100%" stop-color="#97C924"/></linearGradient><linearGradient id="linearGradient-6" x1="50.0239266%" x2="50.0239266%" y1="44.4780126%" y2="62.491058%"><stop offset="0%" stop-color="#F5F549"/><stop offset="100%" stop-color="#97C924"/></linearGradient><linearGradient id="linearGradient-7" x1="50.0243334%" x2="50.0243334%" y1="44.4780126%" y2="62.491058%"><stop offset="0%" stop-color="#F5F549"/><stop offset="100%" stop-color="#97C924"/></linearGradient><linearGradient id="linearGradient-8" x1="50.0247202%" x2="50.0247202%" y1="44.4919919%" y2="62.5066273%"><stop offset="0%" stop-color="#F5F549"/><stop offset="100%" stop-color="#97C924"/></linearGradient><linearGradient id="linearGradient-9" x1="38.299378%" x2="55.8176394%" y1="75.2751739%" y2="17.2833752%"><stop offset="0%" stop-color="#510000"/><stop offset="29.999718%" stop-color="#8A0000"/><stop offset="100%" stop-color="#AA0000"/></linearGradient><linearGradient id="linearGradient-10" x1="61.0327894%" x2="72.9235312%" y1="65.8424718%" y2="19.6136748%"><stop offset="0%" stop-color="#FF2A2A"/><stop offset="100%" stop-color="#FF0000"/></linearGradient></defs><g fill="none" fill-rule="evenodd" id="Page-1" stroke="none" stroke-width="1"><g id="rectangle_nicaragua"><rect fill="#FFFFFF" height="120" id="Rectangle-1" width="180" x="0" y="0"/><rect fill="#4086CD" height="40" id="Rectangle-1" width="180" x="0" y="0"/><rect fill="#4086CD" height="40" id="Rectangle-1" width="180" x="0" y="80"/><g id="Group" transform="translate(72.000000, 42.000000)"><g transform="translate(5.000000, 3.000000)"><path d="M13.4999988,0 L6.82436999,10.8814365 L0,22 L13.3541926,21.9986517 L27,22 L20.3221695,11.1192623 L13.5000009,0 L13.4999988,0 L13.4999988,0 L13.4999988,0 L13.4999988,0 Z" fill="#E5B731" id="Path"/><g fill="#FFFFFF" id="Path"><path d="M13.5003534,1 L19.8201386,11.1132681 L26,21 L13.3597264,20.9993338 L1,21 L7.32190575,10.888051 L13.5003555,1 L13.5003534,1 L13.5003534,1 L13.5003534,1 L13.5003534,1 Z" id="path-3"/></g><path d="M13.5000004,0 L7.12355212,10.7410141 L4,16 L23,16 L20.0193692,10.9807273 L13.5000004,0 L13.5000004,0 L13.5000004,0 L13.5000004,0 Z" fill="#FFFFFF" id="rect4263-2"/><path d="M3.10504741,19.0002277 C2.51728479,19.0002277 1.83552303,19.1039754 1.28062531,19.1454377 L0,21 L12.8566689,20.9987703 L26,21 L24.7150529,19.1382028 C24.1841601,19.0938917 23.5235956,19.0002277 22.9604974,19.0002277 C22.9058457,19.0002277 22.8543306,19.0018162 22.8013174,19.0032508 C22.7649494,19.0025847 22.724343,19.0002277 22.6875169,19.0002277 C22.6630738,19.0002277 22.6422892,18.9997154 22.6183722,19.0002277 C22.5944546,18.9997154 22.5707888,19.0002277 22.5463462,19.0002277 C22.509451,19.0002277 22.4753952,19.0025847 22.4390273,19.0032508 C22.386014,19.0018674 22.3352199,19.0002277 22.28057,19.0002277 C21.545129,19.0002277 20.9229661,19.1621978 20.2235028,19.1623054 C19.5226622,19.1623054 18.9025296,19.0002277 18.1664363,19.0002277 C18.111784,19.0002277 18.0602707,19.0018162 18.0072575,19.0032508 C17.9708895,19.0025847 17.9375523,19.0002277 17.9006588,19.0002277 C17.8762157,19.0002277 17.8518308,18.9997154 17.8279107,19.0002277 C17.8039938,18.9997154 17.7801987,19.0002277 17.7558848,19.0002277 C17.718927,19.0002277 17.6813347,19.0025847 17.6449668,19.0032508 C17.5919535,19.0018674 17.5411594,19.0002277 17.4865095,19.0002277 C16.7511996,19.0002277 16.1295597,19.1623054 15.429443,19.1623054 C14.7293231,19.1623054 14.1078149,19.0002277 13.372376,19.0002277 C13.3177236,19.0002277 13.2633296,19.0018162 13.2103159,19.0032508 C13.1740125,19.0025847 13.1399561,19.0002277 13.1029957,19.0002277 C13.07862,19.0002277 13.0549538,18.9997154 13.0309696,19.0002277 C13.0070525,18.9997154 12.9826004,19.0002277 12.9582244,19.0002277 C12.9213309,19.0002277 12.8872077,19.0025847 12.8509065,19.0032508 C12.7978931,19.0018674 12.743432,19.0002277 12.6888466,19.0002277 C11.9534723,19.0002277 11.3347781,19.1623054 10.6353824,19.1623054 C9.93532741,19.1623054 9.31729001,19.0002277 8.58191577,19.0002277 C8.5273302,19.0002277 8.47647178,19.0018162 8.42345808,19.0032508 C8.38715457,19.0025847 8.3465503,19.0002277 8.30965679,19.0002277 C8.28521419,19.0002277 8.26442902,18.9997154 8.2405117,19.0002277 C8.21659451,18.9997154 8.19220696,19.0002277 8.16776411,19.0002277 C8.1308729,19.0002277 8.09746886,19.0025847 8.06116541,19.0032508 C8.00815427,19.0018674 7.95664127,19.0002277 7.90198881,19.0002277 C7.1658943,19.0002277 6.54582728,19.1623618 5.8449221,19.1623054 C5.14480334,19.1623054 4.52322921,19.0002277 3.78785539,19.0002277 C3.73438304,19.0002277 3.68136291,19.0019186 3.62939769,19.0032508 C3.59250443,19.0025847 3.56021639,19.0002277 3.52279901,19.0002277 C3.49743928,19.0002277 3.47135257,18.9997154 3.4464513,19.0002277 C3.42253322,18.9997154 3.3981475,19.0002277 3.37370487,19.0002277 C3.33681161,19.0002277 3.29987382,19.0025847 3.26350486,19.0032508 C3.2106226,19.0018674 3.15969912,19.0002277 3.10504741,19.0002277 L3.10504741,19.0002277 L3.10504741,19.0002277 L3.10504741,19.0002277 L3.10504741,19.0002277 Z" fill="#FFFFFF" id="path4911"/><path d="M24,19.0192189 C24,19.0192189 24.398426,19.0634809 24.5656397,19.1013584 C24.7328538,19.1392449 25,19.1769346 25,19.1769346 L24.945738,19.0323634 C24.8612956,19.0927922 24.295752,18.9759763 24,19.0192189 C24,19.0192189 24.295752,18.9759763 24,19.0192189 L24,19.0192189 L24,19.0192189 L24,19.0192189 L24,19.0192189 Z" fill="#FFFFFF" id="path4196-7"/><rect fill="#FF0000" fill-opacity="0" height="1" id="rect5577-4" width="1" x="2" y="6"/><g transform="translate(4.000000, 0.000000)"><path d="M9.50000003,0 L9,0.829341138 L9.50000003,12 L10,0.829341138 L9.50000003,0 L9.50000003,0 L9.50000003,0 L9.50000003,0 Z M9,12 L11,3.14465409 L10.1945509,2 L9,12 L9,12 L9,12 L9,12 Z M9,11 L12,3.81391599 L11.415705,3 L9,11 L9,11 L9,11 L9,11 Z M9,12 L12,5.66821393 L11.635108,5 L9,12 L9,12 L9,12 L9,12 Z M9,12 L13,6.56419401 L12.6528015,6 L9,12 L9,12 L9,12 L9,12 Z M9,12 L13,7.48985304 L12.7281292,7 L9,12 L9,12 L9,12 L9,12 Z M9,11 L14,7.42959268 L13.7158744,7 L9,11 L9,11 L9,11 L9,11 Z M9,11 L14,8.37583079 L13.7491955,8 L9,11 L9,11 L9,11 L9,11 Z M9,12 L15,9.47212371 L14.7218839,9 L9,12 L9,12 L9,12 L9,12 Z M9,12 L15,10.4439877 L14.7313517,10 L9,12 L9,12 L9,12 L9,12 Z M9,11 L16,10.3813145 L15.6844701,10 L9,11 L9,11 L9,11 L9,11 Z M9,11.6959071 L16,11.8378217 L15.6694724,11 L9,11.6959071 L9,11.6959071 L9,11.6959071 L9,11.6959071 Z M9,12 L17,13 L16.5861277,12.4208282 L9,12 L9,12 L9,12 L9,12 Z M9,12 L17,14 L16.5241433,13.3165203 L9,12 L9,12 L9,12 L9,12 Z M9,12 L19,16 L18.2764944,14.9131007 L9,12 L9,12 L9,12 L9,12 Z M9,12 L16.404814,16 L18,16 L9,12 L9,12 L9,12 L9,12 Z M9,12 L14.0392008,16 L15,16 L9,12 L9,12 L9,12 L9,12 Z M9,12 L13.2192042,16 L14,16 L9,12 L9,12 L9,12 L9,12 Z M9,12 L12.3454545,16 L13,16 L9,12 L9,12 L9,12 L9,12 Z M9,12 L11.4422028,16 L12,16 L9,12 L9,12 L9,12 L9,12 Z M9,12 L10.5337471,16 L11,16 L9,12 L9,12 L9,12 L9,12 Z M9,12 L9.65422885,16 L10,16 L9,12 L9,12 L9,12 L9,12 Z M9,12 L9.1939468,16 L9.8043088,16 L9,12 L9,12 L9,12 L9,12 Z M9.8043087,12 L9,16 L9.6103619,16 L9.8043087,12 L9.8043087,12 L9.8043087,12 L9.8043087,12 Z M9,12 L8,16 L8.34577112,16 L9,12 L9,12 L9,12 L9,12 Z M10,12 L8,16 L8.46625294,16 L10,12 L10,12 L10,12 L10,12 Z M10,12 L7,16 L7.55713119,16 L10,12 L10,12 L10,12 L10,12 Z M10,12 L6,16 L6.65535356,16 L10,12 L10,12 L10,12 L10,12 Z M10,12 L5,16 L5.78015267,16 L10,12 L10,12 L10,12 L10,12 Z M9,12 L3,16 L3.96091055,16 L9,12 L9,12 L9,12 L9,12 Z M10,12 L1,16 L2.595186,16 L10,12 L10,12 L10,12 L10,12 Z M9,12 L0.651153968,14.9131007 L0,16 L9,12 L9,12 L9,12 L9,12 Z M9,12 L1.47649975,13.3167139 L1,14 L9,12 L9,12 L9,12 L9,12 Z M10,12 L2.41391009,12.4210847 L2,13 L10,12 L10,12 L10,12 L10,12 Z M9,11.6959071 L2.33056154,11 L2,11.8378217 L9,11.6959071 L9,11.6959071 L9,11.6959071 L9,11.6959071 Z M10,11 L3.3155674,10 L3.06451255,10.3036393 L3,10.3818577 L10,11 L10,11 L10,11 L10,11 Z M9,12 L3.26867816,10 L3,10.4439877 L9,12 L9,12 L9,12 L9,12 Z M10,12 L4.27815083,9 L4,9.47212371 L10,12 L10,12 L10,12 L10,12 Z M9,11 L4.25013974,8 L4,8.37530217 L9,11 L9,11 L9,11 L9,11 Z M10,11 L5.28412553,7 L5,7.42959268 L10,11 L10,11 L10,11 L10,11 Z M9,12 L5.27191654,7 L5,7.4899216 L9,12 L9,12 L9,12 L9,12 Z M10,12 L6.34726444,6 L6,6.56555331 L10,12 L10,12 L10,12 L10,12 Z M9,12 L6.36489193,5 L6,5.66821393 L9,12 L9,12 L9,12 L9,12 Z M10,11 L7.58429496,3 L7,3.81330617 L10,11 L10,11 L10,11 L10,11 Z M10,12 L8.80544908,2 L8,3.1459712 L10,12 L10,12 L10,12 L10,12 Z" fill="#17C0EB" id="path4332-1" opacity="0.62040818" stroke="#17C0EB" stroke-width="0.5"/><path d="M9.50000106,7 C7.38075977,7 5.44286872,7.80795422 3.95426043,9.14409693 L1.14659833,14.2098515 C1.05058677,14.7425053 1,15.2919427 1,15.8536356 C1,15.9024489 1.00059666,15.9513744 1.00135113,16 L2.07347812,16 C2.07261123,15.951319 2.07212699,15.9025326 2.07212699,15.8536356 C2.07212699,11.5806247 5.39766401,8.11673185 9.50000106,8.11673185 C13.6023382,8.11673185 16.9278741,11.5806247 16.9278741,15.8536356 C16.9278741,15.9025326 16.9273985,15.951319 16.9265338,16 L17.9986597,16 C17.9994163,15.9513744 18,15.9024489 18,15.8536356 C18,15.2924631 17.949915,14.7434502 17.8540773,14.2112588 L15.0450662,9.1433933 C13.556553,7.80763693 11.6188998,7 9.50000106,7 L9.50000106,7 L9.50000106,7 L9.50000106,7 L9.50000106,7 Z" fill="#FF0000" id="path4467-0"/><path d="M9.50034456,7 C7.20623819,7 5.12422187,7.84102309 3.59495788,9.20838973 L1.2490389,12.9705485 C1.08649669,13.5781567 1,14.2134343 1,14.8675476 C1,14.9117433 1.00059219,14.9559773 1.0013759,15 L1.93767964,15 C1.93679686,14.9559461 1.93630373,14.9117969 1.93630373,14.8675476 C1.93630373,11.0006856 5.32280401,7.86603519 9.50034456,7.86603519 C13.6778851,7.86603519 17.0643842,11.0006856 17.0643842,14.8675476 C17.0643842,14.9117969 17.0638999,14.9559461 17.0630194,15 L17.9986351,15 C17.9994276,14.9559773 18,14.9117433 18,14.8675476 C18,14.2132197 17.9135822,13.5777009 17.7509633,12.9699116 L15.4050422,9.20838973 C13.8759657,7.84112717 11.7943523,7 9.50034456,7 L9.50034456,7 L9.50034456,7 L9.50034456,7 L9.50034456,7 Z" fill="#FF6600" id="path4464-3"/><path d="M9.5003515,8 C6.97689268,8 4.71047833,9.01759405 3.15364665,10.6333793 L1.42330055,13.4061765 C1.14836309,14.1797529 1,15.0064264 1,15.8651212 C1,15.9101502 1.00058758,15.9551508 1.00140166,16 L1.79614142,16 C1.79524212,15.9551391 1.79473977,15.9101811 1.79473977,15.8651212 C1.79473977,11.9274226 5.24462285,8.73534892 9.5003515,8.73534892 C13.7560802,8.73534892 17.2059622,11.9274226 17.2059622,15.8651212 C17.2059622,15.9101811 17.2054688,15.9551391 17.2045717,16 L17.9986095,16 C17.9994169,15.9551508 18,15.9101502 18,15.8651212 C18,15.0061376 17.85107,14.1793289 17.5759975,13.4055281 L15.8463522,10.6327308 C14.2897275,9.01730481 12.0234856,8 9.5003493,8 L9.5003493,8 L9.5003515,8 L9.5003515,8 L9.5003515,8 L9.5003515,8 Z" fill="#FFFF00" id="path4459-6"/><path d="M9.00000108,8 C6.22784832,8 3.78514809,9.38613431 2.34968931,11.4913295 L1.81398095,12.404294 C1.29303443,13.4479739 1,14.621666 1,15.8625929 C1,15.9084907 1.00054633,15.9542891 1.00134431,16 L1.61098983,16 C1.61012732,15.9542982 1.60964552,15.9084974 1.60964552,15.8625929 C1.60964552,11.8510829 4.9183851,8.59917425 9.00000108,8.59917425 C13.0816171,8.59917425 16.3903556,11.8510829 16.3903556,15.8625929 C16.3903556,15.9084974 16.3898824,15.9542982 16.389022,16 L16.9986665,16 C16.9994623,15.9542891 17,15.9084907 17,15.8625929 C17,14.6237662 16.7080004,13.4519318 16.1887066,12.4095789 L15.646951,11.4860446 C14.2110214,9.38375061 11.7698844,8 9.00000108,8 L9.00000108,8 L9.00000108,8 L9.00000108,8 L9.00000108,8 Z" fill="#00FF00" id="path4451-4"/><path d="M9.00034316,8 C4.58217839,8 1,11.5189532 1,15.859968 C1,15.9067689 1.00054157,15.9533935 1.00137039,16 L1.46798855,16 C1.46710931,15.9534252 1.46661816,15.9067495 1.46661816,15.859968 C1.46661816,11.7718264 4.83954574,8.45779684 9.00034316,8.45779684 C13.1611406,8.45779684 16.5340671,11.7718264 16.5340671,15.859968 C16.5340671,15.9067495 16.5335847,15.9534252 16.5327076,16 L16.9986406,16 C16.9994738,15.9533935 17,15.9067689 17,15.859968 C17,11.5189532 13.4185079,8 9.00034316,8 L9.00034316,8 L9.00034316,8 L9.00034316,8 L9.00034316,8 Z" fill="#00CCFF" id="path4366-9"/><path d="M8.99999048,8 C4.58185679,8 1,11.5179462 1,15.8572532 C1,15.9049899 1.0005344,15.9524658 1.0013975,16 L1.31863007,16 C1.31773343,15.9525222 1.31723257,15.9049414 1.31723257,15.8572532 C1.31723257,11.6898633 4.75689449,8.31157242 8.99999048,8.31157242 C13.2430865,8.31157242 16.6827474,11.6898633 16.6827474,15.8572532 C16.6827474,15.9049414 16.6822554,15.9525222 16.681361,16 L16.9985914,16 C16.9994634,15.9524658 17,15.9049899 17,15.8572532 C17,11.5179462 13.4181421,8 9.00000838,8 L9.00000838,8 L8.99999048,8 L8.99999048,8 L8.99999048,8 L8.99999048,8 Z" fill="#0000FF" id="path4495-2"/><path d="M9.50032506,8 C5.35809073,8 2,11.5166274 2,15.8544182 C2,15.90303 2.00049619,15.9515983 2.00133672,16 L2.15305422,16 C2.15219658,15.9515793 2.1517175,15.9030537 2.1517175,15.8544182 C2.1517175,11.6042531 5.44176607,8.15888013 9.50032506,8.15888013 C13.5588841,8.15888013 16.8489316,11.6042531 16.8489316,15.8544182 C16.8489316,15.9030537 16.848461,15.9515793 16.8476056,16 L16.9986526,16 C16.9994867,15.9515983 17,15.90303 17,15.8544182 C17,11.5166274 13.6425766,8 9.50034219,8 L9.50034219,8 L9.50032506,8 L9.50032506,8 L9.50032506,8 L9.50032506,8 Z" fill="#800080" id="path4436-9"/><path d="M9.0502693,9 C9.0337051,9 9.0167339,9.00062039 9,9.00093053 L9.0502693,10 L9.1005386,9.00093053 C9.0838485,9.00062039 9.0669416,9 9.0502693,9 L9.0502693,9 L9.0502693,9 L9.0502693,9 L9.0502693,9 Z M9.0932832,9 C9.062021,9.00340683 9.0308257,9.00698583 9,9.01128883 L9.2010772,10 L9.0932832,9 L9.0932832,9 L9.0932832,9 L9.0932832,9 Z M9.107794,9 L9,10 L9.2010772,9.01128883 C9.1702481,9.00698881 9.1390728,9.0034071 9.107794,9 C9.107794,9 9.1390728,9.0034071 9.107794,9 L9.107794,9 L9.107794,9 L9.107794,9 L9.107794,9 Z M8.0953753,9 C8.0634039,9.00780558 8.0316843,9.01599609 8,9.02476194 L8.3686415,10 L8.0953753,9 L8.0953753,9 L8.0953753,9 L8.0953753,9 Z M9.2732662,9 L9,10 L9.3686415,9.02476194 C9.3369754,9.0160016 9.3052317,9.00780073 9.2732662,9 C9.2732662,9 9.3052317,9.00780073 9.2732662,9 L9.2732662,9 L9.2732662,9 L9.2732662,9 L9.2732662,9 Z M8.0874707,9 C8.0581335,9.01203072 8.0287838,9.02448198 8,9.0373737 L8.502693,10 L8.0874707,9 L8.0874707,9 L8.0874707,9 L8.0874707,9 Z M9.4145381,9 L9,10 L9.502693,9.03826792 C9.4736506,9.02506442 9.4440064,9.01224893 9.4145381,9 C9.4145381,9 9.4440064,9.01224893 9.4145381,9 L9.4145381,9 L9.4145381,9 L9.4145381,9 L9.4145381,9 Z M8.0891288,9 C8.0589226,9.016549 8.0294831,9.0338796 8,9.0512614 L8.7037702,9.9718732 L8.0891288,9 L8.0891288,9 L8.0891288,9 L8.0891288,9 Z M10.6140512,9 L10,9.9718732 L10.7037702,9.0505417 C10.6743017,9.0330681 10.6441625,9.0165939 10.6140512,9 C10.6140512,9 10.6441625,9.0165939 10.6140512,9 L10.6140512,9 L10.6140512,9 L10.6140512,9 L10.6140512,9 Z M8.0768661,9 C8.0509471,9.0197718 8.0252003,9.0395546 8,9.0600919 L8.8043088,9.8713345 L8.0768661,9.0000017 L8.0768661,9 L8.0768661,9 L8.0768661,9 L8.0768661,9 Z M10.7277608,9 L10,9.8713345 L10.8043088,9.0608388 C10.7790708,9.0401122 10.7536151,9.0198673 10.7277608,9 C10.7277608,9 10.7536151,9.0198673 10.7277608,9 L10.7277608,9 L10.7277608,9 L10.7277608,9 L10.7277608,9 Z M8.069635,10 C8.0460411,10.0232632 8.0226909,10.0469257 8,10.0708299 L8.9383603,10.7707959 L8.069635,10 L8.069635,10 L8.069635,10 L8.069635,10 Z M10.8384771,10 L10,10.7707959 L10.9048474,10.0711182 C10.8830744,10.0471656 10.8610193,10.0232167 10.8384771,10 C10.8384771,10 10.8610193,10.0232167 10.8384771,10 L10.8384771,10 L10.8384771,10 L10.8384771,10 L10.8384771,10 Z M7.0540839,10 C7.03544897,10.0251509 7.01785573,10.0505412 7,10.0764093 L8,10.6367445 L7.0540839,10 L7.0540839,10 L7.0540839,10 L7.0540839,10 Z M10.9450549,10 L10,10.6367445 L11,10.0760443 C10.982023,10.0502611 10.9639033,10.0251885 10.9450549,10 C10.9450549,10 10.9639033,10.0251885 10.9450549,10 L10.9450549,10 L10.9450549,10 L10.9450549,10 L10.9450549,10 Z M7.04008218,10 C7.02617484,10.0269269 7.01297888,10.0541177 7,10.0814362 L8,10.502693 L7.04008218,10 L7.04008218,10 L7.04008218,10 L7.04008218,10 Z M10.9602447,10 L10,10.502693 L11,10.0819513 C10.987168,10.0543333 10.9739156,10.0270128 10.9602447,10.0000016 C10.9602447,10.0000016 10.9739156,10.0270128 10.9602447,10.0000016 L10.9602447,10 L10.9602447,10 L10.9602447,10 L10.9602447,10 Z M7.02649658,10 C7.01711423,10.028908 7.00848269,10.0580357 7,10.0873366 L8,10.3686416 L7.02649658,10 L7.02649658,10 L7.02649658,10 L7.02649658,10 Z M10.9734774,10 L10,10.3686416 L11,10.0873366 C10.9915071,10.0580305 10.9828696,10.0289129 10.9734774,10 C10.9734774,10 10.9828696,10.0289129 10.9734774,10 L10.9734774,10 L10.9734774,10 L10.9734774,10 L10.9734774,10 Z M7.01443701,11 C7.00927388,11.0309325 7.00428381,11.0619743 7,11.0931933 L8,11.2345901 L7.01443701,11 L7.01443701,11 L7.01443701,11 L7.01443701,11 Z M10.9864995,11 L10,11.2345901 L11,11.0931933 C10.9958521,11.0619225 10.9914995,11.0308077 10.9864995,11 C10.9864995,11 10.9914995,11.0308077 10.9864995,11 L10.9864995,11 L10.9864995,11 L10.9864995,11 L10.9864995,11 Z M7.00283396,11 C7.00157279,11.0334014 7.00033267,11.0668435 7,11.1005386 L8,11.0837822 L7.0028355,11 L7.00283396,11 L7.00283396,11 L7.00283396,11 L7.00283396,11 Z M10.9971618,11 L10,11.0837822 L11,11.1005386 C10.999667,11.0668438 10.9984227,11.0334017 10.9971633,11 C10.9971633,11 10.9984227,11.0334017 10.9971633,11 L10.9971618,11 L10.9971618,11 L10.9971618,11 L10.9971618,11 Z M8,11 L7,11.0749356 C7.00277105,11.1059007 7.00582966,11.1368018 7.00950569,11.1675644 L8,11 L8,11 L8,11 L8,11 Z M10,11 L10.9904853,11.1675644 C10.9941648,11.1368018 10.9972266,11.1059007 11,11.0749356 L10,11 L10,11 L10,11 L10,11 Z M8,11 L7,11.2152981 C7.00667865,11.2442761 7.01287302,11.2731106 7.02040814,11.3016158 L8,11 L8,11 L8,11 L8,11 Z M10,11 L10.9795919,11.3016158 C10.9871288,11.273102 10.9933186,11.2442824 11,11.2152981 L10,11 L10,11 L10,11 L10,11 Z M8,11 L7,11.354104 C7.01089233,11.3813867 7.02185276,11.4089002 7.03357064,11.4356672 L8,11 L8,11 L8,11 L8,11 Z M10,11 L10.9652707,11.4356672 C10.9773385,11.4086354 10.9888602,11.3810673 11,11.3537298 L10,11 L10,11 L10,11 L10,11 Z M10,12 L10.9514563,12.5697188 C10.96803,12.5444905 10.9843172,12.519035 11,12.4933544 L10,12 L10,12 L10,12 L10,12 Z M8,12 L7,12.493084 C7.01556282,12.5188239 7.03129929,12.5445568 7.04767057,12.5697188 L8,12 L8,12 L8,12 L8,12 Z M7.9383603,12 L7,12.602246 C7.0197855,12.6253394 7.040566,12.6478411 7.0610767,12.6702574 L7.9383603,12 L7.9383603,12 L7.9383603,12 L7.9383603,12 Z M10,12 L10.8761731,12.6702574 C10.8969301,12.6478877 10.9184984,12.6259843 10.9383603,12.6031329 L10,12 L10,12 L10,12 L10,12 Z M8.8378217,12 L8,12.7727999 C8.0232603,12.7947905 8.047005,12.8165164 8.0710207,12.8378217 L8.8378217,12 L8.8378217,12 L8.8378217,12 L8.8378217,12 Z M10,12 L10.766801,12.8378217 C10.7908131,12.8164998 10.8145801,12.7947162 10.8378216,12.7727171 L10,12 L10,12 L10,12 L10,12 Z M8.7372831,12 L8,12.8501021 C8.0271033,12.8683844 8.0539452,12.8873015 8.0817941,12.9048474 L8.7372831,12 L8.7372831,12 L8.7372831,12 L8.7372831,12 Z M10,12 L10.6551091,12.9048474 C10.6830662,12.8873966 10.7102113,12.8689736 10.7372831,12.8508886 L10,12 L10,12 L10,12 L10,12 Z M8.5697187,12 L8,12.9559748 C8.0279277,12.9712556 8.0563591,12.9857056 8.0846011,13 L8.5697187,12 L8.5697187,12 L8.5697187,12 L8.5697187,12 Z M10,12 L10.4858733,12.9718731 C10.5139584,12.9582248 10.5420922,12.944476 10.5697187,12.9299732 L10,12.0000016 L10,12 L10,12 L10,12 L10,12 Z M8.4356673,12 L8,12.9708543 C8.0303098,12.981324 8.0615979,12.9903859 8.0924143,13 L8.4356673,12.0000015 L8.4356673,12 L8.4356673,12 L8.4356673,12 L8.4356673,12 Z M9,12 L9.343253,13 C9.374074,12.990384 9.4053537,12.9813246 9.4356673,12.9708543 L9,12.0000015 L9,12 L9,12 L9,12 L9,12 Z M9.2681029,12 L9,12.9835112 C9.029367,12.9895825 9.0591352,12.994754 9.0890226,13 L9.2681029,12 L9.2681029,12 L9.2681029,12 L9.2681029,12 Z M9,12 L9.1790804,13 C9.2090092,12.9947441 9.2387008,12.989584 9.2681029,12.9835112 L9,12 L9,12 L9,12 L9,12 Z M9.1340514,12 L9,12.9933206 C9.0339527,12.9958122 9.0678578,12.9984073 9.1019708,13 L9.1340514,12 L9.1340514,12 L9.1340514,12 L9.1340514,12 Z M9,12 L9.0320807,13 C9.0661541,12.9984153 9.1001497,12.995811 9.1340515,12.9933206 L9,12.0000015 L9,12 L9,12 L9,12 L9,12 Z" fill="#FFFFFF" id="path4433-7"/></g><g id="g4092" transform="translate(0.000000, 16.000000)"><path fill="url(#linearGradient-1)" id="rect4181"/><path fill="url(#linearGradient-2)" id="path5179"/><path fill="url(#linearGradient-3)" id="path4909"/></g><g id="mountain" transform="translate(1.000000, 14.000000)"><path d="M20.9387882,4.00076467 C20.2875006,4.02464772 19.7911809,4.08644646 19.0981932,4.10013535 C19.0498003,4.10110213 19.0042649,4.10049341 18.9574806,4.10056503 C18.9517441,4.10092309 18.9462324,4.10092309 18.9405097,4.10099471 C18.9201701,4.10163923 18.8998485,4.10350117 18.8789931,4.10436054 C18.8624232,4.1047186 18.8469501,4.10496925 18.8309099,4.1052199 C18.8065788,4.10568538 18.7826006,4.10661635 18.7587831,4.10690281 C18.7349877,4.10758314 18.710279,4.10769056 18.6859521,4.10815604 C18.6729708,4.10851411 18.6609469,4.1090154 18.6484744,4.1090154 C18.6356405,4.10951669 18.6235889,4.10958831 18.6109991,4.10987476 C18.5866722,4.11034025 18.562685,4.11087735 18.5388746,4.111128 C18.5150703,4.11177252 18.4910783,4.11191574 18.4667496,4.11238123 C18.451689,4.1127751 18.4368882,4.11291833 18.4214951,4.11324059 C18.4010106,4.11324059 18.3809897,4.11227381 18.3599755,4.11238123 C18.3542449,4.11273929 18.3487278,4.11238123 18.3430051,4.11281091 C18.2962683,4.11460124 18.2508189,4.11690719 18.2022926,4.11786323 C17.5089134,4.13156286 16.8239381,4.06613691 16.1707804,4.06818147 C15.5185788,4.09207885 14.9290038,4.20733694 14.2361417,4.22102583 C14.1886635,4.22195681 14.1411714,4.22177778 14.0954274,4.2218852 C14.0884497,4.22224326 14.0818989,4.22224326 14.0749219,4.22231488 C14.0550315,4.2229594 14.0355933,4.22482134 14.0162321,4.22568071 C14.0000597,4.22603877 13.9839359,4.22628942 13.9681489,4.22654006 C13.9439538,4.22700555 13.9233706,4.22754265 13.8995597,4.2277933 C13.8757631,4.22843782 13.8517634,4.22901073 13.8274353,4.22947621 C13.8136771,4.22983428 13.8004523,4.23029976 13.786423,4.23033557 C13.7739703,4.23083686 13.7612187,4.23033557 13.7482393,4.23076525 C13.7239106,4.23123074 13.703461,4.23216171 13.67965,4.23244817 C13.6558468,4.23309268 13.6318537,4.23323591 13.6075256,4.2337014 C13.5907037,4.2342385 13.573384,4.23420269 13.5559067,4.23456076 C13.5361336,4.23456076 13.517171,4.23362978 13.4979241,4.2337014 C13.4912121,4.23405946 13.4834943,4.2337014 13.4767108,4.23413108 C13.4310095,4.2358498 13.3834187,4.23824526 13.3359971,4.2391834 C12.6430147,4.25287229 12.0522562,4.18763253 11.3999441,4.18949806 C10.748656,4.21338111 10.1610596,4.24781281 9.46813374,4.2615017 C9.41967844,4.26246848 9.37426961,4.26221783 9.32741993,4.26236106 C9.32168215,4.26271913 9.31623563,4.26271913 9.31044942,4.26279074 C9.29010219,4.26343526 9.26985617,4.26486753 9.24893127,4.26572689 C9.23236783,4.26608495 9.21695902,4.26676528 9.20084819,4.26698012 C9.17658556,4.26748141 9.1525996,4.2679469 9.12872341,4.26823335 C9.10499278,4.26891368 9.08086137,4.2690211 9.05659875,4.26948659 C9.04355345,4.26984465 9.03094704,4.27034595 9.01841511,4.27034595 C9.00564124,4.27088305 8.99352255,4.27091886 8.98093853,4.27120531 C8.95667591,4.27167079 8.93262465,4.27217209 8.90881388,4.27245854 C8.88501757,4.27310306 8.86101972,4.27367597 8.83668916,4.27414146 C8.82175668,4.27453533 8.80676475,4.27467856 8.79143445,4.27500081 C8.77094247,4.27500081 8.75091908,4.27399823 8.72991636,4.27414146 C8.724175,4.27449952 8.71866602,4.27414146 8.71294579,4.27457114 C8.66620292,4.27636147 8.62068734,4.27824848 8.57223198,4.27920094 C7.87937399,4.29288983 7.28053274,4.25458743 6.62769373,4.2564637 C5.97575619,4.28036107 5.38668561,4.36909359 4.69376206,4.38278248 C4.64530218,4.38374926 4.59983229,4.38353442 4.55304817,4.38364184 C4.54737594,4.38399991 4.5418164,4.38399991 4.53607766,4.38407152 C4.51508357,4.38471604 4.49438586,4.38614831 4.47385242,4.38700767 C4.45846086,4.38736574 4.44424162,4.38804606 4.42930484,4.3882609 C4.40497656,4.38876219 4.38099294,4.38922768 4.35718011,4.38951413 C4.3333793,4.39015865 4.31291923,4.39030188 4.28859094,4.39076737 C4.27528541,4.39112544 4.26115168,4.39159092 4.24757887,4.39159092 C4.23506305,4.39209221 4.22237494,4.39216383 4.2093952,4.39245028 C4.18506698,4.39291577 4.16108337,4.39341706 4.13727054,4.39370352 C4.11346973,4.39434804 4.09300737,4.39449126 4.06868138,4.39495675 C4.05146674,4.39549385 4.03473694,4.39585191 4.01706272,4.39620998 C3.9967653,4.39620998 3.97531414,4.3952432 3.95554462,4.39535062 C3.94980745,4.39570869 3.94353493,4.39535062 3.93786697,4.3957803 C3.89105825,4.39757064 3.84561278,4.39945049 3.79715314,4.40041011 C3.10357764,4.41410974 2.50936204,4.3487733 1.85685749,4.35072477 C1.21990584,4.37407788 1.1246895,4.42491977 0.486488362,4.49978078 L0,5 C0.569041983,4.94381575 1.42356403,4.7967291 2.13156784,4.79641758 C2.86575873,4.79605951 3.75150129,4.9041706 4.62446575,4.90568164 C5.63990764,4.90743617 6.0228143,4.77693159 6.84194644,4.72841355 C7.66107863,4.67990267 8.44504156,4.79138675 9.22842526,4.79347069 C9.85880201,4.79261133 10.8192113,4.66346382 11.628339,4.61304445 C12.437467,4.56262507 13.1791783,4.64807054 14.1544828,4.65705085 C15.1297867,4.66603475 15.2828834,4.51625543 16.4748366,4.50062224 C17.7507181,4.4838862 17.8672788,4.60546418 18.9970786,4.60546418 C19.8472387,4.63270589 20.5771083,4.50352258 21.3354725,4.4715687 C22.0938373,4.43961483 22.4455732,4.4766998 23,4.48462382 L22.6315968,4.09640429 C22.6254604,4.09640429 22.6194009,4.09676236 22.6132121,4.09683397 C21.9203494,4.11051928 21.5910283,3.9989636 20.9387882,4.00082912 C20.9387882,4.00082912 21.5910283,3.9989636 20.9387882,4.00082912 L20.9387882,4.00076467 L20.9387882,4.00076467 L20.9387882,4.00076467 L20.9387882,4.00076467 Z" fill="#97C924" id="path4909-8-8"/><path d="M17.4204366,0 C17.0870928,0 16.9850983,0.156910647 16.9850983,0.156910647 C16.4512103,2.08186182 14.6816834,4.0397557 12.5762453,4.0397557 L11,4.0397557 L11,5.99975732 C11,6.00030336 11.0021911,5.99975732 11.0033182,5.99975732 L23,5.99975732 L21.793163,4.00599393 C19.8994148,3.74229383 18.352096,1.93599214 17.8591556,0.156910647 C17.8590971,0.156910647 17.7537804,0 17.4204366,0 L17.4204366,0 L17.4204366,0 L17.4204366,0 L17.4204366,0 Z" fill="url(#linearGradient-4)" id="path4343"/><path d="M18.4067284,0 C18.2521122,0 18.1582542,0.0337550298 18.1033819,0.0663163323 C18.0513581,0.0971346804 18.0413583,0.117820354 18.0400923,0.120039679 C18.0400923,0.121272637 18.0371168,0.121889116 18.0366139,0.123178118 C17.7606083,1.11746915 17.1784717,2.11613718 16.3933028,2.87053379 C15.602184,3.63080377 14.6048682,4.14632597 13.5133779,4.14632597 L12,4.14632597 L12,6 L24,6 L22.8799661,4.12108395 C21.9556226,4.00680555 21.1105816,3.53019439 20.4233212,2.87053379 C19.6373923,2.11613718 19.056395,1.11758684 18.7800096,0.123178118 C18.7800096,0.123178118 18.7767796,0.120095722 18.7766554,0.120039679 C18.7753244,0.117797937 18.7629216,0.100553337 18.7100117,0.0694940018 C18.6541906,0.0366973166 18.5613447,0 18.4067284,0 L18.4067284,0 L18.4067284,0 L18.4067284,0 L18.4067284,0 Z" fill="#97C924" id="path4248"/><path d="M14.9429634,0.157539636 C15.4830006,2.08224332 17.271335,4.04000663 19.4027707,4.04000663 L21,4.04000663 L21,5.99975734 C21,6.00030332 20.9972747,5.99975734 20.9967652,5.99975734 L8.00329582,5.99975734 C8.00221927,5.99975734 8,6.00030332 8,5.99975734 L8,4.04000663 L9.59393349,4.04000663 C11.725369,4.04000663 13.5166187,2.08218872 14.0570997,0.157539636 C14.0570997,0.157539636 14.1625717,0 14.5000315,0 C14.8374914,0 14.9429634,0.157539636 14.9429634,0.157539636 L14.9429634,0.157539636 L14.9429634,0.157539636 L14.9429634,0.157539636 L14.9429634,0.157539636 Z" fill="url(#linearGradient-5)" id="path4339"/><path d="M14.4998411,0 C14.6567106,0 14.7509095,0.0366976589 14.8076083,0.0694946509 C14.8614179,0.100554276 14.8739395,0.117821455 14.8752233,0.1200408 L14.8787524,0.123179268 C15.1590372,1.11754123 15.74863,2.11615694 16.5460126,2.87056061 C17.3494305,3.63083769 18.3639135,4.1463647 19.4713104,4.1463647 L21,4.1463647 L21,6 L8,6 L8,4.1463647 L9.53536881,4.1463647 C10.6428301,4.1463647 11.6546156,3.63077604 12.4573277,2.87056061 C13.253939,2.11615694 13.84456,1.11754123 14.1245873,0.123179268 C14.1252295,0.121890255 14.1276062,0.121329814 14.1279903,0.1200408 C14.1293408,0.117799037 14.1395487,0.097197236 14.1923307,0.0663169517 C14.2480026,0.0337553455 14.3432284,0 14.500098,0 L14.500098,0 L14.4998411,0 L14.4998411,0 L14.4998411,0 L14.4998411,0 Z" fill="#97C924" id="path4224"/><path d="M11.9428664,0.157539636 C12.4829013,2.08224332 14.2712264,4.04000663 16.4026517,4.04000663 L18,4.04000663 L18,5.99975734 C18,6.00030332 17.9971503,5.99975734 17.9966408,5.99975734 L5.0032958,5.99975734 C5.00215414,5.99975734 5,6.00030332 5,5.99975734 L5,4.04000663 L6.5939893,4.04000663 C8.72535084,4.04000663 10.5165923,2.08218872 11.0571338,0.157539636 C11.0571338,0.157539636 11.1626054,0 11.5000635,0 C11.8375218,0 11.9429934,0.157539636 11.9429934,0.157539636 L11.9429934,0.157539636 L11.9428664,0.157539636 L11.9428664,0.157539636 L11.9428664,0.157539636 L11.9428664,0.157539636 Z" fill="url(#linearGradient-6)" id="path4335"/><path d="M11.4999358,0 C11.6567401,0 11.7509385,0.0366976589 11.8077014,0.0694946509 C11.8614464,0.100554276 11.8739676,0.117821455 11.8753802,0.1200408 L11.8787833,0.123179268 C12.1591954,1.11754123 12.7486566,2.11615694 13.546035,2.87056061 C14.3495773,3.63083769 15.363926,4.1463647 16.4714455,4.1463647 L18,4.1463647 L18,6 L5,6 L5,4.1463647 L6.53536065,4.1463647 C7.64281618,4.1463647 8.6545966,3.63077604 9.4573042,2.87056061 C10.2539118,2.11615694 10.844465,1.11754123 11.1245555,0.123179268 C11.1251971,0.121890255 11.1275732,0.121329814 11.1279585,0.1200408 C11.1292435,0.117799037 11.1394525,0.097197236 11.1921702,0.0663169517 C11.2479057,0.0337553455 11.3431312,0 11.4999358,0 L11.4999358,0 L11.4999358,0 L11.4999358,0 L11.4999358,0 Z" fill="#97C924" id="path4187"/><path d="M10,2 C9.82789415,2.53839794 9.17761854,3.33478627 8.48164274,3.98735333 C8.28406839,3.99427374 8.17943771,4.00728959 8,3.99477823 C8.42386996,3.95020503 9.41223806,2.98922825 10,2 L10,2 L10,2 L10,2 L10,2 Z" fill="#9ECB34" id="path4207"/><path d="M8.94292959,0.157539636 C9.48296396,2.08224332 11.2712896,4.04000663 13.4026511,4.04000663 L15,4.04000663 L15,5.99975734 C15,6.00030332 14.9971503,5.99975734 14.9966409,5.99975734 L2.0032958,5.99975734 C2.00221931,5.99975734 2,6.00030332 2,5.99975734 L2,4.04000663 L3.59398925,4.04000663 C5.72535098,4.04000663 7.51652885,2.08218872 8.05713368,0.157539636 C8.05713368,0.157539636 8.16260524,0 8.50006358,0 C8.837585,0 8.94299317,0.157539636 8.9429299,0.157539636 L8.9429299,0.157539636 L8.94292959,0.157539636 L8.94292959,0.157539636 L8.94292959,0.157539636 L8.94292959,0.157539636 Z" fill="url(#linearGradient-7)" id="path4545-6-5"/><path d="M8.47977234,0 C8.32339176,0 8.22948659,0.0366973166 8.17296443,0.0694940018 C8.11938664,0.100553337 8.10690424,0.117820354 8.10556012,0.120039679 L8.10216772,0.123178118 C7.82262869,1.1175308 7.23500164,2.11613718 6.44010489,2.87053379 C5.63912701,3.63080377 4.62780673,4.14638762 3.5238617,4.14638762 L2,4.14638762 L2,6 L14.9594805,6 L15,4.14638762 L13.4693529,4.14638762 C12.3654078,4.14638762 11.3162569,3.63080377 10.5160471,2.87058984 C9.72191851,2.11619322 9.13320331,1.11758684 8.85398442,0.123234161 C8.85334487,0.122001203 8.85097611,0.121384724 8.85059202,0.120095722 C8.84924759,0.117853981 8.83906988,0.0972523714 8.7865163,0.0663723756 C8.73101829,0.0338166782 8.63615291,6.16477534e-05 8.47977259,6.16477534e-05 L8.47977259,6.16477534e-05 L8.47977234,0 L8.47977234,0 L8.47977234,0 L8.47977234,0 Z" fill="#97C924" id="path4048"/><path d="M5.57245827,0 C5.23868613,0 5.13338332,0.156910647 5.13338332,0.156910647 C4.64077963,1.93090849 2.82408426,4.21913052 0.935404056,4.49089566 L0,5.99975732 L11.9966781,5.99975732 C11.9973044,5.99975732 12,6.00030336 12,5.99975732 L12,4.0397557 L10.4187038,4.0397557 C8.31101915,4.0397557 6.5423089,2.08180175 6.00827366,0.156910647 C6.00820746,0.156910647 5.90616757,1.24155591e-14 5.57245804,1.24155591e-14 L5.57245804,1.24155591e-14 L5.57245827,0 L5.57245827,0 L5.57245827,0 L5.57245827,0 Z" fill="url(#linearGradient-8)" id="path4545-6"/><path d="M5.58613242,0 C5.43134415,0 5.338395,0.0366969396 5.28244802,0.0694932876 C5.2294157,0.100552303 5.21706065,0.117819144 5.21572999,0.120038445 C5.21566484,0.120038445 5.21237209,0.123176852 5.21237209,0.123176852 C4.93567921,1.11751931 4.28900709,2.12289103 3.61737186,2.92322393 C2.94573664,3.72355683 1.69863512,4.53319846 0.845440342,4.61878168 L0,6 L12,6 L12,4.14628337 L10.4849995,4.14628337 C9.39223009,4.14628337 8.39386679,3.63070482 7.60180381,2.8705043 C6.81575977,2.11611544 6.23303811,1.11751931 5.95666186,0.123176852 C5.95634562,0.121887863 5.95362063,0.121327434 5.95330373,0.120038445 C5.95203572,0.117796727 5.94189889,0.0971953293 5.88988034,0.066315651 C5.83482054,0.0337546831 5.74085788,0 5.58613266,0 L5.58613266,0 L5.58613242,0 L5.58613242,0 L5.58613242,0 L5.58613242,0 Z" fill="#97C924" id="path4119"/><path d="M6,0 C5.8595413,1.54401052 4.71270655,3.49203609 3.41795906,3.82777629 C2.99570657,3.93720557 2.25716628,3.97528686 2,4 C4.26538763,3.19213379 5.60405599,1.29325792 6,0 L6,0 L6,0 L6,0 L6,0 Z" fill="#93BC30" id="path4078"/><path d="M6,0 C6.06701651,1.20019355 6.3706025,2.6238943 7.08125039,3.54268694 C7.34268318,3.80857911 7.67687838,4.04983275 8,3.99109766 C6.89827354,2.89515098 6.22862951,1.21705087 6,0 C6,0 6.22862951,1.21705087 6,0 L6,0 L6,0 L6,0 L6,0 Z" fill="#C6CB24" id="path4054"/><path d="M7,2 C7.41612023,3.16986388 8.47020478,4.26266801 9.55456383,4.99709862 C9.75661979,5.00410952 9.81649237,4.99776003 10,4.98507307 C9.22391155,4.50988333 7.97329596,3.83179844 7,2 L7,2 L7,2 L7,2 L7,2 Z" fill="#9ECB34" id="path4104"/><path d="M12,1 C12.4161124,2.16986388 13.4701772,3.26266801 14.5545158,3.99709862 C14.7565679,4.00410952 14.8164394,3.99776003 15,3.98507307 C14.2239261,3.50988333 12.9733343,2.83186459 12,1 C12,1 12.9733343,2.83186459 12,1 L12,1 L12,1 L12,1 L12,1 Z" fill="#9ECB34" id="path4169"/></g><g id="path3549-7-+-path3551-8-+-path3562-8" transform="translate(12.000000, 10.000000)"><path d="M0.439590629,0.020650977 C0.317449332,0.0207271022 0.126031699,0.025791247 0.0409733313,0.0230651972 C-0.00795419064,0.0214970595 -0.0162002209,0.0184850543 0.0333889199,0.0159551077 C0.147994217,0.010107886 0.264067985,0.00724072114 0.478012934,0.00412052114 C0.965787412,-0.00299325308 1.27579619,-0.000706663996 1.51890078,0.0095171872 C1.74419007,0.0185204445 1.96036194,0.0284582595 1.97967798,0.0367971222 C1.98564869,0.0393409172 2.03760997,0.0439460435 1.9476298,0.0462417433 C1.67113766,0.0532965207 1.00477451,0.0389538127 0.614774395,0.0412234355 C0.4836609,0.0419864282 0.332230866,0.0443546898 0.208492,0.0423295178 C0.112234525,0.0407540105 0.192677696,0.0372667092 0.264423,0.0357576495 C0.390001488,0.033116795 0.572350102,0.0237463958 0.547547464,0.0196880747 C0.533669605,0.0174189782 0.531136089,0.0205939237 0.439671314,0.020650977 C0.439671314,0.020650977 0.531136089,0.0205939237 0.439671314,0.020650977 L0.439590629,0.020650977 L0.439590629,0.020650977 L0.439590629,0.020650977 L0.439590629,0.020650977 Z" fill="#FF0000" id="path3549-7"/><path d="M0.0750702459,0.0111768298 C0.106137462,0.0114463588 0.229596292,0.0126247769 0.350370889,0.00977219328 C0.40249901,0.00877512162 0.460996227,0.00840432412 0.487092053,0.00808233912 C0.425481761,0.00911543462 0.381438106,0.0106685166 0.349052597,0.0112753101 C0.267286734,0.0128074246 0.14014304,0.0163218601 0.0782945017,0.0198824688 C0.016445964,0.0234430403 -0.00855393286,0.0276823786 0.00256419158,0.0281910264 C0.013682316,0.0286996741 0.0885549424,0.03182201 0.318620702,0.0339330356 C0.728704778,0.0376959583 0.806674595,0.0453029226 1.22273069,0.0453029226 C1.54849174,0.0453029226 1.49620479,0.0403806163 1.75695658,0.0414257196 C1.98294039,0.0423314116 2.1030479,0.0381782108 1.88532326,0.0356827066 C1.60849785,0.0334976998 1.05910367,0.0347876843 0.800543749,0.0358373605 C0.717078397,0.0167979414 0.789425622,0.0234826703 0.769889492,0.0152985049 C0.75033747,0.00711433962 0.644127619,0.00662387112 0.784501879,0 C0.66784099,0.00406743472 0.526704342,0.00342439422 0.379865685,0.00376258808 C0.161124529,0.00583825903 0.1848379,0.00877999178 0.0750702459,0.0111768298 C0.0750702459,0.0111768298 0.1848379,0.00877999178 0.0750702459,0.0111768298 L0.0750702459,0.0111768298 L0.0750702459,0.0111768298 Z" fill="url(#linearGradient-9)" id="path3551-8"/><path d="M0.82618657,0.00433196453 C0.582708414,0.00258591303 0.323203776,-0.00119151063 0.143591595,0.0003699977 C0.0793045565,0.00105342453 0.0849214731,0.00259036103 0.0644535695,0.00479955203 C0.0559508061,0.00739855787 -0.0564708587,0.011226219 0.0368015,0.0099741137 C0.175824753,0.00810784303 0.541967456,0.0135427744 0.664622843,0.0153616885 C0.722733149,0.0162234347 0.845576286,0.0179127112 0.883979539,0.0203378239 C0.922382555,0.0227629367 0.902635427,0.0288900864 0.892336911,0.0315182275 C0.881533068,0.0342752035 0.916477146,0.0404557964 1.03146067,0.0411956517 C1.15542825,0.0419933157 1.25010987,0.0396251704 1.29833105,0.0352059197 C1.34516287,0.0309140139 1.38051153,0.0284493194 1.45195137,0.0258776342 C1.52339121,0.0233059492 1.60526626,0.022196298 1.71964349,0.0216775327 C1.83402073,0.0211587675 2,0.0239270039 2,0.0206871332 C2,0.0185590139 1.9221531,0.0165238755 1.9552341,0.0136067024 C1.98128893,0.011309127 1.87382774,0.0117673402 1.78450179,0.0108196235 C1.57439588,0.00926728637 1.38505438,0.00877810703 1.2393587,0.0078640067 C1.09366301,0.00694990087 0.95016628,0.00522105887 0.82618657,0.00433196453 C0.82618657,0.00433196453 0.95016628,0.00522105887 0.82618657,0.00433196453 L0.82618657,0.00433196453 L0.82618657,0.00433196453 Z" fill="url(#linearGradient-10)" id="path3560-3"/><path d="M0.883118877,0.0212904214 C0.797327412,0.0201836567 0.275243823,0.0120816485 0.0842060762,0.0146162354 C0.0238343046,0.0154172082 0.000850031027,0.0145150752 2.2368844e-05,0.0130128479 C-0.000928966917,0.0115106892 0.028676604,0.00931148702 0.0483312021,0.00761568219 C0.0679858002,0.00591987735 0.0997699304,0.00268177019 0.183915584,0.000998438853 C0.364374476,-0.00261137448 0.779556458,0.00458170335 1,0.00652441202 C0.981182577,0.00923632635 0.876564169,0.0212003842 0.883118877,0.0212904214 C0.883118877,0.0212904214 0.876564169,0.0212003842 0.883118877,0.0212904214 L0.883118877,0.0212904214 L0.883118877,0.0212904214 L0.883118877,0.0212904214 L0.883118877,0.0212904214 Z" fill="#910000" id="path3562-8"/></g></g><g fill="#C8A400" id="letter"><rect height="1" id="rect5081-7" transform="translate(34.174979, 21.500000) rotate(14.748927) translate(-34.174979, -21.500000) " width="0.349957248" x="34" y="21"/><path d="M12.8600866,33 L12,35 L12.2798365,35 L12.5449766,34.3791887 L12.5461431,34.3791887 L13.4550254,34.3791887 L13.7201637,35 L14,35 L13.1399154,33 L12.8600791,33 L12.8600866,33 L12.8600866,33 L12.8600866,33 L12.8600866,33 Z M13.4999985,33 L14,34 L13,34 L13.4999985,33 L13.4999985,33 L13.4999985,33 L13.4999985,33 Z" id="path3225-4-7" transform="translate(13.000000, 34.000000) rotate(18.000000) translate(-13.000000, -34.000000) "/><path d="M32,25.5612459 L33.9675092,27 L35,25.2044206 L34.7204536,25 L33.8945499,26.4363051 L33.8733961,26.4730943 L33.8484993,26.4548891 L32.185436,25.2387619 L32,25.5612459 L32,25.5612459 L32,25.5612459 L32,25.5612459 Z" id="path4160-4-5" transform="translate(33.500000, 26.000000) rotate(-8.000000) translate(-33.500000, -26.000000) "/><path d="M3.81691581,25 L2,26.2636766 L2.24263302,26.4566562 L3.77380536,25.3917178 L2.97053207,27.0355923 L3.24879022,27.2569082 L5.44403051,26.76127 L3.94045116,27.8070204 L4.18308418,28 L6,26.7363234 L5.63144588,26.4431911 L3.4005632,26.93889 L4.23584413,25.3331958 L3.81691581,25 L3.81691581,25 L3.81691581,25 L3.81691581,25 Z" id="path4156-0" transform="translate(4.000000, 26.500000) rotate(13.000000) translate(-4.000000, -26.500000) "/><path d="M4,30 L6,30 L6,29.7158352 L4.33272836,29.7158352 L4.29865902,29.7158352 L4.29865902,29.6905279 L4.29865902,29.132321 L4.29865902,29.1070137 L4.33272836,29.1070137 L5.83182322,29.1070137 L5.83182322,28.824295 L4.33272836,28.824295 L4.29865902,28.824295 L4.29865902,28.7989877 L4.29865902,28.3101952 L4.29865902,28.2856109 L4.33272836,28.2856109 L5.93620874,28.2856109 L5.93620874,28 L4,28 L4,30 L4,30 L4,30 L4,30 Z" id="path3761-7" transform="translate(5.000000, 29.000000) rotate(50.000000) translate(-5.000000, -29.000000) "/><path d="M8.73123705,31 L8,32.8846262 L8.2687629,33 L9,31.1153738 L8.73123705,31 L8.73123705,31 L8.73123705,31 L8.73123705,31 Z" id="path3799-5" transform="translate(8.500000, 32.000000) rotate(9.000000) translate(-8.500000, -32.000000) "/><path d="M10.6105174,32 C10.3079574,32.0000019 10.0332728,32.0379109 9.78233145,32.1156906 C9.5323615,32.1931703 9.33948683,32.3064939 9.20360758,32.4562545 C9.06776945,32.6059696 9,32.7815314 9,32.9848156 C9,33.1710829 9.06133619,33.3450243 9.18251161,33.5068691 C9.30320578,33.6680635 9.47624949,33.7892792 9.70529074,33.8734635 C9.93309935,33.9571978 10.2323078,34 10.6040989,34 C10.9610981,34 11.2582844,33.945417 11.502907,33.8358641 C11.7375832,33.7307595 11.9027056,33.5789094 12,33.3796095 L11.6203023,33.3253796 C11.4254671,33.7029446 11.0090688,33.7296299 10.5646599,33.7324656 C9.8773688,33.7268084 9.40537792,33.4771339 9.39162212,32.9840926 C9.40311509,32.4410722 10.0046694,32.2762371 10.6004302,32.2675344 C11.0183959,32.2672937 11.3949884,32.3106506 11.5652732,32.5842372 L11.936718,32.5350687 C11.8429279,32.3688691 11.6888818,32.238938 11.4689709,32.1460593 C11.2380748,32.0485468 10.9537404,32.0000019 10.6105174,32 C10.6105174,32 10.9537404,32.0000019 10.6105174,32 L10.6105174,32 L10.6105174,32 L10.6105174,32 L10.6105174,32 Z" id="path3805-0" transform="translate(10.500000, 33.000000) rotate(30.000000) translate(-10.500000, -33.000000) "/><path d="M20.0736783,33 C19.8719715,33.000002 19.6888486,33.0379109 19.5215541,33.1156907 C19.3549077,33.1931703 19.2263246,33.3064938 19.1357384,33.4562545 C19.0451795,33.6059697 19,33.7815315 19,33.9848157 C19,34.1710829 19.0408907,34.3450243 19.1216743,34.506869 C19.202137,34.6680634 19.3174996,34.7892791 19.4701938,34.8734633 C19.6220662,34.9571977 19.8215385,35 20.0693992,35 C20.3073989,35 20.5055231,34.9454168 20.6686047,34.835864 C20.8250556,34.7307593 20.9351372,34.5789093 21,34.3796096 L20.7468684,34.3253797 C20.6169781,34.7029446 20.3393793,34.7296298 20.0431067,34.7324656 C19.5849126,34.7268082 19.2702518,34.4771338 19.2610813,33.9840926 C19.2687432,33.4410722 19.6697795,33.2762371 20.0669534,33.2675344 C20.3455973,33.2672933 20.5966591,33.3106506 20.7101822,33.5842372 L20.957812,33.5350686 C20.8952853,33.3688692 20.792588,33.2389381 20.6459807,33.1460594 C20.4920499,33.0485468 20.3024935,33.000002 20.0736783,33 C20.0736783,33 20.3024935,33.000002 20.0736783,33 L20.0736783,33 L20.0736783,33 L20.0736783,33 L20.0736783,33 Z" id="path3881-4" transform="translate(20.000000, 34.000000) rotate(-16.000000) translate(-20.000000, -34.000000) "/><path d="M22,33 L22,35 L24,35 L24,34.7158353 L22.3327283,34.7158353 L22.298659,34.7158353 L22.298659,34.6905279 L22.298659,34.132321 L22.298659,34.1070137 L22.3327283,34.1070137 L23.8318232,34.1070137 L23.8318232,33.824295 L22.3327283,33.824295 L22.298659,33.824295 L22.298659,33.7989877 L22.298659,33.3101951 L22.298659,33.2856109 L22.3327283,33.2856109 L23.9362087,33.2856109 L23.9362087,33 L22,33 L22,33 L22,33 L22,33 Z" id="path3919-6" transform="translate(23.000000, 34.000000) rotate(-24.000000) translate(-23.000000, -34.000000) "/><path d="M24,31.9675033 L24.9303481,34 L25.20777,33.8703125 L24.4701497,32.2588677 L24.4318028,32.1750971 L24.5244394,32.2156466 L26.6367284,33.2023151 L27,33.0324967 L26.0696519,31 L25.7915246,31.1300192 L26.5288071,32.7407309 L26.5664786,32.8230293 L26.4748852,32.7828849 L24.3625612,31.7980161 L24,31.9675033 L24,31.9675033 L24,31.9675033 L24,31.9675033 Z" id="path3953-0" transform="translate(25.500000, 32.500000) rotate(-6.000000) translate(-25.500000, -32.500000) "/><path d="M26,31.471416 L26.1503801,31.7791029 L26.8359764,31.1714861 L26.8619979,31.1484245 L26.874974,31.1749744 L27.7669418,33 L28,32.7934504 L27.1080323,30.9684248 L27.0950562,30.9418749 L27.1216411,30.9183128 L27.8106331,30.3076866 L27.6602508,30 L26,31.471416 L26,31.471416 L26,31.471416 L26,31.471416 Z" id="path4168-1" transform="translate(27.000000, 31.500000) rotate(-8.000000) translate(-27.000000, -31.500000) "/><path d="M32.2901297,26 L31,28 L31.4197547,28 L31.8174648,27.3791887 L31.8192143,27.3791887 L33.182538,27.3791887 L33.5802453,28 L34,28 L32.7098731,26 L32.2901184,26 L32.2901297,26 L32.2901297,26 L32.2901297,26 L32.2901297,26 Z M32.4999986,26 L33,27 L32,27 L32.4999986,26 L32.4999986,26 L32.4999986,26 L32.4999986,26 Z" id="path4213-3-0" transform="translate(32.500000, 27.000000) rotate(-55.000000) translate(-32.500000, -27.000000) "/><path d="M7.0921772,29.0000024 L6,30.8638897 L6.29804308,31.0088426 L6.29874987,31.0091908 L6.71481912,30.2991381 L6.72830311,30.2761283 L6.7614987,30.2922742 L7.56830532,30.6846655 C7.61881466,30.7092309 7.66794182,30.7314479 7.71600877,30.7522758 C7.74530397,30.8824109 7.89298914,31.5391342 7.95711072,31.8157377 L8.33597663,32 L8.08084622,30.8781837 C8.45139294,30.9655971 8.72840768,30.8830138 8.9191861,30.5695031 C8.92175155,30.5651018 8.92373574,30.5604253 8.92617551,30.5560056 C8.93000786,30.5500711 8.93406014,30.5441177 8.93767787,30.5379452 C8.99696714,30.4367567 9.01361331,30.3270898 8.98906941,30.2081145 C8.96458039,30.0894168 8.90269437,29.986515 8.80062597,29.8951196 C8.69851303,29.8036996 8.52495148,29.6968371 8.28144907,29.5784103 L8.1984588,29.5380474 L7.09216672,29 L7.0921772,29.0000024 L7.0921772,29.0000024 L7.0921772,29.0000024 L7.0921772,29.0000024 Z M7.4030925,29 L7.4411838,29.013669 L8.36434881,29.344969 C8.739228,29.4795031 9.13259579,29.6623468 8.95680458,29.8837219 C8.78100736,30.1050969 8.26764138,29.9611625 7.96953043,29.8555505 L7.03808822,29.521279 L7,29.50761 L7.01590864,29.4875729 L7.38762832,29.0194798 L7.4030925,29 L7.4030925,29 L7.4030925,29 L7.4030925,29 Z" id="path4162-1-8" transform="translate(7.500000, 30.500000) rotate(13.000000) translate(-7.500000, -30.500000) "/><path d="M29,29.3314999 L30.7864581,31 L31.0688775,30.7760138 L31.0695619,30.7754836 L30.3890058,30.1398629 L30.3669532,30.1192639 L30.3984089,30.0943174 L31.162923,29.4879846 C31.2107834,29.4500259 31.2553647,29.4125127 31.2979047,29.3754867 C31.4621817,29.3944878 32.2911335,29.4905156 32.6409932,29.5291899 L33,29.244464 L31.5829188,29.0830648 C31.8247175,28.7717443 31.8312224,28.4866476 31.5333861,28.19947 C31.5291607,28.1955428 31.5243967,28.1920549 31.5201028,28.188237 C31.5145472,28.1825966 31.5090542,28.1767465 31.5031356,28.1712204 C31.40615,28.0806429 31.283202,28.0264523 31.1338509,28.0070126 C30.984848,27.9876207 30.8404454,28.0083623 30.6945401,28.0702896 C30.5485932,28.1322503 30.3576811,28.2547392 30.1269429,28.437737 L30.0483053,28.5001057 L29,29.331508 L29,29.3314999 L29,29.3314999 L29,29.3314999 L29,29.3314999 Z M30,29.2907517 L30.0345559,29.2577802 L30.8720109,28.4587218 C31.2120829,28.1342402 31.6326243,27.8167775 31.9079051,28.1260875 C32.183186,28.4354033 31.7790711,28.9020178 31.5107388,29.1608101 L30.6657733,29.9670327 L30.6312206,30 L30.6063029,29.9720066 L30.0242281,29.3179644 L30,29.2907517 L30,29.2907517 L30,29.2907517 L30,29.2907517 Z" id="path5862-3" transform="translate(31.000000, 29.500000) rotate(-7.000000) translate(-31.000000, -29.500000) "/><path d="M1.86008636,23 L1,25 L1.2798363,25 L1.5449764,24.3791887 L1.54614286,24.3791887 L2.45502536,24.3791887 L2.72016348,25 L3,25 L2.13991541,23 L1.86007888,23 L1.86008636,23 L1.86008636,23 L1.86008636,23 L1.86008636,23 Z M2.49999869,23 L3,24 L2,24 L2.49999869,23 L2.49999869,23 L2.49999869,23 L2.49999869,23 Z" id="path4378-8-1" transform="translate(2.000000, 24.000000) rotate(68.000000) translate(-2.000000, -24.000000) "/><path d="M25,2.14222045 L24.2271502,4 L24,3.85777955 L24.7728498,2 L25,2.14222045 L25,2.14222045 L25,2.14222045 L25,2.14222045 Z" id="path3540-4" transform="translate(24.500000, 3.000000) rotate(-3.000000) translate(-24.500000, -3.000000) "/><path d="M14,0.063682397 L14.1684195,2 L15.4339394,1.94309928 C15.6507239,1.93335221 15.8408935,1.91314253 16.0039182,1.88373902 C16.1671531,1.85429302 16.304553,1.81601499 16.4155208,1.76894939 C16.5264582,1.72189408 16.6269135,1.65909527 16.7186322,1.58032956 C16.8093092,1.50245831 16.8820652,1.404677 16.9354197,1.28736211 C16.9883813,1.1708854 17.0092115,1.03918929 16.996268,0.890367238 C16.9810887,0.715855091 16.9206455,0.562774066 16.8162332,0.43251776 C16.7119976,0.302479378 16.5635977,0.199629605 16.3705281,0.122251138 C16.2235844,0.062684781 16.0498157,0.0251457082 15.845609,0.00881261245 L15.8446647,0.0088564158 C15.7005358,-0.00291655462 15.487093,-0.00317871627 15.2066211,0.00943242689 L14.0000091,0.0636845876 L14,0.063682397 L14,0.063682397 L14,0.063682397 L14,0.063682397 Z M14,0.0306753909 L14.0410329,0.029270174 L14.7421264,0.00526931038 C15.0069064,-0.00379503014 15.2012937,-0.00146592459 15.3313323,0.0146015152 C15.7436608,0.0830167409 15.9770908,0.258140665 15.9977249,0.438763628 C16.0183589,0.619386441 15.8970712,0.746596287 15.697673,0.842902545 C15.6217208,0.878822472 15.5189256,0.907491353 15.3911601,0.929612874 C15.2613875,0.952081024 15.0848992,0.956854621 14.864212,0.9742053 L14.1517671,0.998594783 L14.1107314,1 L14.1088278,0.983347639 L14.001954,0.0478187345 L14,0.0306753909 L14,0.0306753909 L14,0.0306753909 L14,0.0306753909 Z" id="path4150-6" transform="translate(15.500000, 1.000000) rotate(-3.000000) translate(-15.500000, -1.000000) "/><path d="M17,0 L17,2 L19,2 L19,1.71583522 L17.3327283,1.71583522 L17.298659,1.71583522 L17.298659,1.69052789 L17.298659,1.13232102 L17.298659,1.1070137 L17.3327283,1.1070137 L18.8318232,1.1070137 L18.8318232,0.824295017 L17.3327283,0.824295017 L17.298659,0.824295017 L17.298659,0.798987689 L17.298659,0.310195157 L17.298659,0.285610881 L17.3327283,0.285610881 L18.9362087,0.285610881 L18.9362087,0 L17,0 L17,0 L17,0 L17,0 Z" id="path4040-2-5"/><path d="M21.8212063,1 L21,3.14419822 L21.2920545,3.25891195 L21.9431338,1.55890349 L21.9769792,1.47052871 L22.0133114,1.56863086 L22.7963704,3.84978722 L23.1787937,4 L24,1.85580178 L23.7071969,1.74079519 L23.0564124,3.44002892 L23.0231644,3.52685193 L22.9872834,3.42981995 L22.2028836,1.14991992 L21.8212063,1 L21.8212063,1 L21.8212063,1 L21.8212063,1 Z" id="path4164-2"/><path d="M26.0736783,2 C25.8719716,2.00000186 25.6888485,2.03791086 25.5215543,2.11569053 C25.3549077,2.19317032 25.2263245,2.30649383 25.1357384,2.45625452 C25.0451796,2.60596963 25,2.7815314 25,2.98481562 C25,3.17108292 25.0408907,3.34502433 25.1216744,3.50686913 C25.2021372,3.66806352 25.3174997,3.78927919 25.4701938,3.87346349 C25.6220662,3.95719775 25.8215385,4 26.0693993,4 C26.3073988,4 26.5055229,3.94541698 26.6686047,3.83586407 C26.8250555,3.73075945 26.9351371,3.57890939 27,3.37960955 L26.7468682,3.32537961 C26.6169781,3.70294467 26.3393792,3.72962985 26.0431066,3.73246566 C25.5849126,3.72680839 25.2702519,3.47713389 25.2610814,2.98409255 C25.2687434,2.44107222 25.6697796,2.27623705 26.0669535,2.26753435 C26.3455972,2.26729371 26.596659,2.31065059 26.7101822,2.58423717 L26.957812,2.53506869 C26.8952853,2.36886907 26.7925879,2.23893797 26.6459806,2.14605929 C26.4920499,2.04854676 26.3024936,2.00000186 26.0736783,2 C26.0736783,2 26.3024936,2.00000186 26.0736783,2 L26.0736783,2 L26.0736783,2 L26.0736783,2 L26.0736783,2 Z" id="path3546-3" transform="translate(26.000000, 3.000000) rotate(32.000000) translate(-26.000000, -3.000000) "/><path d="M27.8600864,4 L27,6 L27.2798363,6 L27.5449764,5.37918871 L27.5461429,5.37918871 L28.4550254,5.37918871 L28.7201635,6 L29,6 L28.1399154,4 L27.8600789,4 L27.8600864,4 L27.8600864,4 L27.8600864,4 L27.8600864,4 Z M28.4999987,4 L29,5 L28,5 L28.4999987,4 L28.4999987,4 L28.4999987,4 L28.4999987,4 Z" id="path4340-6-4" transform="translate(28.000000, 5.000000) rotate(40.000000) translate(-28.000000, -5.000000) "/><path d="M31.8600863,8 L31,10 L31.2798363,10 L31.5449764,9.37918873 L31.5461428,9.37918873 L32.4550254,9.37918873 L32.7201635,10 L33,10 L32.1399154,8 L31.8600789,8 L31.8600863,8 L31.8600863,8 L31.8600863,8 L31.8600863,8 Z M32.4999987,8 L33,9 L32,9 L32.4999987,8 L32.4999987,8 L32.4999987,8 L32.4999987,8 Z" id="path4300-8-9" transform="translate(32.000000, 9.000000) rotate(62.000000) translate(-32.000000, -9.000000) "/><path d="M33.8925388,12.0685176 C33.8080169,11.7903379 33.6977002,11.5610719 33.5630337,11.3794548 C33.4288382,11.1984675 33.2734657,11.0835903 33.0936106,11.0324209 C32.9130021,10.9810377 32.739182,10.990526 32.5702409,11.0623537 C32.3996728,11.1348614 32.2627713,11.2571821 32.1599411,11.4293545 C32.0575047,11.6008733 32.0052279,11.811531 32.0004068,12.0648034 C31.9955621,12.3188398 32.0339621,12.5823765 32.1173601,12.8568453 C32.1789815,13.0596605 32.2615575,13.2471444 32.3654646,13.42074 C32.4112397,13.497209 32.4615384,13.570448 32.5156071,13.6411435 L32.3739508,13.7013667 L32.4646875,14 L32.7310019,13.8867815 L33.3530273,13.6223361 L33.0075559,12.4876423 L32.8023128,12.5748982 L33.0455577,13.3754795 L33.0564181,13.4112266 L33.0343826,13.4205946 L32.7649233,13.5351519 L32.755478,13.5391664 L32.7449323,13.5301948 C32.5381799,13.3165251 32.4155428,13.0283922 32.3273729,12.7431753 C32.1676202,12.1634934 32.1586908,11.6026809 32.681339,11.3741966 C33.195728,11.1721879 33.5207224,11.6622178 33.6831618,12.1608935 C33.7889892,12.5182768 33.8412639,12.8822386 33.6152998,13.1425114 L33.744702,13.3952748 C33.8366547,13.3022286 33.9056321,13.2005909 33.9462457,13.0875892 C33.989439,12.9673706 34.0066084,12.8181561 33.9977304,12.6393509 C33.988876,12.4608955 33.9539463,12.2708631 33.8927658,12.0692624 L33.8924874,12.0685204 L33.8925388,12.0685176 L33.8925388,12.0685176 L33.8925388,12.0685176 L33.8925388,12.0685176 Z" id="path4152-4"/><path d="M35.4649565,13.0000002 L33.9395947,13.1922834 C33.6564993,13.227971 33.4443293,13.2860863 33.3028355,13.3633883 C33.1615941,13.4405468 33.0712338,13.5493682 33.0276593,13.6940818 C32.9845436,13.8372786 32.9907078,14.0127284 33.054102,14.2262258 C33.0545947,14.2278859 33.0550565,14.2294499 33.0555799,14.2311219 C33.1203105,14.4444524 33.2161053,14.6086033 33.3389187,14.730882 C33.4630313,14.8544565 33.6097565,14.9333916 33.7853322,14.9706126 C33.9612249,15.007905 34.1915489,15.0102385 34.4746382,14.9745525 L36,14.7822679 L35.924302,14.5301079 L34.4357808,14.7177473 C33.76756,14.801982 33.5424858,14.5740663 33.4277118,14.184211 C33.4271884,14.1825469 33.4267573,14.1809671 33.4262338,14.1793155 C33.3071061,13.7900104 33.3839188,13.5240371 34.0521395,13.439801 L35.5406607,13.2521614 L35.4649658,13 L35.4649565,13.0000002 L35.4649565,13.0000002 L35.4649565,13.0000002 L35.4649565,13.0000002 Z" id="path3670-4"/><path d="M34.8600863,16 L34,18 L34.2798363,18 L34.5449764,17.3791887 L34.5461428,17.3791887 L35.4550253,17.3791887 L35.7201635,18 L36,18 L35.1399154,16 L34.8600788,16 L34.8600863,16 L34.8600863,16 L34.8600863,16 L34.8600863,16 Z M35.4999987,16 L36,17 L35,17 L35.4999987,16 L35.4999987,16 L35.4999987,16 L35.4999987,16 Z" id="path4258-1-1" transform="translate(35.000000, 17.000000) rotate(86.000000) translate(-35.000000, -17.000000) "/><path d="M1,13.6028275 L3.44447194,14 L4,12.344365 L3.65268267,12.2879337 L3.18957213,13.6681305 L3.18011303,13.6963336 L3.14918251,13.6913089 L2.46692007,13.5804567 L2.43598954,13.5754306 L2.44544865,13.5472272 L2.86184744,12.3062507 L2.51629272,12.2501065 L2.09989959,13.491083 L2.09043766,13.5192862 L2.05950997,13.5142598 L1.46208473,13.4171925 L1.43204117,13.4123108 L1.4415031,13.3841079 L1.88689129,12.0567188 L1.5378057,12 L1,13.6028275 L1,13.6028275 L1,13.6028275 L1,13.6028275 Z" id="path4040-9"/><path d="M1,11.1721196 L2.90332267,12 L3,11.6523284 L2.27472668,11.3368598 L2.25133421,11.3266836 L2.26207386,11.288053 L2.49091873,10.465062 C2.69741529,9.72245371 2.65532569,9.24391048 2.20030438,9.0358149 C2.10684371,8.99516591 2.01307139,8.98911109 1.91840505,9.01768874 C1.82335198,9.04639337 1.74179114,9.10209373 1.6715455,9.18424841 C1.60105417,9.26669419 1.53624547,9.38109833 1.47813625,9.52749953 C1.43613536,9.63038775 1.38464146,9.78883322 1.32575424,10.0006179 C1.32575424,10.0006179 1.38464146,9.78883322 1.32575424,10.0006179 L1,11.1721196 L1,11.1721196 L1,11.1721196 L1,11.1721196 Z M1,10.7069142 L1.01139721,10.6644114 L1.25345399,9.76169024 C1.36563517,9.34333741 1.53259876,8.89434135 1.81595292,9.02214717 C2.09929984,9.149953 1.9933024,9.71318231 1.90571138,10.0455393 L1.6611758,10.9574962 L1.64977859,11 L1.62422538,10.9884748 L1.02482188,10.7181117 L1,10.7069142 L1,10.7069142 L1,10.7069142 L1,10.7069142 Z" id="path4162-9"/><path d="M2,9.11811324 L3.19290573,9.80521146 C3.41430191,9.93273192 3.60866297,9.99647088 3.773215,9.99986066 C3.9374713,10.0032426 4.0964427,9.94507876 4.25670932,9.82342561 C4.41529187,9.70304634 4.57019418,9.52143322 4.72137241,9.26811131 C4.72254987,9.26614022 4.72367257,9.26427825 4.72482539,9.26229196 C4.87495759,9.00836393 4.95976516,8.78637608 4.98858018,8.59125398 C5.01769915,8.3940636 4.9912637,8.22909793 4.90775135,8.08977671 C4.82408838,7.95019929 4.67239536,7.81461897 4.45100191,7.68709879 L3.25809344,7 L3.08009915,7.29967799 L4.24419259,7.97018374 C4.76677598,8.27118465 4.71050413,8.63265494 4.43379997,9.09466568 C4.4326499,9.09665034 4.43147243,9.0985074 4.43034699,9.10048531 C4.15704653,9.56445429 3.86467935,9.78994134 3.34210143,9.48894101 L2.17799703,8.81843525 L2,9.11811324 L2,9.11811324 L2,9.11811324 L2,9.11811324 Z" id="path4002-2"/><path d="M5,5 L5,6.996464 L6.01074385,6.996464 C6.42431405,7.01779153 7,6.95721011 7,6.40532011 C7,5.96241564 6.64111636,5.91017394 6.64111636,5.91017394 C6.64111636,5.91017394 6.86819485,5.83780049 6.86819485,5.54872082 C6.86819255,5.45946816 6.834455,5.32441885 6.76576047,5.24179879 C6.69756104,5.15978919 6.60420631,5.10018525 6.48352322,5.06063014 C6.36337651,5.02125381 6.20042407,5.00000208 5.99426935,5 C5.99426935,5 6.20042407,5.00000208 5.99426935,5 L5,5 L5,5 L5,5 L5,5 Z M5,5 L5.02594445,5 L5.56344479,5 C5.74024785,5 5.99874837,5.01431448 5.99999551,5.43619601 C6.00124084,5.85807754 5.74327455,5.87180487 5.56344479,5.87239239 L5.02594445,5.87239239 L5,5.87239239 L5,5.83088095 L5,5.04032541 L5,5 L5,5 L5,5 L5,5 Z M5,6 L5.02361396,6 L5.51283286,6 C5.85148749,6 6,6.13078285 6,6.5 C6,6.86921715 5.84515977,7 5.51283286,7 L5.02361396,7 L5,7 L5,6.95906904 L5,6.03976145 L5,6 L5,6 L5,6 L5,6 Z" id="path4078-0-3" transform="translate(6.000000, 6.000000) rotate(-50.000000) translate(-6.000000, -6.000000) "/><path d="M8,3.20680989 L9.67351227,5 L10,4.79319011 L8.32648773,3 L8,3.20680989 L8,3.20680989 L8,3.20680989 L8,3.20680989 Z" id="path4158-7" transform="translate(9.000000, 4.000000) rotate(6.000000) translate(-9.000000, -4.000000) "/><path d="M11.0736783,2 C10.8719716,2.00000185 10.6888485,2.03791086 10.5215543,2.11569053 C10.3549077,2.19317033 10.2263246,2.30649382 10.1357384,2.45625452 C10.0451796,2.60596964 10,2.78153139 10,2.98481562 C10,3.17108292 10.0408907,3.34502432 10.1216744,3.50686912 C10.2021372,3.66806351 10.3174997,3.78927919 10.4701938,3.87346349 C10.6220662,3.95719774 10.8215385,4 11.0693993,4 C11.3073987,4 11.505523,3.94541698 11.6686047,3.83586406 C11.8250555,3.73075945 11.9351371,3.57890938 12,3.37960954 L11.7468682,3.32537961 C11.6169781,3.70294467 11.3393792,3.72962985 11.0431066,3.73246565 C10.5849125,3.72680839 10.2702519,3.47713388 10.2610814,2.98409256 C10.2687434,2.44107222 10.6697796,2.27623705 11.0669535,2.26753435 C11.3455973,2.26729371 11.5966589,2.31065059 11.7101822,2.58423716 L11.9578121,2.53506869 C11.8952853,2.36886907 11.7925878,2.23893797 11.6459806,2.14605929 C11.4920499,2.04854675 11.3024936,2.00000185 11.0736783,2 C11.0736783,2 11.3024936,2.00000185 11.0736783,2 L11.0736783,2 L11.0736783,2 L11.0736783,2 L11.0736783,2 Z" id="path4116-8" transform="translate(11.000000, 3.000000) rotate(-25.000000) translate(-11.000000, -3.000000) "/><path d="M6,4.2414756 L7.61587663,6 L9,4.65547076 L8.77041155,4.40561633 L7.66323133,5.48112113 L7.63487371,5.5086686 L7.61442896,5.48641744 L6.24858555,4 L6,4.2414756 L6,4.2414756 L6,4.2414756 L6,4.2414756 Z" id="path4485-1"/><path d="M0,15.8829767 L2.78714462,16 L2.81426666,15.7448255 L2.81458196,15.7442092 L1.75281799,15.6996279 L1.71840623,15.6981813 L1.7214331,15.66976 L1.79485999,14.9789983 C1.79946021,14.9357539 1.80191008,14.8942651 1.80321227,14.8539825 C1.94554782,14.7893182 2.66390674,14.4630968 2.96551887,14.3243728 L3,14 L1.77430878,14.5592215 C1.69619024,14.2736693 1.45949823,14.110723 0.98719254,14.0861598 C0.98062171,14.0858922 0.973997271,14.0861201 0.967467422,14.0859556 C0.958418334,14.0853374 0.949233666,14.0845745 0.940004854,14.0841861 C0.78869904,14.0778357 0.648280515,14.1038072 0.517046654,14.1613809 C0.386115481,14.2188222 0.292742757,14.2966734 0.233129124,14.3983229 C0.173509186,14.5000113 0.130656863,14.6562773 0.10849763,14.8647562 L0.100939907,14.93581 L0.000255392411,15.8829811 L0,15.8829767 L0,15.8829767 L0,15.8829767 L0,15.8829767 Z M2.57483669e-05,14.9716828 L0.00308342173,14.9502996 L0.0778451362,14.4320507 C0.108199783,14.2216 0.200615535,13.9881216 0.599773825,14.0004695 C0.998928897,14.0128206 1.0159199,14.2887841 0.993775909,14.4557219 L0.918347947,14.9786178 L0.915258088,15 L0.879126047,14.9988835 L0.0351181791,14.9727677 L0,14.9716825 L2.57483669e-05,14.9716828 L2.57483669e-05,14.9716828 L2.57483669e-05,14.9716828 L2.57483669e-05,14.9716828 Z" id="path5882-4"/><path d="M30.7592681,5.00000491 L29,6.25808594 L29.21135,6.48033228 L29.211839,6.48086351 L29.8820368,6.001595 L29.9037578,5.98606421 L29.9272961,6.01081879 L30.4994234,6.61244459 C30.5352391,6.65010894 30.5707665,6.68529213 30.6059002,6.71892876 C30.5790236,6.84105375 30.4432585,7.45730392 30.3878221,7.71748397 L30.6564849,8 L30.8858032,6.94639261 C31.1867246,7.14240079 31.4725142,7.16092469 31.7748564,6.95160906 C31.7789978,6.94863401 31.7827248,6.94523177 31.7867581,6.94220003 C31.7926832,6.93830961 31.7988142,6.93447436 31.8046415,6.9303083 C31.9001484,6.86200719 31.9603723,6.77251734 31.9869786,6.6615926 C32.0135206,6.55092614 31.9995701,6.44178008 31.9443601,6.329538 C31.8891166,6.21726022 31.7752708,6.06841047 31.6025987,5.88683453 L31.5437467,5.82494933 L30.7592501,5 L30.7592681,5.00000491 L30.7592681,5.00000491 L30.7592681,5.00000491 L30.7592681,5.00000491 Z M30.3835032,5 L30.3994571,5.01771274 L30.786112,5.44701077 C30.9431258,5.62133996 31.0941658,5.83474437 30.9269172,5.96102955 C30.7596651,6.08731326 30.5313845,5.87805538 30.4060728,5.74042886 L30.0159522,5.30728091 L30,5.28956881 L30.015136,5.27813789 L30.3687876,5.01111328 L30.3835032,5 L30.3835032,5 L30.3835032,5 L30.3835032,5 Z" id="path5884-6"/><rect height="1" id="rect5026-8" transform="translate(1.174979, 20.500000) rotate(165.251073) translate(-1.174979, -20.500000) " width="0.349957248" x="1" y="20"/></g></g></g></g></svg>