<?xml version="1.0" ?><svg height="120px" version="1.1" viewBox="0 0 180 120" width="180px" xmlns="http://www.w3.org/2000/svg" xmlns:sketch="http://www.bohemiancoding.com/sketch/ns" xmlns:xlink="http://www.w3.org/1999/xlink"><title/><desc/><defs/><g fill="none" fill-rule="evenodd" id="Page-1" stroke="none" stroke-width="1"><g id="Slices" transform="translate(-10.000000, -311.000000)"/><g id="rectangle_qatar"><rect fill="#FFFFFF" height="120" id="Rectangle-1" width="180" x="0" y="0"/><path d="M180,0 L180,120 L84.4448242,120 L61,120 L83,113.333333 L61,106.666667 L83,100 L61,93.3333333 L83,86.6666667 L61,80 L83,73.3333333 L61,66.6666667 L83,60 L61,53.3333333 C61,53.3333333 83.0003949,46.6668665 83,46.6666667 L61,40 L83,33.3333333 L61,26.6666667 L83,20 L61,13.3333333 L83,6.66666667 L61,0 L84,0 L180,0 Z" fill="#C02B53" id="Rectangle-14-3"/></g></g></svg>