<?xml version="1.0" ?><svg height="120px" version="1.1" viewBox="0 0 180 120" width="180px" xmlns="http://www.w3.org/2000/svg" xmlns:sketch="http://www.bohemiancoding.com/sketch/ns" xmlns:xlink="http://www.w3.org/1999/xlink"><title/><defs/><g fill="none" fill-rule="evenodd" id="Africa,-Middle-East-and-India" stroke="none" stroke-width="1"><g id="Africa,-Middle-Eest-and-India" transform="translate(-1000.000000, -1401.000000)"><g id="Swaziland" transform="translate(1000.000000, 1401.000000)"><rect d="M0,0 L0,120 L180,120 L180,0 L0,0 Z M0,0" fill="#E5B731" height="120" id="Rectangle-3-copy-5" width="180" x="0" y="0"/><rect d="M0,95 L0,120 L179.994476,120 L179.994476,95 L0,95 Z M0,95" fill="#346DA6" height="25" id="Rectangle-3-copy-2" width="179.994476" x="0" y="95"/><rect d="M0,30 L0,90 L180,90 L180,30 L0,30 Z M0,30" fill="#CA4638" height="60" id="Rectangle-3-copy-3" width="180" x="0" y="30"/><rect d="M0,0 L0,25 L179.994476,25 L179.994476,0 L0,0 Z M0,0" fill="#346DA6" height="25" id="Rectangle-3" width="179.994476" x="0" y="0"/><g id="Flag_of_Swaziland" transform="translate(24.000000, 35.000000)"><rect d="M2.00527604,22 C0.897792663,22 0,22.8877296 0,24 L0,24 C0,25.1045695 0.888744104,26 2.00527604,26 L128.994724,26 C130.102207,26 131,25.1122704 131,24 L131,24 C131,22.8954305 130.111256,22 128.994724,22 L2.00527604,22 Z M2.00527604,22" fill="#FFD900" height="4" id="Rectangle" rx="3" stroke="#000000" width="131" x="0" y="22"/><g id="Group" stroke="#000000" transform="translate(13.000000, 17.000000)"><path d="M98.5000423,0 L91,2.5 L98.5000423,5 L106,2.5 L98.5000423,0 L98.5000423,0 L98.5000423,0 L98.5000423,0 Z M98.5000423,0" fill="#FFFFFF" id="Shape" stroke-width="1.26485738"/><rect d="M0.500365376,1 C0.22402121,1 0,1.23193359 0,1.5 L0,1.5 C0,1.77614237 0.219544379,2 0.500365376,2 L92.4996346,2 C92.7759788,2 93,1.76806641 93,1.5 L93,1.5 C93,1.22385763 92.7804556,1 92.4996346,1 L0.500365376,1 Z M0.500365376,1" fill="#FFD900" height="1" id="Rectangle" rx="2" transform="translate(46.500000, 1.500000) scale(1, -1) translate(-46.500000, -1.500000) " width="93" x="0" y="1"/><path d="M91,2 C90.5007052,2 90,1.74996472 90,1.5 C90,1.25003528 90.5007052,1 91,1" id="Shape" stroke-width="1.25992735" transform="translate(90.500000, 1.500000) scale(-1, 1) translate(-90.500000, -1.500000) "/><path d="M90,2 C89.5007052,2 89,1.74996472 89,1.5 C89,1.25003528 89.5007052,1 90,1" id="Shape" stroke-width="1.25992735" transform="translate(89.500000, 1.500000) scale(-1, 1) translate(-89.500000, -1.500000) "/><path d="M89,2 C88.5007052,2 88,1.74996472 88,1.5 C88,1.25003528 88.5007052,1 89,1" id="Shape" stroke-width="1.25992735" transform="translate(88.500000, 1.500000) scale(-1, 1) translate(-88.500000, -1.500000) "/></g><g id="Group-copy" stroke="#000000" transform="translate(22.000000, 13.000000)"><path d="M98.5000423,0 L91,2.5 L98.5000423,5 L106,2.5 L98.5000423,0 L98.5000423,0 L98.5000423,0 L98.5000423,0 Z M98.5000423,0" fill="#FFFFFF" id="Shape" stroke-width="1.26485738"/><rect d="M0.500365376,1 C0.22402121,1 0,1.23193359 0,1.5 L0,1.5 C0,1.77614237 0.219544379,2 0.500365376,2 L92.4996346,2 C92.7759788,2 93,1.76806641 93,1.5 L93,1.5 C93,1.22385763 92.7804556,1 92.4996346,1 L0.500365376,1 Z M0.500365376,1" fill="#FFD900" height="1" id="Rectangle" rx="2" transform="translate(46.500000, 1.500000) scale(1, -1) translate(-46.500000, -1.500000) " width="93" x="0" y="1"/><path d="M91,2 C90.5007052,2 90,1.74996472 90,1.5 C90,1.25003528 90.5007052,1 91,1" id="Shape" stroke-width="1.25992735" transform="translate(90.500000, 1.500000) scale(-1, 1) translate(-90.500000, -1.500000) "/><path d="M90,2 C89.5007052,2 89,1.74996472 89,1.5 C89,1.25003528 89.5007052,1 90,1" id="Shape" stroke-width="1.25992735" transform="translate(89.500000, 1.500000) scale(-1, 1) translate(-89.500000, -1.500000) "/><path d="M89,2 C88.5007052,2 88,1.74996472 88,1.5 C88,1.25003528 88.5007052,1 89,1" id="Shape" stroke-width="1.25992735" transform="translate(88.500000, 1.500000) scale(-1, 1) translate(-88.500000, -1.500000) "/></g><g id="Group" transform="translate(22.000000, 0.000000)"><path d="M82,25.0007056 C73.8,33.3333333 62.8661524,50 41,50 C21.8661524,50 8.2,33.3333333 0,25.0007056 C8.2,16.6666667 21.8661524,0 41,0 C62.8661524,0 73.8,16.6666667 82,25.0007056 C82,25.0007056 73.8,16.6666667 82,25.0007056 L82,25.0007056 L82,25.0007056 Z M82,25.0007056" fill="#FFFFFF" id="Shape" stroke="#000000" stroke-width="1.26342044"/><path d="M37.7782806,8.69743593 C39.9393014,11.1909445 38.1348338,12.1961936 40.4222452,12.3598781 C42.8345191,12.5416244 41.4671462,14.9946352 43.4962744,15.0798641 C44.9148454,15.1433624 43.3546007,20.9572689 44.7202924,22.8756238 C46.111354,24.8756799 47.2763796,23.4616428 47.3008325,24.9065824 C47.3249796,26.4009097 43.5147668,26.250207 43.44798,30.8536943 C43.336261,33.5065132 40.2325828,33.6764065 40.0844902,35.3833825 C39.9003297,36.9889023 46.1989258,37.8902963 46.115022,39.3276162 C46.0286728,40.7605617 39.3139197,40.5362009 39.0215553,42.1703655 C38.8716288,43.6381646 48.2462408,44.8412461 49,49.0864618 C47.601144,49.555785 43.6212896,49.9975922 40.6131303,49.9999911 C21.6621701,50.0141018 8.12293172,33.3323867 0,24.9999955 C8.12293172,16.6661933 21.6606418,0 40.6146586,0 C40.6146586,0 34.9885159,5.27374743 37.7798089,8.69602486 C37.7798089,8.69602486 34.9885159,5.27374743 37.7798089,8.69602486 L37.7782806,8.69743593 L37.7782806,8.69743593 Z M37.7782806,8.69743593" fill="#000000" id="Shape"/><path d="M14,17 L14,22 L16,22 L16,17 L14,17 Z M14,28 L14,33 L16,33 L16,28 L14,28 Z M19,17 L19,22 L21,22 L21,17 L19,17 Z M19,28 L19,33 L21,33 L21,28 L19,28 Z M23,17 L23,22 L25,22 L25,17 L23,17 Z M23,28 L23,33 L25,33 L25,28 L23,28 Z M28,17 L28,22 L30,22 L30,17 L28,17 Z M28,28 L28,33 L30,33 L30,28 L28,28 Z M32,17 L32,22 L34,22 L34,17 L32,17 Z M32,28 L32,33 L34,33 L34,28 L32,28 Z M37,17 L37,22 L39,22 L39,17 L37,17 Z M37,28 L37,33 L39,33 L39,28 L37,28 Z M37,28" fill="#FFFFFF" id="Rectangle"/><path d="M46,17 L46,22 L47,22 L47,17 L46,17 Z M46,28 L46,33 L47,33 L47,28 L46,28 Z M50,17 L50,22 L51,22 L51,17 L50,17 Z M50,28 L50,33 L51,33 L51,28 L50,28 Z M54,17 L54,22 L55,22 L55,17 L54,17 Z M54,28 L54,33 L55,33 L55,28 L54,28 Z M58,17 L58,22 L59,22 L59,17 L58,17 Z M58,28 L58,33 L59,33 L59,28 L58,28 Z M62,17 L62,22 L63,22 L63,17 L62,17 Z M62,28 L62,33 L63,33 L63,28 L62,28 Z M67,17 L67,22 L68,22 L68,17 L67,17 Z M67,28 L67,33 L68,33 L68,28 L67,28 Z M67,28" fill="#000000" id="Rectangle"/></g><g id="leaf" transform="translate(43.000000, 4.000000)"><path d="M6.43541882,5.5994484e-05 C5.24099857,2.32233389 8.52667265,-0.772219929 13.677409,3.11540244 C14.6319161,3.83765662 16,6.69139683 16,8.01398654 C14.903346,7.77948164 12.9613143,6.69128484 12.9613143,6.69128484 C12.9613143,6.69128484 15.2403822,8.98612545 15.2403822,11.6314915 C14.4350972,11.1255254 14.0322403,11.2013979 13.7646696,10.5798218 C13.7646696,11.4363321 14.4807643,11.9820357 14.4807643,13.3047 C13.899527,12.8385086 13.4074799,12.5277019 12.9156472,12.2548408 C13.675265,13.5775425 11.5312688,16.143471 12.6043389,17 C10.7279135,16.7271389 8.80796495,15.5218949 8.04834711,14.1991559 C7.64570464,14.472017 7.60196712,14.9002815 7.58631594,15.3568979 C7.64549024,15.406229 4.73008429,13.1813255 4.9978694,12.326663 C4.60680451,12.8782834 4.55170381,13.1813442 4.46251357,13.8029389 C3.3913731,12.7410595 2.40985166,11.6792548 2.05266191,10.3064567 C1.57669476,10.9280328 1.54689322,10.9280328 1.07092607,11.5496276 C0.713950715,9.37405523 0.713950715,9.45170091 1.42790143,7.5870846 C0.92213274,7.92377943 0.50555429,8.2604556 0,8.67485211 C0.478968738,5.52422914 2.92183794,1.82971309 6.43541882,0 C6.43541882,0 2.92183794,1.82971309 6.43541882,0 L6.43541882,5.5994484e-05 L6.43541882,5.5994484e-05 Z M6.43541882,5.5994484e-05" fill="#3D5DA7" id="Shape" stroke="#000000" stroke-width="0.829638517"/><path d="M5.07927986,11.3857428 C5.26609223,9.88774314 5.60625576,9.35262061 5.72764329,8.38808359 C5.94358951,6.69191111 5.76829465,5.41619115 6.26803309,5.50208064 C6.76778189,5.58797191 6.89640799,6.23619861 6.60690036,7.92066665 C6.31740578,9.60505871 6.0985722,9.9982085 5.07927986,11.3857428 C5.07927986,11.3857428 6.0985722,9.9982085 5.07927986,11.3857428 L5.07927986,11.3857428 Z M3.13747044,6.88876968 C3.83117064,5.54799311 4.33551017,5.16366385 4.78320622,4.30074157 C5.57282415,2.7841212 5.84986672,1.52656917 6.2889984,1.78010196 C6.72813919,2.03364001 6.62447651,2.68632415 5.76989368,4.16650502 C4.9153494,5.64661915 4.57397644,5.93973925 3.13747044,6.88876968 C3.13747044,6.88876968 4.57397644,5.93973925 3.13747044,6.88876968 L3.13747044,6.88876968 Z M11.0727647,15.3327394 C10.287845,14.0432423 10.221626,13.4126217 9.71709258,12.5816508 C8.83179677,11.1188162 7.90142579,10.2285356 8.34625838,9.98514396 C8.79110019,9.74174731 9.29482833,10.1695329 10.1152283,11.6689298 C10.9355912,13.1682591 11.0085875,13.6122484 11.0727647,15.3327394 C11.0727647,15.3327394 11.0085875,13.6122484 11.0727647,15.3327394 Z M13.1900804,7.27511581 C12.2164173,5.86955045 11.7837835,4.65669528 11.3799317,4.96332088 C10.9760716,5.26995284 11.160805,5.90447321 12.1943477,7.2657361 C13.2278438,8.62693761 13.6032959,8.87491062 15.1475219,9.63620851 C14.291081,8.39306297 13.7425064,8.07504837 13.1900804,7.27511581 Z M12.1217033,2.23187358 C10.8022653,1.14434546 10.0558816,0.0950118686 9.75072188,0.499972454 C9.44555587,0.904941432 9.79600188,1.46523612 11.1610023,2.49383768 C12.5259411,3.52239286 12.9547077,3.6588263 14.6478342,3.9711258 C13.4853966,3.00798473 12.8709802,2.85126893 12.1217033,2.23187358 Z M12.1217033,2.23187358" fill="#A70000" id="Shape"/></g><g id="leaf" transform="translate(4.000000, 25.000000)"><path d="M6.43541882,5.5994484e-05 C5.24099857,2.32233389 8.52667265,-0.772219929 13.677409,3.11540244 C14.6319161,3.83765662 16,6.69139683 16,8.01398654 C14.903346,7.77948164 12.9613143,6.69128484 12.9613143,6.69128484 C12.9613143,6.69128484 15.2403822,8.98612545 15.2403822,11.6314915 C14.4350972,11.1255254 14.0322403,11.2013979 13.7646696,10.5798218 C13.7646696,11.4363321 14.4807643,11.9820357 14.4807643,13.3047 C13.899527,12.8385086 13.4074799,12.5277019 12.9156472,12.2548408 C13.675265,13.5775425 11.5312688,16.143471 12.6043389,17 C10.7279135,16.7271389 8.80796495,15.5218949 8.04834711,14.1991559 C7.64570464,14.472017 7.60196712,14.9002815 7.58631594,15.3568979 C7.64549024,15.406229 4.73008429,13.1813255 4.9978694,12.326663 C4.60680451,12.8782834 4.55170381,13.1813442 4.46251357,13.8029389 C3.3913731,12.7410595 2.40985166,11.6792548 2.05266191,10.3064567 C1.57669476,10.9280328 1.54689322,10.9280328 1.07092607,11.5496276 C0.713950715,9.37405523 0.713950715,9.45170091 1.42790143,7.5870846 C0.92213274,7.92377943 0.50555429,8.2604556 0,8.67485211 C0.478968738,5.52422914 2.92183794,1.82971309 6.43541882,0 C6.43541882,0 2.92183794,1.82971309 6.43541882,0 L6.43541882,5.5994484e-05 L6.43541882,5.5994484e-05 Z M6.43541882,5.5994484e-05" fill="#3D5DA7" id="Shape" stroke="#000000" stroke-width="0.829638517"/><path d="M5.07927986,11.3857428 C5.26609223,9.88774314 5.60625576,9.35262061 5.72764329,8.38808359 C5.94358951,6.69191111 5.76829465,5.41619115 6.26803309,5.50208064 C6.76778189,5.58797191 6.89640799,6.23619861 6.60690036,7.92066665 C6.31740578,9.60505871 6.0985722,9.9982085 5.07927986,11.3857428 C5.07927986,11.3857428 6.0985722,9.9982085 5.07927986,11.3857428 L5.07927986,11.3857428 Z M3.13747044,6.88876968 C3.83117064,5.54799311 4.33551017,5.16366385 4.78320622,4.30074157 C5.57282415,2.7841212 5.84986672,1.52656917 6.2889984,1.78010196 C6.72813919,2.03364001 6.62447651,2.68632415 5.76989368,4.16650502 C4.9153494,5.64661915 4.57397644,5.93973925 3.13747044,6.88876968 C3.13747044,6.88876968 4.57397644,5.93973925 3.13747044,6.88876968 L3.13747044,6.88876968 Z M11.0727647,15.3327394 C10.287845,14.0432423 10.221626,13.4126217 9.71709258,12.5816508 C8.83179677,11.1188162 7.90142579,10.2285356 8.34625838,9.98514396 C8.79110019,9.74174731 9.29482833,10.1695329 10.1152283,11.6689298 C10.9355912,13.1682591 11.0085875,13.6122484 11.0727647,15.3327394 C11.0727647,15.3327394 11.0085875,13.6122484 11.0727647,15.3327394 Z M13.1900804,7.27511581 C12.2164173,5.86955045 11.7837835,4.65669528 11.3799317,4.96332088 C10.9760716,5.26995284 11.160805,5.90447321 12.1943477,7.2657361 C13.2278438,8.62693761 13.6032959,8.87491062 15.1475219,9.63620851 C14.291081,8.39306297 13.7425064,8.07504837 13.1900804,7.27511581 Z M12.1217033,2.23187358 C10.8022653,1.14434546 10.0558816,0.0950118686 9.75072188,0.499972454 C9.44555587,0.904941432 9.79600188,1.46523612 11.1610023,2.49383768 C12.5259411,3.52239286 12.9547077,3.6588263 14.6478342,3.9711258 C13.4853966,3.00798473 12.8709802,2.85126893 12.1217033,2.23187358 Z M12.1217033,2.23187358" fill="#A70000" id="Shape"/></g><g id="leaf" transform="translate(112.000000, 25.000000)"><path d="M6.43541882,5.5994484e-05 C5.24099857,2.32233389 8.52667265,-0.772219929 13.677409,3.11540244 C14.6319161,3.83765662 16,6.69139683 16,8.01398654 C14.903346,7.77948164 12.9613143,6.69128484 12.9613143,6.69128484 C12.9613143,6.69128484 15.2403822,8.98612545 15.2403822,11.6314915 C14.4350972,11.1255254 14.0322403,11.2013979 13.7646696,10.5798218 C13.7646696,11.4363321 14.4807643,11.9820357 14.4807643,13.3047 C13.899527,12.8385086 13.4074799,12.5277019 12.9156472,12.2548408 C13.675265,13.5775425 11.5312688,16.143471 12.6043389,17 C10.7279135,16.7271389 8.80796495,15.5218949 8.04834711,14.1991559 C7.64570464,14.472017 7.60196712,14.9002815 7.58631594,15.3568979 C7.64549024,15.406229 4.73008429,13.1813255 4.9978694,12.326663 C4.60680451,12.8782834 4.55170381,13.1813442 4.46251357,13.8029389 C3.3913731,12.7410595 2.40985166,11.6792548 2.05266191,10.3064567 C1.57669476,10.9280328 1.54689322,10.9280328 1.07092607,11.5496276 C0.713950715,9.37405523 0.713950715,9.45170091 1.42790143,7.5870846 C0.92213274,7.92377943 0.50555429,8.2604556 0,8.67485211 C0.478968738,5.52422914 2.92183794,1.82971309 6.43541882,0 C6.43541882,0 2.92183794,1.82971309 6.43541882,0 L6.43541882,5.5994484e-05 L6.43541882,5.5994484e-05 Z M6.43541882,5.5994484e-05" fill="#3D5DA7" id="Shape" stroke="#000000" stroke-width="0.829638517"/><path d="M5.07927986,11.3857428 C5.26609223,9.88774314 5.60625576,9.35262061 5.72764329,8.38808359 C5.94358951,6.69191111 5.76829465,5.41619115 6.26803309,5.50208064 C6.76778189,5.58797191 6.89640799,6.23619861 6.60690036,7.92066665 C6.31740578,9.60505871 6.0985722,9.9982085 5.07927986,11.3857428 C5.07927986,11.3857428 6.0985722,9.9982085 5.07927986,11.3857428 L5.07927986,11.3857428 Z M3.13747044,6.88876968 C3.83117064,5.54799311 4.33551017,5.16366385 4.78320622,4.30074157 C5.57282415,2.7841212 5.84986672,1.52656917 6.2889984,1.78010196 C6.72813919,2.03364001 6.62447651,2.68632415 5.76989368,4.16650502 C4.9153494,5.64661915 4.57397644,5.93973925 3.13747044,6.88876968 C3.13747044,6.88876968 4.57397644,5.93973925 3.13747044,6.88876968 L3.13747044,6.88876968 Z M11.0727647,15.3327394 C10.287845,14.0432423 10.221626,13.4126217 9.71709258,12.5816508 C8.83179677,11.1188162 7.90142579,10.2285356 8.34625838,9.98514396 C8.79110019,9.74174731 9.29482833,10.1695329 10.1152283,11.6689298 C10.9355912,13.1682591 11.0085875,13.6122484 11.0727647,15.3327394 C11.0727647,15.3327394 11.0085875,13.6122484 11.0727647,15.3327394 Z M13.1900804,7.27511581 C12.2164173,5.86955045 11.7837835,4.65669528 11.3799317,4.96332088 C10.9760716,5.26995284 11.160805,5.90447321 12.1943477,7.2657361 C13.2278438,8.62693761 13.6032959,8.87491062 15.1475219,9.63620851 C14.291081,8.39306297 13.7425064,8.07504837 13.1900804,7.27511581 Z M12.1217033,2.23187358 C10.8022653,1.14434546 10.0558816,0.0950118686 9.75072188,0.499972454 C9.44555587,0.904941432 9.79600188,1.46523612 11.1610023,2.49383768 C12.5259411,3.52239286 12.9547077,3.6588263 14.6478342,3.9711258 C13.4853966,3.00798473 12.8709802,2.85126893 12.1217033,2.23187358 Z M12.1217033,2.23187358" fill="#A70000" id="Shape"/></g></g></g></g></g></svg>