<?xml version="1.0" ?><svg height="120px" version="1.1" viewBox="0 0 180 120" width="180px" xmlns="http://www.w3.org/2000/svg" xmlns:sketch="http://www.bohemiancoding.com/sketch/ns" xmlns:xlink="http://www.w3.org/1999/xlink"><title/><desc/><defs/><g fill="none" fill-rule="evenodd" id="Page-1" stroke="none" stroke-width="1"><g id="Slices" transform="translate(-10.000000, -310.000000)"/><g id="rectangle_iran"><rect fill="#FFFFFF" height="120" id="Rectangle-326" width="180" x="0" y="0"/><rect fill="#57BB63" height="40" id="Rectangle-1" width="180" x="0" y="0"/><rect fill="#BF3126" height="40" id="Rectangle-1-copy" width="180" x="0" y="80"/><g fill="#FFFFFF" id="Rectangle-+-Rectangle" transform="translate(1.000000, 33.000000)"><path d="M0,2 L0,5 L1,5 L1,3 L4,3 L4,5 L9,5 L9,2 L6.02069092,2 L6.02069092,3 L8,3 L8,4 L5,4 L5,2 L0,2 Z M15,0 L15,2 L10,2 L10,5 L13,5 L13,4 L11,4 L11,3 L15,3 L15,5 L20,5 L20,0 L19,0 L19,4 L18,4 L18,0 L17,0 L17,4 L16,4 L16,0 L15,0 Z M0,-0.1 L0,0.9 L14,0.9 L14,-0.1 L0,-0.1 Z M0,6 L0,7 L9,7 L9,6 L0,6 Z M10,6 L10,7 L20,7 L20,6 L10,6 Z M21,2 L21,5 L22,5 L22,3 L25,3 L25,5 L30,5 L30,2 L27.0206909,2 L27.0206909,3 L29,3 L29,4 L26,4 L26,2 L21,2 Z M36,0 L36,2 L31,2 L31,5 L34,5 L34,4 L32,4 L32,3 L36,3 L36,5 L41,5 L41,0 L40,0 L40,4 L39,4 L39,0 L38,0 L38,4 L37,4 L37,0 L36,0 Z M21,-0.1 L21,0.9 L35,0.9 L35,-0.1 L21,-0.1 Z M21,6 L21,7 L30,7 L30,6 L21,6 Z M31,6 L31,7 L41,7 L41,6 L31,6 Z M42,2 L42,5 L43,5 L43,3 L46,3 L46,5 L51,5 L51,2 L48.0206909,2 L48.0206909,3 L50,3 L50,4 L47,4 L47,2 L42,2 Z M57,0 L57,2 L52,2 L52,5 L55,5 L55,4 L53,4 L53,3 L57,3 L57,5 L62,5 L62,0 L61,0 L61,4 L60,4 L60,0 L59,0 L59,4 L58,4 L58,0 L57,0 Z M42,-0.1 L42,0.9 L56,0.9 L56,-0.1 L42,-0.1 Z M42,6 L42,7 L51,7 L51,6 L42,6 Z M52,6 L52,7 L62,7 L62,6 L52,6 Z M63,2 L63,5 L64,5 L64,3 L67,3 L67,5 L72,5 L72,2 L69.0206909,2 L69.0206909,3 L71,3 L71,4 L68,4 L68,2 L63,2 Z M78,0 L78,2 L73,2 L73,5 L76,5 L76,4 L74,4 L74,3 L78,3 L78,5 L83,5 L83,0 L82,0 L82,4 L81,4 L81,0 L80,0 L80,4 L79,4 L79,0 L78,0 Z M63,-0.1 L63,0.9 L77,0.9 L77,-0.1 L63,-0.1 Z M63,6 L63,7 L72,7 L72,6 L63,6 Z M73,6 L73,7 L83,7 L83,6 L73,6 Z M84,2 L84,5 L85,5 L85,3 L88,3 L88,5 L93,5 L93,2 L90.0206909,2 L90.0206909,3 L92,3 L92,4 L89,4 L89,2 L84,2 Z M99,0 L99,2 L94,2 L94,5 L97,5 L97,4 L95,4 L95,3 L99,3 L99,5 L104,5 L104,0 L103,0 L103,4 L102,4 L102,0 L101,0 L101,4 L100,4 L100,0 L99,0 Z M84,-0.1 L84,0.9 L98,0.9 L98,-0.1 L84,-0.1 Z M84,6 L84,7 L93,7 L93,6 L84,6 Z M94,6 L94,7 L104,7 L104,6 L94,6 Z M105,2 L105,5 L106,5 L106,3 L109,3 L109,5 L114,5 L114,2 L111.020691,2 L111.020691,3 L113,3 L113,4 L110,4 L110,2 L105,2 Z M120,0 L120,2 L115,2 L115,5 L118,5 L118,4 L116,4 L116,3 L120,3 L120,5 L125,5 L125,0 L124,0 L124,4 L123,4 L123,0 L122,0 L122,4 L121,4 L121,0 L120,0 Z M105,-0.1 L105,0.9 L119,0.9 L119,-0.1 L105,-0.1 Z M105,6 L105,7 L114,7 L114,6 L105,6 Z M115,6 L115,7 L125,7 L125,6 L115,6 Z M126,2 L126,5 L127,5 L127,3 L130,3 L130,5 L135,5 L135,2 L132.020691,2 L132.020691,3 L134,3 L134,4 L131,4 L131,2 L126,2 Z M141,0 L141,2 L136,2 L136,5 L139,5 L139,4 L137,4 L137,3 L141,3 L141,5 L146,5 L146,0 L145,0 L145,4 L144,4 L144,0 L143,0 L143,4 L142,4 L142,0 L141,0 Z M126,-0.1 L126,0.9 L140,0.9 L140,-0.1 L126,-0.1 Z M126,6 L126,7 L135,7 L135,6 L126,6 Z M136,6 L136,7 L146,7 L146,6 L136,6 Z M147,2 L147,5 L148,5 L148,3 L151,3 L151,5 L156,5 L156,2 L153.020691,2 L153.020691,3 L155,3 L155,4 L152,4 L152,2 L147,2 Z M162,0 L162,2 L157,2 L157,5 L160,5 L160,4 L158,4 L158,3 L162,3 L162,5 L167,5 L167,0 L166,0 L166,4 L165,4 L165,0 L164,0 L164,4 L163,4 L163,0 L162,0 Z M147,-0.1 L147,0.9 L161,0.9 L161,-0.1 L147,-0.1 Z M147,6 L147,7 L156,7 L156,6 L147,6 Z M157,6 L157,7 L167,7 L167,6 L157,6 Z M168,2 L168,5 L169,5 L169,3 L172,3 L172,5 L178,5 L178,2 L175.020691,2 L175.020691,3 L177,3 L177,4 L173,4 L173,2 L168,2 Z M168,-0.1 L168,0.9 L178,0.9 L178,-0.1 L168,-0.1 Z M168,6 L168,7 L178,7 L178,6 L168,6 Z" id="Rectangle"/><path d="M0,51 L0,54 L1,54 L1,52 L4,52 L4,54 L9,54 L9,51 L6.02069092,51 L6.02069092,52 L8,52 L8,53 L5,53 L5,51 L0,51 Z M15,49 L15,51 L10,51 L10,54 L13,54 L13,53 L11,53 L11,52 L15,52 L15,54 L20,54 L20,49 L19,49 L19,53 L18,53 L18,49 L17,49 L17,53 L16,53 L16,49 L15,49 Z M0,48.9 L0,49.9 L14,49.9 L14,48.9 L0,48.9 Z M21,51 L21,54 L22,54 L22,52 L25,52 L25,54 L30,54 L30,51 L27.0206909,51 L27.0206909,52 L29,52 L29,53 L26,53 L26,51 L21,51 Z M36,49 L36,51 L31,51 L31,54 L34,54 L34,53 L32,53 L32,52 L36,52 L36,54 L41,54 L41,49 L40,49 L40,53 L39,53 L39,49 L38,49 L38,53 L37,53 L37,49 L36,49 Z M21,48.9 L21,49.9 L35,49.9 L35,48.9 L21,48.9 Z M42,51 L42,54 L43,54 L43,52 L46,52 L46,54 L51,54 L51,51 L48.0206909,51 L48.0206909,52 L50,52 L50,53 L47,53 L47,51 L42,51 Z M57,49 L57,51 L52,51 L52,54 L55,54 L55,53 L53,53 L53,52 L57,52 L57,54 L62,54 L62,49 L61,49 L61,53 L60,53 L60,49 L59,49 L59,53 L58,53 L58,49 L57,49 Z M42,48.9 L42,49.9 L56,49.9 L56,48.9 L42,48.9 Z M63,51 L63,54 L64,54 L64,52 L67,52 L67,54 L72,54 L72,51 L69.0206909,51 L69.0206909,52 L71,52 L71,53 L68,53 L68,51 L63,51 Z M78,49 L78,51 L73,51 L73,54 L76,54 L76,53 L74,53 L74,52 L78,52 L78,54 L83,54 L83,49 L82,49 L82,53 L81,53 L81,49 L80,49 L80,53 L79,53 L79,49 L78,49 Z M63,48.9 L63,49.9 L77,49.9 L77,48.9 L63,48.9 Z M84,51 L84,54 L85,54 L85,52 L88,52 L88,54 L93,54 L93,51 L90.0206909,51 L90.0206909,52 L92,52 L92,53 L89,53 L89,51 L84,51 Z M99,49 L99,51 L94,51 L94,54 L97,54 L97,53 L95,53 L95,52 L99,52 L99,54 L104,54 L104,49 L103,49 L103,53 L102,53 L102,49 L101,49 L101,53 L100,53 L100,49 L99,49 Z M84,48.9 L84,49.9 L98,49.9 L98,48.9 L84,48.9 Z M105,51 L105,54 L106,54 L106,52 L109,52 L109,54 L114,54 L114,51 L111.020691,51 L111.020691,52 L113,52 L113,53 L110,53 L110,51 L105,51 Z M120,49 L120,51 L115,51 L115,54 L118,54 L118,53 L116,53 L116,52 L120,52 L120,54 L125,54 L125,49 L124,49 L124,53 L123,53 L123,49 L122,49 L122,53 L121,53 L121,49 L120,49 Z M105,48.9 L105,49.9 L119,49.9 L119,48.9 L105,48.9 Z M126,51 L126,54 L127,54 L127,52 L130,52 L130,54 L135,54 L135,51 L132.020691,51 L132.020691,52 L134,52 L134,53 L131,53 L131,51 L126,51 Z M141,49 L141,51 L136,51 L136,54 L139,54 L139,53 L137,53 L137,52 L141,52 L141,54 L146,54 L146,49 L145,49 L145,53 L144,53 L144,49 L143,49 L143,53 L142,53 L142,49 L141,49 Z M126,48.9 L126,49.9 L140,49.9 L140,48.9 L126,48.9 Z M147,51 L147,54 L148,54 L148,52 L151,52 L151,54 L156,54 L156,51 L153.020691,51 L153.020691,52 L155,52 L155,53 L152,53 L152,51 L147,51 Z M162,49 L162,51 L157,51 L157,54 L160,54 L160,53 L158,53 L158,52 L162,52 L162,54 L167,54 L167,49 L166,49 L166,53 L165,53 L165,49 L164,49 L164,53 L163,53 L163,49 L162,49 Z M147,48.9 L147,49.9 L161,49.9 L161,48.9 L147,48.9 Z M168,51 L168,54 L169,54 L169,52 L172,52 L172,54 L178,54 L178,51 L175.020691,51 L175.020691,52 L177,52 L177,53 L173,53 L173,51 L168,51 Z M168,48.9 L168,49.9 L178,49.9 L178,48.9 L168,48.9 Z" id="Rectangle"/><g id="Group" transform="translate(2.000000, 53.000000)"><rect height="1" id="Rectangle-407" width="1" x="0" y="0"/><rect height="1" id="Rectangle-408" width="1" x="21" y="0"/><rect height="1" id="Rectangle-409" width="1" x="42" y="0"/><rect height="1" id="Rectangle-410" width="1" x="63" y="0"/><rect height="1" id="Rectangle-411" width="1" x="84" y="0"/><rect height="1" id="Rectangle-412" width="1" x="105" y="0"/><rect height="1" id="Rectangle-413" width="1" x="126" y="0"/><rect height="1" id="Rectangle-414" width="1" x="147" y="0"/><rect height="1" id="Rectangle-415" width="1" x="168" y="0"/></g><g id="Group-2" transform="translate(2.000000, 4.000000)"><rect height="1" id="Rectangle-407" width="1" x="0" y="0"/><rect height="1" id="Rectangle-408" width="1" x="21" y="0"/><rect height="1" id="Rectangle-409" width="1" x="42" y="0"/><rect height="1" id="Rectangle-410" width="1" x="63" y="0"/><rect height="1" id="Rectangle-411" width="1" x="84" y="0"/><rect height="1" id="Rectangle-412" width="1" x="105" y="0"/><rect height="1" id="Rectangle-413" width="1" x="126" y="0"/><rect height="1" id="Rectangle-414" width="1" x="147" y="0"/><rect height="1" id="Rectangle-415" width="1" x="168" y="0"/></g><path d="M0,47 L0,48 L9,48 L9,47 L0,47 Z M10,47 L10,48 L20,48 L20,47 L10,47 Z M21,47 L21,48 L30,48 L30,47 L21,47 Z M31,47 L31,48 L41,48 L41,47 L31,47 Z M42,47 L42,48 L51,48 L51,47 L42,47 Z M52,47 L52,48 L62,48 L62,47 L52,47 Z M63,47 L63,48 L72,48 L72,47 L63,47 Z M73,47 L73,48 L83,48 L83,47 L73,47 Z M84,47 L84,48 L93,48 L93,47 L84,47 Z M94,47 L94,48 L104,48 L104,47 L94,47 Z M105,47 L105,48 L114,48 L114,47 L105,47 Z M115,47 L115,48 L125,48 L125,47 L115,47 Z M126,47 L126,48 L135,48 L135,47 L126,47 Z M136,47 L136,48 L146,48 L146,47 L136,47 Z M147,47 L147,48 L156,48 L156,47 L147,47 Z M157,47 L157,48 L167,48 L167,47 L157,47 Z M168,47 L168,48 L178,48 L178,47 L168,47 Z" id="Rectangle-18"/></g><path d="M77.1113098,72.4663299 C66.4639338,66.1036005 69.8221411,49.049465 82.5656448,47.9595363 C72.0106602,54.1677989 71.9951413,64.4091584 77.1113098,72.4663299 C77.1113098,72.4663299 71.9951413,64.4091584 77.1113098,72.4663299 L77.1113098,72.4663299 L77.1113098,72.4663299 Z M103.861857,72.4663299 C114.509233,66.1036005 111.151025,49.049465 98.4075217,47.9595363 C108.962506,54.1677989 108.978026,64.4091584 103.861857,72.4663299 C103.861857,72.4663299 108.978026,64.4091584 103.861857,72.4663299 L103.861857,72.4663299 L103.861857,72.4663299 Z M90.522564,45.4741351 C88.2554067,47.757902 84.360322,45.4877154 85.6993087,43 C88.0425127,46.7519027 90.522564,43.7204876 90.522564,43.7204876 C90.522564,43.7204876 93.0026154,46.7518619 95.3458193,43 C96.6848061,45.4876746 92.7897214,47.757902 90.522564,45.4741351 C90.522564,45.4741351 92.7897214,47.757902 90.522564,45.4741351 C90.522564,45.4741351 92.7897214,47.757902 90.522564,45.4741351 L90.522564,45.4741351 L90.522564,45.4741351 Z M88.8945454,75.0976224 C88.8945454,75.0976224 85.156023,76.1613974 80.3678587,74.6016149 C84.2016816,74.8916977 87.1513351,73.7013267 87.3121729,73.6294861 C87.3121729,73.6294861 77.9391745,69.116355 78.1217595,59.9268852 C78.6695143,50.6286916 84.2079548,47.8008988 84.2079548,47.8008988 C84.2079548,47.8008988 74.3483676,60.6332217 88.8333794,71.3587695 L88.1943321,58.0908998 L88.1943321,48.3441091 C89.0159643,48.1673618 90.5222901,46.6176629 90.5222901,46.6176629 C90.5222901,46.6176629 92.028616,48.1673618 92.8502482,48.3441091 L92.8502482,58.0908998 L92.2112009,71.3587695 C106.695665,60.6332217 96.8360777,47.8000832 96.8360777,47.8000832 C96.8360777,47.8000832 102.374518,50.6276313 102.922273,59.9260696 C103.104858,69.1157843 93.7318597,73.6286709 93.7318597,73.6286709 C94.5838923,74.009244 96.8966958,74.6618303 101.035258,74.6618303 C95.9836798,76.2386897 92.1494872,75.0968064 92.1494872,75.0968064 L90.5214685,77 L88.8945454,75.0976224 L88.8945454,75.0976224 L88.8945454,75.0976224 L88.8945454,75.0976224 Z" fill="#CA4638" id="Shape"/></g></g></svg>