<?xml version="1.0" ?><svg height="120px" version="1.1" viewBox="0 0 180 120" width="180px" xmlns="http://www.w3.org/2000/svg" xmlns:sketch="http://www.bohemiancoding.com/sketch/ns" xmlns:xlink="http://www.w3.org/1999/xlink"><title/><desc/><defs/><g fill="none" fill-rule="evenodd" id="Page-1" stroke="none" stroke-width="1"><g id="rectangle_slovakia"><rect fill="#FFFFFF" height="120" id="Rectangle-1" width="180" x="0" y="0"/><rect fill="#346DA6" height="40" id="Rectangle-1" width="180" x="0" y="40"/><rect fill="#CA4638" height="40" id="Rectangle-1" width="180" x="0" y="80"/><path d="M12,63.3069038 C12,83.3651536 12.985404,92.4871752 12.985404,92.4871752 L38.4878723,92.4871752 L63.9908436,92.4871752 C63.9908436,92.4871752 64.9765625,83.3651536 64.9765625,63.3069038 C64.9765625,43.2486544 49.3871026,33.1087549 38.4878723,28 C27.5893347,33.1087549 12,43.2486544 12,63.3069038 C12,63.3069038 12,43.2486544 12,63.3069038 L12,63.3069038 L12,63.3069038 Z" fill="#FFFFFF" id="path2828-copy" transform="translate(38.488281, 60.243588) scale(1, -1) translate(-38.488281, -60.243588) "/><path d="M15,56.827163 C15,38.3864184 15.8818186,30 15.8818186,30 L38.7034721,30 L61.5255759,30 C61.5255759,30 62.4076762,38.3864184 62.4076762,56.827163 C62.4076762,75.2679072 48.4569774,84.5901212 38.7034721,89.2869042 C28.9505867,84.5901212 15,75.2679072 15,56.827163 Z M40.9521243,51.8482127 C43.5929019,51.8908771 48.7451419,51.9942962 53.3328778,50.459456 C53.3328778,50.459456 53.2117928,52.1008168 53.2117928,54.0128156 C53.2117928,55.9252658 53.3328778,57.5665123 53.3328778,57.5665123 C49.1247479,56.1586505 43.9280867,56.1293431 40.9521243,56.1670476 L40.9521243,66.3523525 L36.7807475,66.3523525 L36.7807475,56.1670476 C33.8050102,56.1293431 28.6082935,56.1586447 24.3999939,57.5665123 C24.3999939,57.5665123 24.5211921,55.9252658 24.5211921,54.0128156 C24.5211921,52.1008168 24.3999939,50.459456 24.3999939,50.459456 C28.9877863,51.9942962 34.1399698,51.8908771 36.7807475,51.8482127 L36.7807475,45.4516246 C34.3738551,45.4302648 30.9054876,45.5451824 26.9838934,46.8572336 C26.9838934,46.8572336 27.1050916,45.2158727 27.1050916,43.303536 C27.1050916,41.391424 26.9838934,39.7500646 26.9838934,39.7500646 C30.8996817,41.0599731 34.3638215,41.1767504 36.7700373,41.1558968 C36.6464147,37.1055037 35.4661092,32 35.4661092,32 C35.4661092,32 37.8952115,32.1895375 38.8662673,32.1895375 C39.8383368,32.1895375 42.2667071,32 42.2667071,32 C42.2667071,32 41.0867399,37.1055037 40.9628344,41.1558968 C43.3692199,41.1767504 46.8332478,41.0599731 50.7489229,39.7500646 C50.7489229,39.7500646 50.6278367,41.391424 50.6278367,43.303536 C50.6278367,45.2158727 50.7489229,46.8572336 50.7489229,46.8572336 C46.8274973,45.5451824 43.3589612,45.4302648 40.9521243,45.4516246 L40.9521243,51.8482127 Z" fill="#CA4638" id="path2828"/><path d="M21.5,78.3258598 C21.5,78.3258598 23.9537955,86.5371817 28.1151482,86.5371817 C31.4220313,86.5371817 32.6288859,83.8981497 32.6288859,83.8981497 C32.6288859,83.8981497 34.799949,89.4611258 38.8529585,89.4611258 C42.9062929,89.4611258 45.0774494,83.8981497 45.0774494,83.8981497 C45.0774494,83.8981497 46.2840715,86.5371817 49.5910479,86.5371817 C53.7524006,86.5371817 55.9,78.3258598 55.9,78.3258598 C50.1760714,70.3016194 38.4983871,65 38.4983871,65 C38.4983871,65 25.9981536,71.6065042 21.5,78.3258598 Z" fill="#346DA6" id="path2840" transform="translate(38.700000, 77.230563) scale(1, -1) translate(-38.700000, -77.230563) "/></g></g></svg>