<?xml version="1.0" ?><svg height="120px" version="1.1" viewBox="0 0 181 120" width="181px" xmlns="http://www.w3.org/2000/svg" xmlns:sketch="http://www.bohemiancoding.com/sketch/ns" xmlns:xlink="http://www.w3.org/1999/xlink"><title/><defs/><g fill="none" fill-rule="evenodd" id="Page-1" stroke="none" stroke-width="1"><g id="rectangle_south_sudan"><path d="M0.00552366097,99.997054 L0.00552366097,120 L180,120 L180,80 L37.5,80 L0.00552366097,99.997054 L0.00552366097,99.997054 Z" fill="#479951" id="Rectangle-3-copy-2"/><path d="M43.75,76.6666667 L180.005524,76.6666667 L180.005524,43.3333333 L43.75,43.3333333 L75,60 L43.75,76.6666667 L43.75,76.6666667 Z" fill="#CA4638" id="Rectangle-3-copy-3"/><path d="M0.00276191524,20.001473 L0.00276191524,0 L179.997238,0 L179.997238,40 L37.5,40 L0.00276191524,20.001473 L0.00276191524,20.001473 Z" fill="#262626" id="Rectangle-3"/><path d="M0,0 L75,60 L0,120 L0,0 Z" fill="#346DA6" id="Triangle-18-copy-2"/><path d="M37.745897,76.5409806 L26.7580363,68.730379 L16.1147074,77 L20.0412397,63.9845208 L9,56.2705327 L22.4145915,56.037127 L26.2340597,43 L30.5981998,55.871226 L44,55.527825 L33.2825973,63.7160879 L37.745897,76.5409806 L37.745897,76.5409806 Z" fill="#E5B731" id="Shape" transform="translate(26.500000, 60.000000) rotate(-45.000000) translate(-26.500000, -60.000000) "/></g></g></svg>