<?xml version="1.0" ?><svg height="120px" version="1.1" viewBox="0 0 180 120" width="180px" xmlns="http://www.w3.org/2000/svg" xmlns:sketch="http://www.bohemiancoding.com/sketch/ns" xmlns:xlink="http://www.w3.org/1999/xlink"><title/><defs/><g fill="none" fill-rule="evenodd" id="Page-1" stroke="none" stroke-width="1"><g id="rectangle_kosovo"><rect fill="#346DA6" height="120" id="rect962-copy" width="180" x="0" y="0"/><path d="M70.5282133,60.0232869 C70.5282133,60.0232869 70.8429179,59.8112039 70.9580537,59.7829262 C71.0731895,59.7546485 71.4800028,59.6273987 71.4800028,59.6273987 C71.4800028,59.6273987 71.7409773,59.4930795 71.8791403,59.4930795 C72.024979,59.4930795 72.3089807,59.648607 72.4010893,59.7829262 C72.4855223,59.9172454 72.9460655,60.1505367 72.9460655,60.1505367 C72.9460655,60.1505367 73.2607701,60.2565782 73.3221759,60.1505367 C73.3835817,60.0444952 73.5217446,59.9667315 73.6675834,59.9667315 C73.8134221,59.9667315 73.8364492,59.8324122 73.8364492,59.7263708 C73.8364492,59.6203293 73.897855,59.4860101 74.0053151,59.3587603 C74.1204509,59.2244411 74.3507226,59.1466773 74.3507226,59.1466773 C74.3507226,59.1466773 74.6654271,59.0123581 74.69613,58.8285529 C74.7268329,58.6447477 75.0415375,58.5104285 75.2180791,58.4821507 C75.3869449,58.453873 75.2180791,58.3761093 75.6786224,58.4255953 C76.1391656,58.4821507 76.2005714,58.3195538 76.2235986,58.1852346 C76.2543015,58.0509154 76.2235986,57.9165962 76.515276,57.9448739 C76.8069534,57.9731516 76.9451164,57.9731516 76.9451164,57.8105547 C76.9451164,57.6550272 77.2060909,57.570194 76.7455476,57.4429442 C76.2850043,57.308625 76.3157072,57.4146665 76.2850043,57.2025835 C76.2543015,56.9905006 76.2850043,57.0187783 75.9702998,56.9905006 C75.6555952,56.9622229 75.8244611,56.8066953 75.8014339,56.6440984 C75.770731,56.4885709 75.6862981,56.4037377 75.632568,56.2976962 C75.5711623,56.1916548 75.4022964,56.1916548 75.4022964,56.0361273 C75.4022964,55.8805998 75.3715935,55.7957666 75.2027276,55.7957666 C75.0338618,55.7957666 74.972456,55.7957666 74.972456,55.6402391 C74.972456,55.4847116 75.0031589,55.3503924 75.1720247,55.3503924 C75.3408906,55.3503924 75.4329993,55.2160731 75.4022964,55.0605456 C75.3715935,54.9050181 75.3715935,54.558616 75.3715935,54.558616 L75.6018651,54.2899776 C75.6018651,54.2899776 76.2926801,53.7314924 76.3540858,53.6254509 C76.4154916,53.5194095 76.6457632,53.4416457 76.7532233,53.6537287 C76.8683592,53.8658116 76.9220892,53.9223671 77.0141979,54.0213391 C77.0986308,54.1273806 77.3596053,54.0496169 77.4133354,53.9435754 C77.4747412,53.8375339 77.4977683,53.4487151 77.6512827,53.2366322 C77.8047972,53.0316187 77.9122573,52.9255772 77.9506359,52.7559108 C77.9890145,52.5862444 78.0657717,52.4448558 78.249989,52.4448558 C78.4342063,52.4448558 78.5493421,52.2044951 78.5493421,52.0631065 C78.5493421,51.9217178 78.6260994,51.7873986 78.8486953,51.7520515 C79.0712912,51.7167043 79.186427,51.5823851 79.2631842,51.7873986 C79.3399414,51.9924122 79.4166987,51.9924122 79.5625374,52.0631065 C79.7160518,52.1338008 79.9386477,52.2327728 80.0461078,52.1338008 C80.1612436,52.0277593 80.2149737,51.8580929 80.3838396,51.9641344 C80.5450297,52.0701759 80.6601655,51.9641344 80.6985441,51.7591209 C80.7369227,51.5541074 80.7753013,51.2783995 80.7753013,51.2783995 C80.7753013,51.2783995 80.81368,51.1370109 81.0746545,51.1370109 C81.335629,51.1370109 81.1514117,50.9673445 81.2972504,50.861303 C81.4507648,50.7552616 81.4507648,50.6562895 81.6349821,50.7199144 C81.8191995,50.7906087 82.1185526,50.6350812 81.9727139,50.4654148 C81.8191995,50.2957485 81.4891434,50.0200406 81.6733607,49.8079577 C81.8575781,49.6029441 81.9343353,49.256542 81.750118,49.2211948 C81.5659006,49.1858477 81.2972504,49.256542 81.2665475,49.0515284 C81.2281689,48.8465149 81.1514117,48.7051263 81.3816833,48.6697791 C81.6042793,48.634432 81.9803896,48.634432 82.0955254,48.5283905 C82.2106612,48.422349 82.5790959,48.3587241 82.5790959,48.0476691 C82.5790959,47.7366141 82.6942317,47.7012669 82.7326103,47.5316006 C82.7709889,47.3619342 82.7709889,47.0013932 82.6174745,46.8317268 C82.46396,46.6620604 82.2413641,46.4146303 82.2029855,46.3156583 C82.1646069,46.2096168 82.0187682,46.0399504 81.7884966,45.9692561 C81.5659006,45.8985618 81.3740076,45.8632146 81.3740076,45.6935482 C81.3740076,45.5238819 81.527522,45.7288954 81.527522,45.2764518 C81.527522,44.8310775 81.2281689,44.7603832 81.2281689,44.7603832 L80.7753013,44.4846754 C80.7753013,44.4846754 79.9770263,44.2725924 79.7621061,44.2725924 C79.5471859,44.2725924 79.3015628,44.0463706 79.5471859,43.9049819 C79.792809,43.7635933 79.8542148,43.5090938 79.7621061,43.3111497 C79.6699975,43.1132056 79.6085917,42.9718169 79.27086,42.8869837 C78.9331282,42.8021506 78.8410196,42.7173174 78.994534,42.5193733 C79.1480484,42.3214292 79.1787513,42.1800405 79.3629686,42.3214292 C79.5471859,42.4628178 79.8542148,42.5193733 80.0998379,42.4062624 C80.3454609,42.2931514 80.4375696,42.2083183 80.5603811,42.3214292 C80.6831927,42.4345401 80.8367071,42.547651 81.0209244,42.3779846 C81.2051417,42.2083183 81.5428735,42.1800405 81.6963879,42.2648737 C81.8499023,42.3497069 82.218337,42.3214292 82.3411485,42.2648737 C82.46396,42.2083183 82.7095831,42.0103742 82.7095831,41.8972633 C82.7095831,41.7841523 82.8630976,41.5862082 83.016612,41.5013751 C83.1701264,41.4165419 83.3543437,41.1337646 83.5078582,41.1337646 C83.6613726,41.1337646 83.7227784,40.9640982 83.7227784,40.8509873 C83.7227784,40.7378764 83.8455899,40.5116546 83.8762928,40.4268214 C83.9069957,40.3419882 84.2140245,40.2218079 84.4289447,40.3985437 C84.6438649,40.56821 84.9201909,40.6247655 84.9201909,40.6247655 C84.9201909,40.6247655 85.2272197,40.681321 85.3807342,40.6247655 C85.5342486,40.56821 85.7491688,40.5116546 85.964089,40.6530432 C86.1790092,40.7944319 86.486038,40.7944319 86.486038,40.7944319 C86.486038,40.7944319 86.5474438,40.56821 86.5474438,40.4550991 C86.5474438,40.3419882 86.6088496,40.1440441 86.486038,40.0592109 C86.3632265,39.9743778 86.2097121,39.8612668 86.4553352,39.6916005 C86.7009582,39.5219341 86.7009582,39.5502118 86.9465813,39.5502118 C87.1922044,39.5502118 87.3457188,39.5784896 87.5299362,39.5784896 C87.7141535,39.5784896 88.0211823,39.7481559 88.0211823,39.9178223 C88.0211823,40.0874887 88.1439939,40.2005996 88.2975083,40.2854328 C88.4510227,40.3702659 88.63524,40.4550991 88.5738343,40.5964878 C88.5124285,40.7378764 88.5124285,40.8509873 88.6966458,40.8227096 C88.8808631,40.7944319 88.9422689,40.9075428 88.9422689,41.0489314 C88.9422689,41.1903201 89.0036747,41.2751532 89.187892,41.3317087 C89.3721093,41.3882642 89.4642179,41.5013751 89.4642179,41.6427637 C89.4642179,41.7841523 89.4335151,41.8689855 89.4949208,42.0103742 C89.5563266,42.1517628 89.7405439,42.3779846 89.7405439,42.3779846 C89.7405439,42.3779846 90.0782757,42.7738728 89.6484353,42.5759287 C89.2185949,42.3779846 89.1264862,42.2931514 88.9729718,42.3214292 C88.8194573,42.3497069 88.7273487,42.4345401 88.7273487,42.4345401 C88.7273487,42.4345401 88.5124285,42.4910955 88.3589141,42.4910955 C88.2053996,42.4910955 88.0518852,42.8021506 88.2975083,42.858706 C88.5431314,42.9152615 88.63524,42.9718169 88.63524,43.169761 C88.63524,43.3677051 88.5431314,43.3111497 88.4203198,43.4525383 C88.2975083,43.5939269 88.2053996,43.5090938 87.9904794,43.5090938 C87.7755592,43.5090938 87.7141535,43.6787601 87.7141535,43.8484265 C87.7141535,44.0180929 87.8062621,43.9898151 87.8983708,44.1312038 C87.9904794,44.2725924 88.1439939,44.3008701 88.2975083,44.1594815 C88.4510227,44.0180929 88.5738343,43.9332597 88.6659429,44.1877592 C88.7580516,44.4422588 88.8808631,44.4422588 89.0650804,44.4422588 C89.2492977,44.4422588 89.3107035,44.4422588 89.4642179,44.3574256 C89.6177324,44.2725924 89.8019497,44.3574256 89.8326526,44.5836474 C89.8633555,44.8098692 90.0168699,44.838147 90.1703843,44.9229802 C90.3238987,45.0078133 90.4160074,45.0643688 90.4467103,45.2057574 C90.4774132,45.3471461 90.5695218,45.4037015 90.7230362,45.3188683 C90.8765507,45.2340352 91.1221738,45.1774797 91.2142824,45.2905906 C91.3063911,45.4037015 91.4599055,45.6299234 91.4599055,45.6299234 L91.4906084,45.9127006 L92.0739632,46.1106447 C92.0739632,46.1106447 92.135369,46.2520334 92.135369,46.3651443 C92.135369,46.4782552 92.2274776,46.5348107 92.3809921,46.5065329 C92.5345065,46.4782552 92.8108325,46.5065329 92.8108325,46.5065329 C92.8108325,46.5065329 93.0257527,46.4216997 93.0257527,46.2520334 C93.0257527,46.082367 93.1178613,46.0258115 93.2713757,46.0258115 C93.4248902,46.0258115 93.7626219,46.1389225 93.8547306,45.9692561 C93.9468392,45.7995897 94.2231652,45.7430343 94.4380854,45.8278675 C94.6530056,45.9127006 95.2056575,46.1389225 95.2056575,46.1389225 C95.2056575,46.1389225 95.1442518,46.1672002 95.3284691,46.4499775 C95.5126864,46.7327547 95.8504181,46.7327547 95.8504181,46.7327547 C95.8504181,46.7327547 95.881121,46.9872543 95.9425268,47.1003652 C96.0039326,47.2134761 96.2802585,47.2700316 96.433773,47.1569207 C96.5872874,47.0438098 96.8022076,46.9024211 96.9864249,46.9024211 C97.1706422,46.9024211 97.2934537,46.9024211 97.2934537,46.7893102 C97.2934537,46.6761993 97.1092364,46.5913661 97.1092364,46.4216997 C97.1092364,46.2520334 97.2934537,46.2520334 97.3241566,46.082367 C97.3548595,45.9127006 97.5390768,46.082367 97.6618884,46.1672002 C97.7846999,46.2520334 97.9382143,46.393422 97.9382143,46.5065329 C97.9382143,46.6196438 98.1838374,47.015532 98.3373519,47.0720875 C98.4908663,47.1286429 98.8900038,47.1569207 99.0128153,47.015532 C99.1356269,46.8741434 99.4426557,46.8175879 99.4119528,47.1569207 C99.38125,47.4962534 99.3198442,47.5245311 99.5347644,47.637642 C99.7496846,47.750753 99.7803875,48.1466411 99.5961702,48.2597521 C99.4119528,48.372863 99.3505471,48.4011407 99.3505471,48.5990848 C99.3505471,48.7970289 99.2891413,49.0232507 99.4426557,49.1363616 C99.5961702,49.2494725 99.6882788,49.3343057 99.6882788,49.4474166 C99.6882788,49.5605275 99.8724961,50.0695267 99.8724961,50.0695267 C99.8724961,50.0695267 99.9646048,50.5785258 99.9339019,50.6916367 C99.903199,50.8047476 99.8417932,51.0026917 100.118119,50.9744139 C100.394445,50.9461362 100.455851,50.9461362 100.455851,51.172358 C100.455851,51.3985799 100.54796,51.4834131 100.394445,51.5682462 C100.240931,51.6530794 100.148822,51.9358567 100.302337,51.9924122 C100.455851,52.0489676 100.578662,52.1338008 100.609365,52.2469117 C100.640068,52.3600226 100.885691,52.5579667 101.039206,52.4448558 C101.19272,52.3317449 101.223423,52.2751894 101.346235,52.2469117 C101.469046,52.218634 101.561155,52.1338008 101.438343,51.9924122 C101.315532,51.8510235 101.284829,51.7096349 101.40764,51.6248017 C101.530452,51.5399685 101.591858,51.2571912 101.591858,51.2571912 C101.591858,51.2571912 101.776075,51.0026917 101.990995,51.2571912 C102.205915,51.5116908 102.236618,51.4268576 102.390133,51.4268576 C102.543647,51.4268576 102.605053,51.5682462 102.605053,51.7096349 C102.605053,51.8510235 102.912082,51.8227458 102.912082,52.0489676 C102.912082,52.2751894 102.973488,52.8124663 102.973488,52.8124663 C102.973488,52.8124663 102.973488,53.1235213 103.157705,53.2366322 C103.341922,53.3497431 103.311219,53.3780208 103.219111,53.5194095 C103.127002,53.6607981 103.157705,53.8870199 103.157705,54.0001308 C103.157705,54.1132418 103.219111,54.1697972 103.065596,54.2829081 C102.912082,54.396019 102.850676,54.5374077 102.942785,54.707074 C103.034893,54.8767404 103.00419,54.9898513 103.249814,55.1877954 C103.495437,55.3857395 103.464734,55.4705727 103.464734,55.6119613 C103.464734,55.75335 103.710357,55.9512941 103.710357,56.0926827 C103.710357,56.2340714 103.894574,56.4037377 104.048089,56.4320155 C104.201603,56.4602932 104.38582,56.7147927 104.38582,56.8561814 C104.38582,56.99757 104.416523,57.3651805 104.416523,57.3651805 C104.416523,57.3651805 104.38582,57.4500137 104.570038,57.4500137 C104.754255,57.4500137 104.877066,57.6479578 104.938472,57.4217359 C104.999878,57.1955141 105.184095,57.1672364 105.306907,57.1106809 C105.429718,57.0541255 105.675341,56.9410146 105.798153,57.0258477 C105.920965,57.1106809 106.074479,57.1106809 106.197291,57.1106809 C106.320102,57.1106809 106.903457,57.1389587 106.903457,57.1389587 C106.903457,57.1389587 107.056971,57.1106809 107.14908,57.3369027 C107.241189,57.5631246 107.517515,57.8176241 107.364,57.930735 C107.210486,58.0438459 107.210486,58.2700678 107.394703,58.2700678 C107.57892,58.2700678 107.763138,58.2700678 107.763138,58.4114564 C107.763138,58.5528451 107.793841,58.665956 107.947355,58.5811228 C108.100869,58.4962896 108.192978,58.4680119 108.254384,58.5811228 C108.31579,58.6942337 108.438601,58.6942337 108.592116,58.7790669 C108.74563,58.8639001 108.807036,58.8073446 108.899144,58.6942337 C108.991253,58.5811228 109.359688,58.4680119 109.359688,58.4680119 C109.359688,58.4680119 109.850934,58.354901 110.035151,58.4114564 C110.219369,58.4680119 110.464992,58.5811228 110.464992,58.5811228 C110.464992,58.5811228 110.587803,58.8639001 110.526397,59.0335664 C110.464992,59.2032328 110.403586,59.1749551 110.464992,59.4294546 C110.526397,59.6839542 110.403586,59.7122319 110.280774,59.6839542 C110.157963,59.6556764 110.035151,59.6556764 110.035151,59.8818983 C110.035151,60.1081201 109.91234,60.1646755 109.91234,60.3626196 C109.91234,60.5605637 109.91234,60.532286 109.789528,60.6171192 C109.666717,60.7019524 109.636014,60.843341 109.820231,60.8716187 C110.004448,60.8998965 109.943043,61.0978406 109.943043,61.2109515 C109.943043,61.3240624 109.91234,61.5785619 109.91234,61.5785619 C109.91234,61.5785619 109.943043,61.7199506 109.728122,61.7199506 C109.513202,61.7199506 109.328985,61.6916729 109.298282,61.8330615 C109.267579,61.9744501 109.021956,62.200672 109.236876,62.3420606 C109.451796,62.4834492 109.390391,62.5682824 109.267579,62.6248379 C109.144768,62.6813933 109.052659,62.9641706 109.298282,63.0490038 C109.543905,63.133837 109.513202,63.2186702 109.359688,63.3317811 C109.206173,63.444892 108.899144,63.5297252 108.899144,63.6993915 C108.899144,63.8690579 108.837739,63.8690579 108.653521,63.8973356 C108.469304,63.9256134 108.377195,64.1518352 108.592116,64.4346125 C108.807036,64.7173898 108.868442,64.6608343 109.021956,64.6608343 C109.17547,64.6608343 109.17547,64.4346125 109.17547,64.4346125 C109.17547,64.4346125 109.697419,64.4628902 109.850934,64.4628902 C110.004448,64.4628902 110.219369,64.4628902 110.34218,64.378057 C110.464992,64.2932238 110.802723,64.1518352 110.802723,64.4063347 C110.802723,64.6608343 110.864129,64.6325566 111.017644,64.7456675 C111.171158,64.8587784 111.201861,64.7739452 111.324672,64.9436116 C111.447484,65.1132779 111.478187,64.9718893 111.570296,64.7739452 C111.662404,64.5760011 111.846621,64.378057 112.000136,64.6042788 C112.15365,64.8305007 112.15365,64.7739452 112.337868,64.7739452 C112.522085,64.7739452 112.583491,64.8587784 112.583491,65.000167 C112.583491,65.1415557 112.767708,65.1415557 112.982628,65.1132779 C113.197548,65.0850002 113.228251,65.2263889 113.32036,65.3677775 C113.412469,65.5091661 113.443172,65.4808884 113.565983,65.4808884 C113.688795,65.4808884 113.811606,65.4808884 113.903715,65.3677775 C113.995823,65.2546666 114.118635,65.1132779 114.241447,65.2829443 C114.364258,65.4526107 114.609881,65.424333 114.671287,65.2263889 C114.732693,65.0284448 115.009019,64.8587784 115.162533,65.0850002 C115.316048,65.311222 115.438859,65.311222 115.592374,65.3394998 C115.745888,65.3677775 115.960808,65.3677775 116.052917,65.5091661 C116.145025,65.6505548 116.452054,65.8767766 116.237134,66.046443 C116.022214,66.2161093 115.776591,66.4423312 115.960808,66.4988866 C116.145025,66.5554421 116.267837,66.6119975 116.390649,66.7533862 C116.51346,66.8947748 116.912598,66.9513303 117.096815,66.979608 C117.281032,67.0078857 117.434547,67.0361635 117.649467,66.8664971 C117.864387,66.6968307 118.079307,66.6968307 118.048604,66.9230525 C118.017901,67.1492744 118.140713,67.4037739 118.140713,67.4037739 C118.140713,67.4037739 118.294227,67.7713844 118.294227,67.912773 C118.294227,68.0541617 118.263525,68.0824394 118.539851,68.2521058 C118.816176,68.4217721 118.785474,68.534883 119.000394,68.3652167 C119.215314,68.1955503 119.27672,68.1107171 119.27672,67.9693285 L119.27672,67.5168848 C119.27672,67.5168848 119.583749,67.4603294 119.70656,67.3754962 C119.829372,67.290663 120.320618,67.0361635 120.443429,67.1492744 C120.566241,67.2623853 120.719755,67.2341075 120.842567,67.1775521 C120.965378,67.1209966 121.211002,67.1209966 121.333813,67.1209966 C121.456625,67.1209966 121.671545,67.1492744 121.917168,66.9513303 C122.162791,66.7533862 122.162791,66.8099416 122.316305,66.9513303 C122.46982,67.0927189 122.46982,67.2623853 122.377711,67.3754962 C122.285603,67.4886071 122.377711,67.7431067 122.592631,67.7431067 C122.807552,67.7431067 122.868957,67.8562176 122.868957,67.9976062 C122.868957,68.1389948 122.89966,68.3369389 122.930363,68.4500499 C122.961066,68.5631608 122.961066,68.6197162 123.298798,68.7045494 C123.63653,68.7893826 123.575124,68.9873267 123.63653,69.1287153 C123.697935,69.270104 123.697935,69.3832149 123.513718,69.3832149 C123.329501,69.3832149 123.268095,69.4680481 123.237392,69.6094367 C123.206689,69.7508253 122.930363,69.8073808 122.930363,69.8073808 L122.654037,69.7508253 C122.654037,69.7508253 122.46982,69.7508253 122.377711,69.8639363 C122.285603,69.9770472 122.101385,70.203269 122.224197,70.4012131 C122.347008,70.5991572 122.347008,70.7122681 122.224197,70.7971013 C122.101385,70.8819345 122.039979,71.3061004 121.917168,71.2212672 C121.794356,71.136434 121.640842,71.2495449 121.51803,71.3061004 C121.395219,71.3626558 121.425922,71.758544 121.671545,71.8999327 C121.917168,72.0413213 121.978574,72.2392654 121.978574,72.2392654 L122.2549,72.6634313 C122.2549,72.6634313 122.162791,72.7482645 122.101385,72.8896531 C122.039979,73.0310418 121.855762,73.3138191 122.039979,73.3703745 C122.224197,73.42693 122.132088,73.737985 121.947871,73.737985 C121.763653,73.737985 121.548733,73.6531518 121.51803,73.8793736 C121.487328,74.1055955 121.395219,74.04904 121.211002,74.0207623 C121.026784,73.9924845 120.566241,73.8793736 120.443429,74.1055955 C120.320618,74.3318173 120.289915,74.4166505 120.074995,74.3883727 C119.860075,74.360095 119.952183,74.7277055 120.013589,74.8690941 C120.074995,75.0104827 120.289915,75.2084268 120.289915,75.2084268 C120.289915,75.2084268 120.474132,75.3498155 120.474132,75.6325928 C120.474132,75.91537 120.351321,75.8870923 120.228509,75.6891482 C120.105698,75.4912041 119.860075,75.5194819 119.829372,75.7457037 C119.798669,75.9719255 119.767966,76.3112582 119.553046,76.3112582 C119.338126,76.3112582 119.246017,76.3678137 119.153908,76.4809246 C119.0618,76.5940355 118.908285,76.7919796 118.908285,76.9050905 C118.908285,77.0182014 118.877582,77.1313123 118.724068,77.1595901 C118.570553,77.1878678 118.539851,77.4989228 118.539851,77.4989228 C118.539851,77.4989228 118.171416,77.5554783 118.140713,77.6968669 C118.11001,77.8382555 118.171416,78.0644774 117.864387,78.0927551 C117.557358,78.1210328 117.373141,78.3189769 117.281032,78.4603656 C117.188924,78.6017542 117.158221,78.7148651 117.281032,78.8562538 C117.403844,78.9976424 117.495952,79.450086 117.649467,79.5349192 C117.802981,79.6197524 117.925793,79.6480301 117.89509,79.874252 C117.864387,80.1004738 117.68017,80.2701402 117.925793,80.2701402 C118.171416,80.2701402 118.32493,80.3266956 118.232822,80.5246397 C118.140713,80.7225838 118.140713,80.7508615 117.956496,80.8356947 C117.772278,80.9205279 117.68017,80.9205279 117.68017,81.1467497 C117.68017,81.3729715 117.741575,81.3729715 117.588061,81.4578047 C117.434547,81.5426379 117.434547,81.6557488 117.434547,81.8254152 C117.434547,81.9950816 117.373141,81.9385261 117.188924,82.1364702 C117.004706,82.3344143 116.759083,82.3344143 116.605569,82.2778588 C116.452054,82.2213034 116.421351,82.2213034 116.390649,82.051637 C116.359946,81.8819707 116.08362,81.8819707 115.930105,81.9102484 C115.776591,81.9385261 115.561671,82.1081925 115.561671,82.1081925 C115.561671,82.1081925 115.285345,82.2778588 115.408156,82.4192475 C115.530968,82.5606361 115.469562,82.7868579 115.254642,82.7585802 C115.039722,82.7303025 114.548475,82.984802 114.394961,82.7303025 C114.241447,82.4758029 113.811606,82.3061366 113.7502,82.6454693 C113.688795,82.984802 113.934418,82.9565243 113.903715,83.2958571 C113.873012,83.6351898 113.811606,83.6351898 113.688795,83.7483007 C113.565983,83.8614116 113.565983,83.9462448 113.53528,84.0876334 C113.504577,84.2290221 113.473874,84.5400771 113.688795,84.653188 C113.903715,84.7662989 113.995823,85.0773539 113.995823,85.2470203 C113.995823,85.4166867 113.995823,85.586353 114.210744,85.586353 C114.425664,85.586353 114.609881,85.5580753 114.640584,85.3601312 C114.671287,85.1621871 115.101127,85.0490762 115.13183,85.4449644 C115.162533,85.8408526 115.162533,86.0387967 115.316048,86.208463 C115.469562,86.3781294 115.592374,86.6043512 115.715185,86.6891844 C115.837997,86.7740176 116.045241,87.4950997 116.045241,87.4950997 C115.745888,87.5587246 115.669131,87.9475433 115.477238,88.0253071 C115.369778,88.0677237 115.254642,88.0323765 115.154857,88.1030708 C115.0781,88.1596263 115.0781,88.2656678 114.97064,88.3151538 C114.748044,88.4141258 114.786423,88.0677237 114.517773,88.1949734 C114.272149,88.3080843 114.249122,88.5908616 113.896039,88.4706813 C113.711822,88.4070564 113.596686,87.6859743 113.542956,87.516308 C113.512253,87.4173359 113.32036,87.1204198 113.258954,87.0285172 C113.05171,86.7174621 112.637221,87.0285172 112.506734,86.9366145 C112.299489,86.7952259 112.391598,86.5548652 112.076893,86.5265875 C111.439808,86.4841709 111.892676,86.9154062 111.624026,87.0143783 C111.109752,87.1981835 111.109752,86.5336569 110.725966,86.8376425 C110.580127,86.9507534 110.956238,87.0214477 110.864129,87.2193918 C110.787372,87.3819888 110.411262,87.6294189 110.434289,87.8202935 C110.464992,88.0818625 110.748993,88.1596263 110.833426,88.3787787 C111.063698,88.9584721 110.679912,89.3614297 110.104233,88.9089861 C109.781852,88.6544865 109.720447,88.1808346 109.221525,88.2161817 C109.106389,88.2232512 109.06801,88.3434315 108.952875,88.3575704 C108.837739,88.3646398 108.74563,88.2515289 108.622818,88.286876 C108.438601,88.3505009 108.599791,88.4777507 108.561413,88.5837922 C108.561413,88.5837922 108.31579,88.7888057 108.277411,88.8453612 C108.139248,89.0291664 108.185302,89.1917633 107.985734,89.3402214 C107.816868,89.4674712 107.68638,89.3897074 107.502163,89.5876515 C107.31027,89.7926651 107.294919,90.0966506 107.049296,90.2945947 C106.926484,90.3935668 106.842051,89.9976786 106.688537,90.2592476 C106.66551,90.2945947 106.642482,90.3299419 106.627131,90.3652891 C106.588752,90.4430528 106.581077,90.4784 106.619455,90.5632332 C106.941836,91.1853432 106.266372,91.4186344 106.059128,91.8569392 C105.967019,92.0407444 106.220318,92.2104108 106.120533,92.3517994 C106.051452,92.4578409 105.752099,92.7476876 105.729072,92.8113125 C105.706044,92.8749374 105.675341,93.0163261 105.621611,93.0658121 C105.567881,93.1223675 105.383664,93.0940898 105.368313,93.178923 C105.352961,93.277895 105.560206,93.3556588 105.613936,93.4192837 C105.683017,93.4970474 105.583233,93.6030889 105.60626,93.6242972 C105.951667,93.9706994 105.744423,93.8646579 105.920965,94.1686435 C105.943992,94.2110601 106.051452,94.1332963 106.08983,94.2464072 C106.128209,94.3524487 106.005398,94.3453793 106.051452,94.4655596 C106.059128,94.5009068 106.304751,94.8190312 106.304751,94.8261006 C106.320102,94.9321421 105.836532,95.1512945 105.729072,95.1512945 C105.437394,95.158364 105.98237,94.5503928 105.506476,94.5503928 C105.299231,94.5503928 105.28388,95.0240447 105.23015,95.0735308 C105.207122,95.0947391 105.015229,95.0735308 104.969175,95.0735308 C104.662146,95.0735308 104.462578,95.4552801 104.339766,95.4906273 C104.263009,95.518905 104.094143,95.4482107 103.963656,95.469419 C103.840844,95.4906273 103.695005,95.6108076 103.57987,95.6108076 C103.503112,95.6108076 103.464734,95.5613216 103.403328,95.5259744 C103.265165,95.4482107 103.011866,95.4128635 102.858352,95.3633775 C102.773919,95.3350998 102.612729,95.469419 102.558999,95.4340718 C102.459214,95.3704469 102.62808,95.1937111 102.397808,95.0664613 C102.367106,95.0523225 102.19824,94.6422954 102.205915,94.6210871 C102.282673,94.3524487 102.367106,94.062602 102.328727,93.7798247 C102.282673,93.489978 101.829805,93.2425479 101.706994,93.0092566 C101.614885,92.8325208 101.530452,92.3659383 101.35391,92.245758 C101.162017,92.1185082 100.985476,91.8710781 100.885691,91.6802034 C100.854988,91.623648 100.947097,91.5246759 100.878016,91.4257039 C100.801258,91.3196624 100.65542,91.2772458 100.617041,91.1358571 C100.586338,91.0227462 100.617041,90.6551358 100.486554,90.577372 C100.340715,90.4925388 99.4042771,90.3794279 99.1740055,90.3582196 C99.0511939,90.3511502 98.9590853,90.3511502 98.8669766,90.2592476 C98.828598,90.2239004 98.7671922,90.0754423 98.7364894,90.0754423 C98.6443807,90.0683729 98.5369206,90.1178589 98.444812,90.1249284 C98.3757305,90.1319978 98.2605946,90.0825118 98.1991889,90.1249284 C97.8998357,90.3299419 97.8230785,90.5915109 97.5390768,90.8106633 C97.2473994,91.0298157 96.9250191,91.0227462 96.6333417,91.2772458 C96.4491244,91.4398427 96.3263129,91.8286615 96.1420955,92.0124667 C96.0653383,92.0902305 95.9425268,92.0124667 95.9118239,92.0478139 C95.7583095,92.2386885 95.5433893,92.3517994 95.3898748,92.5285352 C95.359172,92.5638824 95.3668477,92.6345767 95.3284691,92.6628545 L94.9984131,92.7476876 C94.9139801,92.7618265 94.75279,92.7406182 94.6837085,92.7618265 C94.5301941,92.8113125 94.5378698,92.9739095 94.0159207,93.0799509 C93.9775421,93.0870204 93.9084606,93.1223675 93.8777577,93.1435758 C93.816352,93.1859924 93.7702976,93.2496173 93.7088919,93.2920339 C93.6705133,93.3203116 93.5553774,93.2708256 93.4862959,93.277895 C93.3558087,93.2991033 93.2790515,93.4122142 93.1562399,93.4263531 C92.879914,93.4617003 92.4347221,93.2991033 92.2198019,93.3839365 C92.0893147,93.4334225 91.7285557,93.8363802 91.5980685,93.8787968 C91.5136355,93.9070745 91.4522298,93.8717273 91.3601211,93.8363802 C91.3140668,93.8929356 91.2066067,94.3312404 91.1682281,94.4302125 C91.1682281,94.4372819 90.5771975,94.9321421 90.5311432,94.9886976 C90.454386,95.0735308 90.4236831,95.1654334 90.3315745,95.257336 C90.2701687,95.3209609 90.1703843,95.3775163 90.0705999,95.3775163 C89.9477884,95.3775163 89.7635711,95.2856137 89.6484353,95.2644054 C89.4258393,95.2290583 88.7580516,95.2007805 88.5584828,95.2431971 C88.3512383,95.2856137 88.4126441,95.879446 87.8983708,95.9360015 C87.5990176,95.9713486 87.3226917,96.0279041 87.0156628,96.0561818 C86.9849599,96.0561818 86.8007426,95.928932 86.6165253,95.9784181 C86.5474438,95.9996264 86.3248479,96.2258482 86.3248479,96.2965425 L86.3248479,96.4237923 C86.3248479,96.4450006 86.3862537,96.5227643 86.3785779,96.5298338 C86.2634421,96.664153 86.0024676,96.8762359 85.9180347,97.0317634 C85.8950075,97.07418 85.8643046,97.123666 85.825926,97.1519438 C85.7568445,97.2014298 85.4037613,97.335749 85.3730584,97.3993739 C85.2886255,97.6114569 85.6186815,97.809401 85.5879786,97.8942341 C85.49587,98.169942 85.1274354,98.431511 85.0122995,98.6860105 C84.9662452,98.792052 85.1351111,99.1455236 85.1274354,99.2657039 C85.0890568,99.5979672 84.9739209,100.022133 84.9892724,100.347327 C84.9892724,100.410952 85.0353267,100.743215 85.0583539,100.778562 C85.0967325,100.842187 85.1811654,100.877534 85.2348955,100.93409 C85.2886255,100.990645 85.6954387,101.782422 85.7107902,101.867255 C85.7875474,102.454018 84.9355423,102.249004 85.4267885,102.835767 C85.5035457,102.92767 85.5649515,103.026642 85.6493844,103.104406 C85.7568445,103.210447 86.3862537,103.66996 86.3939294,103.719446 C86.4092808,103.804279 85.8873318,103.889112 85.7952231,103.981015 C85.5496,104.221376 85.3423556,104.66675 85.1044082,104.91418 C84.9585695,105.069708 84.8280822,104.900041 84.6361892,105.260582 C84.5671077,105.394901 84.6361892,105.698887 84.5517563,105.78372 C84.4289447,105.91097 84.3291603,105.741304 84.2063488,105.797859 C84.1526188,105.819067 84.1219159,105.974595 84.0681858,106.017012 C83.9300228,106.137192 82.7019074,106.78758 82.5867716,106.731024 C82.5253658,106.702746 82.4562843,106.497733 82.4486086,106.434108 C82.4332572,106.363414 82.3564999,106.207886 82.2950942,106.1584 C81.9803896,105.889762 81.4968192,105.840276 81.1897903,106.16547 C81.1130331,106.250303 81.1053574,106.377553 81.005573,106.462386 C80.8367071,106.603774 80.6448141,106.731024 80.4836239,106.872413 C80.452921,106.900691 80.3608124,107.006732 80.3224338,106.999663 C80.1996222,106.985524 79.9002691,106.646191 79.8235119,106.554288 C79.6853489,106.391691 79.2862114,106.002873 79.2478328,105.819067 C79.2478328,105.189888 78.7565866,104.532431 78.5493421,103.91739 L78.856371,103.92446 C79.2017785,103.691168 79.1019941,103.118544 79.7237275,103.344766 C79.8004847,103.238725 79.792809,103.125614 79.9386477,103.04785 C79.9923778,103.019572 80.0921621,102.991295 80.122865,102.941809 C80.3301095,102.623684 80.5757326,101.407742 80.3608124,101.096687 C80.1689194,100.81391 79.9693506,100.828048 79.8158362,100.361466 C79.7697818,100.234216 79.8542148,100.085758 79.8158362,99.9443694 C79.7851333,99.8312585 79.5778888,99.1596625 79.5471859,99.1101764 C79.5088073,99.053621 79.3783201,98.9829267 79.3706443,98.9475795 C79.3629686,98.891024 79.3169143,98.1628726 79.3399414,98.1063171 C79.132697,97.5407625 78.4342063,97.1802215 78.3958277,97.1165966 C78.3113948,96.9822774 78.2269618,96.8055416 78.1348532,96.6570835 C78.0273931,96.4803477 78.0273931,96.3884451 77.9659873,96.2187788 C77.9429602,96.141015 77.8278243,96.0773901 77.8201486,95.9925569 C77.8047972,95.8440989 78.2269618,95.5330438 78.2116104,95.2714749 C78.2039347,95.1866417 77.9429602,94.9321421 77.9966902,94.7907535 C78.0504203,94.6422954 78.3190705,94.3100321 78.3113948,94.1474352 C78.2960433,93.9282828 77.8892301,93.4546308 77.8355001,93.2213396 C77.8124729,93.1082287 77.9966902,93.0163261 77.9506359,92.9385623 C77.8969058,92.8395903 77.4670654,92.4507715 77.3979839,92.3376606 C77.3442539,92.2528274 77.5591741,92.1397165 77.4056597,91.984189 C77.2674967,91.8428003 77.3826325,91.8922864 77.3442539,91.772106 C77.2981996,91.6377868 77.1446851,91.5176065 77.0832794,91.3762178 C77.0295493,91.2560375 76.6611147,89.9269843 76.6687904,89.8492205 C76.6073846,89.7573179 76.4999245,89.6795542 76.4461945,89.5876515 C76.3924644,89.4957489 76.3694373,89.3190131 76.3233829,89.2483188 C76.3157072,89.2412494 75.908894,89.121069 75.8321368,89.0008887 C75.770731,88.9019166 75.7553796,88.5767228 75.6479195,88.4141258 C75.5941894,88.3363621 75.5097565,88.3505009 75.4483507,88.2939455 C75.3946207,88.2515289 75.4022964,88.1737651 75.3639178,88.1242791 C75.2411062,87.9546127 74.9954831,88.1101402 74.8266173,87.4880302 C74.6040214,87.3325027 74.3967769,87.1981835 74.2048838,87.0073089 C74.1665052,86.9719617 74.1434781,86.9295451 74.0974237,86.9083368 C73.9439093,86.8447119 73.7136377,86.8235036 73.5831504,86.7103927 C73.5063932,86.7103927 73.09958,86.6962538 73.0535256,86.6679761 C73.0074713,86.6396984 72.961417,86.4629626 72.9307141,86.4558932 C72.7157939,86.4134766 72.3627107,86.4346849 72.1784934,86.2791574 C72.0326547,86.1519076 72.0019518,85.536867 71.7409773,85.6217002 C71.7102744,85.6075613 71.6718958,85.5934225 71.6335172,85.6004919 C71.4646513,85.3813395 70.8812965,85.3530618 70.6433491,85.2116731 C70.5742676,85.1692565 70.3516717,85.2046037 70.3516717,85.1409788 C70.4054018,85.0207985 70.3900503,84.9218264 70.397726,84.8016461 C70.2672388,84.6743963 70.1828058,84.5259382 70.0906972,84.4340356 C69.8681013,84.3845496 69.9525342,84.3633413 69.8143712,84.2785081 C69.4305852,84.2502304 69.3922065,84.3138553 69.1465835,84.5400771 C69.0851777,84.5966325 68.9623661,84.6107714 68.8856089,84.653188 C68.7551217,84.7238823 68.7167431,84.9571736 68.5325258,84.8511321 C68.47112,84.8157849 68.4327414,84.7592295 68.386687,84.7168129 C68.2792269,84.6249103 68.2178212,84.6743963 68.1640911,84.5047299 C67.8493865,84.3350636 66.98203,84.9218264 66.7747856,84.5117994 C66.6289468,84.4340356 66.5214868,84.5330077 66.3986752,84.4057579 C66.3372694,84.342133 66.5675411,83.6351898 65.9381319,83.3453431 C66.0839706,83.2322322 66.2374851,83.1544684 66.375648,83.0484269 C66.4140267,82.9706632 66.3679723,82.8504828 66.3679723,82.7727191 C66.3679723,82.6525387 66.4447295,82.4192475 66.4217024,82.3344143 C66.3986752,82.2495811 66.3065666,82.1788868 66.2758637,82.0799147 C66.2374851,81.9809427 66.2835394,81.8536929 66.2298093,81.7476514 C66.1914307,81.7193737 66.0762949,81.6486794 66.0302406,81.6486794 C65.8690504,81.5143602 65.6925088,81.429527 65.5620216,81.2669301 C65.5313187,81.2315829 65.5082915,81.167958 65.4699129,81.1396803 C65.3547771,81.0548471 64.9786668,80.9417362 64.9940182,80.7650004 C65.0016939,80.7084449 65.0784511,80.7013755 65.1014783,80.6448201 C65.1245055,80.5741257 65.109154,80.4822231 65.1628841,80.4185982 C65.3394257,80.1782375 65.7308874,80.284279 65.6694817,79.8389048 C65.6387788,79.6409607 65.5006158,79.4712943 65.4622372,79.2592114 C65.3931557,79.2097254 65.38548,79.1248922 65.3240742,79.0754061 C64.9402881,79.040059 64.9940182,78.6441708 64.8558552,78.5522682 C64.449042,78.2765603 64.1343374,78.4462267 64.587205,77.9018804 C64.6486107,77.7251446 64.1957432,77.4423674 64.1036345,77.3433953 C63.9424444,77.1878678 64.0192016,76.8626739 63.9577958,76.6930076 C63.9270929,76.6081744 63.6584427,76.4597163 63.5740097,76.339536 C63.5509826,76.3041888 63.4819011,76.1203836 63.4435225,76.0991753 L63.4511982,76.0426198 C63.5356311,75.9789949 63.4895768,75.8517452 63.4665496,75.766912 C63.4128196,75.7174259 63.2976838,75.7315648 63.2593052,75.6962177 C62.8908705,75.3639543 62.4456787,75.2154963 61.9621083,75.0246216 C61.831621,74.9751356 61.8699996,74.8690941 61.7625395,74.8196081 C61.6704308,74.7771915 61.0179945,74.4873448 60.9719402,74.5014836 C60.895183,74.4802753 60.8414529,74.1904286 60.7877229,74.098526 C60.7416686,74.0136928 60.5574512,73.8581653 60.5574512,73.8510959 C60.5728027,73.5824575 60.4039368,73.5471103 60.1966923,73.4057217 C60.2120438,73.3703745 60.1736652,73.2855413 60.1736652,73.2431247 C60.1736652,73.2077776 60.3118282,72.7411951 60.3348553,72.6775702 C60.3732339,72.5785981 60.5037212,72.4866955 60.480694,72.3735846 C60.4499911,72.1968488 60.426964,71.921141 60.3655582,71.7656135 C60.1583137,71.2141978 59.9126906,71.2848921 60.0431779,70.56381 C60.0738808,70.4153519 60.0201507,70.3305188 60.1352866,70.1961996 C60.1199351,70.1891301 60.1890166,70.1184358 60.1966923,70.1042969 C60.2657738,70.0406721 60.4576669,69.9346306 60.4960455,69.8851445 C60.6111813,69.729617 60.6802628,69.3761454 60.8261015,69.2630345 C60.9335616,69.1782013 61.2405904,69.0156044 61.2943205,68.9449101 C61.3403748,68.8883546 61.4094563,68.7116188 61.3710777,68.6409245 C61.2636176,68.5772996 61.1561575,68.6055774 61.0486974,68.5914385 C61.0103188,68.5843691 60.8721558,68.485397 60.7646957,68.4641887 C60.7339928,68.4288416 60.6802628,68.386425 60.6802628,68.3369389 L60.6342085,68.2945223 C60.5113969,68.2803835 60.3732339,68.2026197 60.2657738,68.1672726 C60.1276108,68.1107171 59.9357178,68.1036477 59.8052305,68.0258839 C59.5596075,67.8844953 59.2832815,67.4956765 59.0453341,67.4391211 C58.7229538,67.3684268 58.5157094,67.4673988 58.2086805,67.4815377 C58.0091117,67.4956765 58.0091117,67.3754962 57.8479216,67.3260102 C57.6330014,67.2623853 57.7941915,67.4391211 57.3029454,67.2835936 C57.2415396,67.2341075 57.3336483,67.0644412 57.341324,67.0008163 C57.2645668,66.979608 57.1724581,67.0220246 57.0803495,67.0008163 C56.6735362,66.9018442 56.8270507,66.5342338 56.7195906,66.2938731 C56.6735362,66.2373176 56.5046704,66.2514565 56.4279131,66.2443871 C56.404886,66.2373176 56.3972103,66.2019705 56.404886,66.1878316 L56.4432646,66.1595539 C56.5123461,66.0535124 56.266723,65.784874 56.2743987,65.7495268 C56.2897502,65.6646936 56.788672,65.5869299 56.8577535,65.5798605 C56.8807807,65.5162356 56.8116992,65.4596801 56.8040235,65.3960552 C56.788672,65.2546666 56.8807807,65.0708614 56.926835,64.9436116 L56.9114836,64.901195 C56.7733206,64.8234312 56.7272663,64.7103203 56.6044547,64.6184177 C56.6121305,64.5547928 56.6965634,64.5123762 56.7119148,64.4487513 C56.9498622,63.7912942 57.3182968,64.3144321 57.6406771,63.706461 C57.67138,63.6499055 57.7634887,63.5014475 57.7941915,63.4024754 L57.8555973,63.3883365 C57.9170031,63.4024754 58.001436,63.4519614 58.0628418,63.4307531 C58.1088961,63.3671282 58.2086805,63.3459199 58.2854377,63.3247117 L58.4005735,63.3529894 C58.9992798,63.2257396 58.8611168,63.0065872 59.2065243,62.7591571 C59.2986329,62.6955322 59.5672832,62.6672545 59.6900947,62.6248379 C59.820582,62.6813933 60.0047993,62.8864069 60.2504224,62.9783095 C60.426964,63.0490038 61.033346,63.1762536 61.1331303,63.232809 C61.2636176,63.3035034 61.2866448,63.4731697 61.4017806,63.5367946 C61.7471881,63.7205998 61.5476193,63.4095448 61.8776753,63.4731697 C62.2154071,63.543864 62.491733,63.8195719 62.8064376,63.9538911 C62.8601677,63.9750994 62.9906549,63.9468217 63.0520607,63.9326828 C63.1518451,63.9114745 63.6891456,63.8125025 63.7428756,63.8337108 C63.8042814,63.8549191 63.89639,63.9114745 63.9577958,63.9256134 C64.034553,63.9397522 64.0959588,63.7771553 64.1496888,63.7842247 C64.3799605,63.8195719 64.3876362,63.9114745 64.6946651,63.8831968 C64.7100165,63.8831968 64.8558552,63.0207261 65.0016939,62.9783095 C65.0861269,62.9571012 65.3163985,63.183323 65.38548,63.1974619 C65.5006158,63.2257396 65.3778043,63.0207261 65.3701285,63.0065872 C65.3394257,62.9358929 65.1782355,62.4056855 65.1859112,62.3561995 C65.193587,62.3279217 65.3394257,62.3986161 65.4085072,62.3774078 C65.577373,62.3208523 65.8076447,62.2784357 65.9304562,62.1441165 C65.9458076,62.1299776 66.2067822,61.7552977 66.2144579,61.7411589 C66.2298093,61.677534 66.1453764,61.5290759 66.183755,61.4795899 C66.2221336,61.4371733 66.3679723,61.3806179 66.4370538,61.3099235 C66.5368382,61.2109515 66.5521896,61.0412851 66.6903526,60.9705908 C67.2353288,60.9211048 67.4272219,60.4969389 67.918468,60.4403834 C67.9491709,60.4403834 68.056631,60.4191751 68.0796582,60.4262445 L68.1794426,60.5888415 C68.2101455,60.6312581 68.5402015,60.8292022 68.5939315,60.8150633 C68.6399859,60.8079939 68.663013,60.7302301 68.7090673,60.7160912 C68.8088517,60.7302301 69.0851777,60.5605637 69.1158806,60.4757306 C69.1235563,60.4615917 69.0544748,60.3767585 69.0851777,60.3202031 C69.1082049,60.2777865 69.4536123,60.0232869 69.5073424,59.9950092 C69.6301539,59.9950092 69.7606412,59.9667315 69.875777,60.009148 C69.9448585,60.0374258 69.9525342,60.1434673 70.0292914,60.1576061 C70.1137244,60.1646755 70.2672388,60.1293284 70.3286446,60.1434673 C70.397726,60.1576061 70.4284289,60.0162175 70.5128619,60.009148 L70.5282133,60.0232869 Z" fill="#E5B731" id="Shape"/><path d="M46.7796602,33.4893218 L41.9715663,36.9999999 L43.6373003,31.0705517 L39,27.310822 L44.8375756,27.1568988 L46.7796605,21.3225806 L48.7217465,27.1568998 L54.559322,27.3108261 L49.9220202,31.0705526 L51.5877543,37 L46.7796602,33.4893218 Z M64.0677958,26.5215798 L59.2597019,30.0322579 L60.9254359,24.1028098 L56.2881356,20.3430801 L62.1257112,20.1891568 L64.0677961,14.3548387 L66.0098821,20.1891579 L71.8474576,20.3430842 L67.2101558,24.1028107 L68.8758899,30.0322581 L64.0677958,26.5215798 Z M81.3559314,22.1667411 L76.5478375,25.6774192 L78.2135715,19.7479711 L73.5762712,15.9882414 L79.4138468,15.8343181 L81.3559317,10 L83.2980176,15.8343192 L89.1355932,15.9882455 L84.4982914,19.747972 L86.1640255,25.6774194 L81.3559314,22.1667411 Z M98.644067,22.1667411 L93.835973,25.6774192 L95.5017071,19.7479711 L90.8644068,15.9882414 L96.7019824,15.8343181 L98.6440673,10 L100.586153,15.8343192 L106.423729,15.9882455 L101.786427,19.747972 L103.452161,25.6774194 L98.644067,22.1667411 Z M115.932203,26.5215798 L111.124109,30.0322579 L112.789843,24.1028098 L108.152542,20.3430801 L113.990118,20.1891568 L115.932203,14.3548387 L117.874289,20.1891579 L123.711864,20.3430842 L119.074563,24.1028107 L120.740297,30.0322581 L115.932203,26.5215798 Z M133.220338,33.4893218 L128.412244,36.9999999 L130.077978,31.0705517 L125.440678,27.310822 L131.278254,27.1568988 L133.220338,21.3225806 L135.162424,27.1568998 L141,27.3108261 L136.362698,31.0705526 L138.028432,37 L133.220338,33.4893218 Z" fill="#FFFFFF" id="Star-1"/></g></g></svg>